<svg width="52" height="52" viewBox="0 0 52 52" fill="none" xmlns="http://www.w3.org/2000/svg">
<circle cx="26" cy="25.9999" r="26" fill="white"/>
<path d="M9.44457 30.9919L10.2692 30.6313L11.8517 34.2505L11.0271 34.6111C10.8351 34.6951 10.6177 34.6993 10.4226 34.6229C10.2275 34.5465 10.0707 34.3957 9.98677 34.2038L9.04128 32.0414C8.99816 31.9461 8.97441 31.8432 8.97138 31.7387C8.96835 31.6341 8.98606 31.53 9.02358 31.4324C9.0611 31.3347 9.11767 31.2455 9.18994 31.1699C9.2622 31.0943 9.34874 31.0338 9.44457 30.9919Z" fill="#00C972"/>
<path d="M41.0824 17.1583L40.2578 17.5189L41.8403 21.1381L42.7566 20.7374C42.9083 20.6329 43.0187 20.4786 43.0687 20.3013C43.1187 20.124 43.1052 19.9348 43.0305 19.7664L42.085 17.604C42.0102 17.4127 41.863 17.2586 41.6753 17.1751C41.4876 17.0917 41.2746 17.0856 41.0824 17.1583Z" fill="#00C972"/>
<path d="M31.3426 21.4169L19.1841 26.7333L20.7626 30.3433L32.9211 25.027L31.3426 21.4169Z" fill="#00C972"/>
<path d="M37.2697 14.405L35.2539 15.2864C35.1254 15.3436 35.0142 15.4336 34.9315 15.5474L34.8381 15.7083L39.4774 26.3184C39.6699 26.3881 39.8818 26.3815 40.0695 26.2997L42.0852 25.4183C42.2138 25.3611 42.325 25.2711 42.4077 25.1572C42.4884 25.0459 42.5387 24.9155 42.5536 24.7789C42.5685 24.6422 42.5474 24.504 42.4925 24.378L38.314 14.8215C38.2733 14.7252 38.2139 14.6379 38.1392 14.5646C38.0645 14.4914 37.976 14.4338 37.8789 14.3951C37.7817 14.3563 37.6778 14.3372 37.5732 14.339C37.4687 14.3407 37.3655 14.3631 37.2697 14.405Z" fill="#00C972"/>
<path d="M32.5441 14.4304L30.3818 15.3759C30.2526 15.4329 30.1411 15.5234 30.0588 15.6381C29.9765 15.7528 29.9264 15.8874 29.9138 16.028C29.8965 16.1606 29.9176 16.2953 29.9745 16.4162L35.6634 29.4268C35.7473 29.6188 35.9041 29.7696 36.0992 29.8459C36.2943 29.9223 36.5117 29.9181 36.7037 29.8342L38.866 28.8887C39.0579 28.8047 39.2087 28.648 39.2851 28.4529C39.3615 28.2578 39.3573 28.0403 39.2734 27.8484L33.5844 14.8378C33.5005 14.6458 33.3437 14.495 33.1486 14.4186C32.9535 14.3422 32.736 14.3465 32.5441 14.4304Z" fill="#00C972"/>
<path d="M10.0576 26.3037C9.90702 26.3685 9.77965 26.4775 9.6923 26.6163C9.66567 26.6584 9.64516 26.7041 9.63153 26.752C9.59486 26.8469 9.57765 26.9482 9.58087 27.0499C9.5841 27.1516 9.60773 27.2517 9.65033 27.3441L13.8329 36.9096C13.8539 36.9979 13.8905 37.0817 13.9411 37.157C14.0518 37.2754 14.1966 37.3563 14.3555 37.3886C14.5143 37.4208 14.6793 37.4028 14.8274 37.337L16.834 36.4596C16.928 36.4207 17.0132 36.3633 17.0846 36.2908C17.1561 36.2184 17.2122 36.1323 17.2497 36.0377L12.6145 25.4368C12.5196 25.4001 12.4182 25.3829 12.3165 25.3861C12.2148 25.3893 12.1148 25.413 12.0224 25.4556L10.0576 26.3037Z" fill="#00C972"/>
<path d="M15.4472 21.9061L13.2757 22.8556C13.151 22.9125 13.0427 23.0001 12.9611 23.1102C12.8794 23.2204 12.8271 23.3494 12.8089 23.4853C12.8004 23.6243 12.8239 23.7634 12.8775 23.8919L18.5664 36.9025C18.6497 37.0929 18.8046 37.2429 18.9976 37.3199C19.1906 37.3969 19.4062 37.3947 19.5976 37.3138L21.7691 36.3643C21.9611 36.2804 22.1118 36.1237 22.1882 35.9286C22.2646 35.7335 22.2604 35.516 22.1764 35.3241L16.4875 22.3135C16.4036 22.1215 16.2468 21.9707 16.0517 21.8943C15.8566 21.8179 15.6392 21.8222 15.4472 21.9061Z" fill="#00C972"/>
</svg>
