<svg width="52" height="52" viewBox="0 0 52 52" fill="none" xmlns="http://www.w3.org/2000/svg">
<circle cx="26" cy="25.9999" r="26" fill="white"/>
<path d="M45.1887 23.7445C43.9124 23.5079 42.5954 23.6309 41.3849 24.0996C42.0838 26.6705 41.9144 29.4001 40.903 31.8648C44.536 29.4476 46.011 26.7943 46.1724 24.9596C46.2399 24.1009 45.8925 23.9119 45.1887 23.7445Z" fill="#00C972"/>
<path d="M20.8944 25.1996C19.488 24.5227 18.2655 23.5168 17.3305 22.267C16.0845 20.9046 13.99 20.647 12.9836 20.4784C11.5087 18.3578 11.2422 16.1105 10.7618 15.9335C10.2815 15.7564 7.91347 16.9753 7.91275 17.6414C7.91203 18.3075 10.3268 21.3749 10.8354 22.0808C10.6557 23.3885 9.91609 26.3453 11.7353 29.1189C14.8477 33.867 18.3046 34.4936 23.1867 35.3262C21.014 32.8472 20.3245 28.6845 20.8944 25.1996Z" fill="#00C972"/>
<path d="M38.5816 21.0698C37.2245 20.3684 35.286 20.4452 32.6751 21.7417C33.3271 18.5407 36.6665 17.0112 36.8089 16.9298C37.0084 16.8184 37.1574 16.6344 37.225 16.4161C37.2926 16.1978 37.2737 15.9618 37.1721 15.7571C37.0704 15.5524 36.894 15.3947 36.6792 15.3165C36.4644 15.2384 36.2278 15.2458 36.0184 15.3373C34.8724 15.9706 33.8735 16.8394 33.0875 17.8866C32.3016 18.9338 31.7464 20.1357 31.4585 21.413C29.3401 19.5673 27.5343 19.0465 26.0738 19.3908C19.8096 20.9018 19.9818 38.7415 30.0022 37.5147C39.3514 41.4647 44.3932 24.0994 38.5816 21.0698ZM35.9922 33.3718C36.2389 29.7415 38.2595 29.9486 37.5598 24.3916C40.2955 25.0503 39.9397 30.5026 35.9922 33.3718Z" fill="#00C972"/>
</svg>
