<svg width="52" height="52" viewBox="0 0 52 52" fill="none" xmlns="http://www.w3.org/2000/svg">
<circle cx="26" cy="25.9999" r="26" fill="white"/>
<path d="M36.9278 11.8524L21.8074 8.63018C21.572 8.56903 21.3268 8.55492 21.0859 8.58864C20.845 8.62235 20.6131 8.70321 20.4035 8.82664C20.1939 8.95007 20.0108 9.11361 19.8644 9.30792C19.7181 9.50223 19.6116 9.72354 19.5509 9.95908L13.4337 38.6645C13.3545 39.1485 13.4696 39.6442 13.754 40.0438C14.0384 40.4433 14.4692 40.7144 14.9524 40.7979L30.0729 44.0201C30.5482 44.1408 31.052 44.0689 31.4746 43.8201C31.8972 43.5712 32.2044 43.1655 32.3294 42.6912L38.4465 13.9858C38.5258 13.5018 38.4107 13.006 38.1263 12.6065C37.8418 12.2069 37.4111 11.9359 36.9278 11.8524ZM22.3618 9.77078C22.4899 9.79809 22.6069 9.86286 22.6981 9.95689C22.7892 10.0509 22.8504 10.17 22.8737 10.2988C22.897 10.4277 22.8814 10.5606 22.8289 10.6806C22.7765 10.8006 22.6896 10.9023 22.5792 10.9727C22.4687 11.0432 22.3399 11.0791 22.209 11.0761C22.078 11.0731 21.9509 11.0312 21.8439 10.9557C21.7369 10.8802 21.6547 10.7746 21.6079 10.6524C21.561 10.5301 21.5516 10.3966 21.5809 10.269C21.6221 10.1006 21.7279 9.95516 21.8755 9.86416C22.0231 9.77316 22.2005 9.74388 22.3695 9.78266L22.3618 9.77078ZM31.5228 40.8629L14.8961 37.3198L20.3421 11.7636L36.9688 15.3067L31.5228 40.8629Z" fill="#00C972"/>
<path d="M27.9127 30.503C27.1273 30.3357 26.31 30.4049 25.5641 30.7019C24.8181 30.999 24.1771 31.5106 23.7219 32.172C23.2668 32.8334 23.018 33.6149 23.0071 34.4177C22.9962 35.2204 23.2237 36.0084 23.6607 36.682C24.0977 37.3556 24.7246 37.8845 25.4622 38.2018C26.1999 38.5191 27.015 38.6107 27.8046 38.4648C28.5942 38.3189 29.3228 37.9422 29.8983 37.3823C30.4737 36.8224 30.8701 36.1045 31.0375 35.3193C31.2591 34.2666 31.0548 33.169 30.4692 32.2664C29.8836 31.3639 28.9645 30.7298 27.9127 30.503ZM26.3957 37.6218C25.7728 37.4891 25.2033 37.1746 24.7591 36.7182C24.315 36.2619 24.0161 35.6842 23.9004 35.058C23.7846 34.4319 23.8571 33.7855 24.1088 33.2006C24.3605 32.6157 24.78 32.1186 25.3143 31.7721C25.8486 31.4256 26.4736 31.2453 27.1104 31.254C27.7472 31.2627 28.3671 31.4599 28.8917 31.8209C29.4164 32.1818 29.8223 32.6902 30.058 33.2818C30.2937 33.8733 30.3487 34.5215 30.216 35.1442C30.1278 35.5577 29.9591 35.9498 29.7194 36.2981C29.4798 36.6464 29.1738 36.9441 28.8191 37.1741C28.4644 37.4042 28.0677 37.5621 27.6519 37.6389C27.2361 37.7157 26.8092 37.7099 26.3957 37.6218Z" fill="#00C972"/>
<path d="M26.038 33.5901L24.9622 33.3608L26.2848 36.8942L29.8035 33.7688L28.6005 33.5124L26.5938 35.2525L26.038 33.5901Z" fill="#00C972"/>
<path d="M31.8595 24.5039C31.7821 24.8671 31.5636 25.1846 31.2521 25.3867C30.9406 25.5887 30.5616 25.6588 30.1984 25.5814L18.8336 23.1596L19.4172 20.421L30.8309 22.8532C31.1828 22.9415 31.4867 23.1629 31.6786 23.4708C31.8705 23.7788 31.9353 24.1491 31.8595 24.5039Z" fill="#00C972"/>
<path d="M24.0306 32.4057L17.1746 30.9447L16.591 33.6832L23.447 35.1443L24.0306 32.4057Z" fill="#00C972"/>
<path d="M25.3883 28.6257C25.3109 28.9888 25.0924 29.3064 24.7809 29.5084C24.4694 29.7105 24.0903 29.7806 23.7272 29.7032L17.7123 28.4214L18.2959 25.6828L24.3108 26.9646C24.6739 27.042 24.9915 27.2605 25.1936 27.572C25.3956 27.8835 25.4657 28.2625 25.3883 28.6257Z" fill="#00C972"/>
<path d="M30.7802 18.7731C30.7028 19.1363 30.4844 19.4538 30.1729 19.6559C29.8614 19.8579 29.4823 19.928 29.1192 19.8506L19.955 17.8977L20.5386 15.1592L29.7028 17.1121C30.0659 17.1895 30.3835 17.4079 30.5855 17.7194C30.7876 18.031 30.8576 18.41 30.7802 18.7731Z" fill="#00C972"/>
</svg>
