<svg width="52" height="52" viewBox="0 0 52 52" fill="none" xmlns="http://www.w3.org/2000/svg">
<circle cx="26" cy="25.9999" r="26" fill="white"/>
<path d="M15.5614 26.1202C14.8223 26.0377 14.0903 25.9007 13.3714 25.7102C13.2566 25.6708 13.1581 25.5944 13.0912 25.4931C13.0242 25.3918 12.9927 25.2713 13.0014 25.1502C13.2245 21.9105 13.8287 18.7084 14.8015 15.6101C14.8356 15.5022 14.9017 15.4072 14.9909 15.3376C15.0802 15.2679 15.1885 15.227 15.3015 15.2201C16.0575 15.3044 16.8063 15.4448 17.5415 15.6402C17.6573 15.6781 17.7568 15.754 17.824 15.8557C17.8912 15.9574 17.922 16.0788 17.9115 16.2002C17.6884 19.4399 17.0843 22.6419 16.1115 25.7402C16.0786 25.8488 16.0128 25.9446 15.9233 26.0144C15.8338 26.0843 15.7249 26.1247 15.6115 26.1302L15.5614 26.1202Z" fill="#00C972"/>
<path d="M29.3519 18.0503C29.1936 18.048 29.0426 17.9833 28.9319 17.8703C26.711 15.4992 24.7777 12.8744 23.1719 10.0503C23.1127 9.94554 23.0894 9.82431 23.1056 9.7051C23.1219 9.58589 23.1768 9.4753 23.2619 9.39028C23.8291 8.90729 24.4307 8.46612 25.0619 8.07027C25.1323 8.02189 25.2165 7.99735 25.3019 8.00026C25.4602 8.00252 25.6111 8.06721 25.7219 8.18026C27.9428 10.5513 29.8762 13.1761 31.4819 16.0003C31.5412 16.105 31.5645 16.2262 31.5482 16.3454C31.5319 16.4646 31.477 16.5752 31.3919 16.6603C30.824 17.1424 30.2225 17.5835 29.5919 17.9803C29.5214 18.0286 29.4373 18.0532 29.3519 18.0503Z" fill="#00C972"/>
<path d="M32.6419 44.4201C30.1828 44.3528 27.7879 43.6201 25.7119 42.3001C24.4773 41.5541 23.3616 40.6271 22.4019 39.5501C22.3138 39.4641 22.2335 39.3704 22.1619 39.2702C21.9419 39.3502 21.7119 39.4101 21.4819 39.4701C20.7626 39.6535 20.0241 39.7509 19.2819 39.7602C18.5852 39.7832 17.8911 39.6647 17.2414 39.4121C16.5918 39.1594 16 38.7778 15.5019 38.2901C14.4021 37.0656 13.7041 35.5335 13.5019 33.9002C13.2413 32.1694 13.1842 30.4141 13.3319 28.6701C13.5019 26.5474 13.8362 24.4411 14.3319 22.3701C14.3693 22.2229 14.4543 22.0921 14.5736 21.9981C14.6929 21.9041 14.84 21.852 14.9919 21.8501C15.0481 21.8398 15.1057 21.8398 15.1619 21.8501C15.3368 21.8927 15.4877 22.003 15.5814 22.1567C15.6751 22.3105 15.7041 22.4951 15.6619 22.6701C15.1923 24.6691 14.8814 26.7021 14.7319 28.7501C14.4519 32.9001 15.0519 35.8501 16.4919 37.2901C16.8665 37.6508 17.3106 37.9317 17.7971 38.1156C18.2836 38.2996 18.8023 38.3827 19.3219 38.3601C19.9458 38.3525 20.5667 38.272 21.1719 38.1201H21.3319C20.9335 37.4969 20.6175 36.8246 20.3919 36.1201C20.1644 35.386 20.0663 34.6179 20.1019 33.8501C20.1521 33.0579 20.3667 32.2849 20.7319 31.5802C21.7344 29.8466 23.2659 28.4797 25.1019 27.6801C28.5919 25.9401 30.5919 24.0001 31.1019 21.9101C31.4519 20.3601 30.9319 18.7101 29.5719 17.0001C29.5106 16.9285 29.4647 16.845 29.4369 16.7549C29.4092 16.6649 29.4002 16.57 29.4105 16.4763C29.4208 16.3826 29.4502 16.292 29.4969 16.2101C29.5436 16.1282 29.6065 16.0567 29.6819 16.0001C29.8025 15.9069 29.9496 15.8544 30.1019 15.8501C30.2056 15.8508 30.3077 15.8745 30.4011 15.9194C30.4945 15.9644 30.5767 16.0295 30.6419 16.1101C31.222 16.8201 31.7 17.6077 32.0619 18.4501C32.5689 19.6178 32.7016 20.9139 32.4419 22.1601C31.8819 24.6701 29.6319 26.9301 25.7619 28.8701C22.2919 30.6001 20.9019 32.9501 21.7619 35.6801C21.9795 36.3515 22.2927 36.9881 22.6919 37.5702C24.8119 36.4701 25.8619 34.3501 26.8819 32.2901C27.8019 30.4201 28.6819 28.6501 30.2719 27.5501C31.1846 26.9425 32.2464 26.5967 33.3419 26.5501H33.8219C35.1468 26.5829 36.4587 26.819 37.7119 27.2501C39.4268 27.7188 40.9191 28.7822 41.9219 30.2501C42.7407 31.5958 43.0923 33.1742 42.9219 34.7401C42.8206 35.8546 42.5297 36.9436 42.0619 37.9602C41.5832 39.0174 40.9459 39.9953 40.1719 40.8601C39.3817 41.7471 38.453 42.5002 37.4219 43.0902C36.3546 43.703 35.1803 44.1068 33.9619 44.2802C33.5439 44.3327 33.1231 44.3594 32.7019 44.3601L32.6419 44.4201ZM23.4619 38.6901C24.3392 39.6465 25.3496 40.4716 26.4619 41.1402C28.3202 42.33 30.4664 42.9935 32.6719 43.0601C33.0396 43.067 33.4072 43.0469 33.7719 43.0001C35.7872 42.6315 37.6313 41.6264 39.0333 40.1326C40.4354 38.6387 41.3216 36.7348 41.5619 34.7002C41.7169 33.3296 41.3652 31.9497 40.5732 30.8206C39.7811 29.6914 38.6033 28.891 37.2619 28.5701C36.1444 28.1834 34.9741 27.971 33.7919 27.9401C32.8098 27.9048 31.8413 28.1775 31.0219 28.7201C29.7119 29.6201 28.9219 31.2301 28.0219 32.9301C27.4067 34.3117 26.6278 35.6143 25.7019 36.8101C25.0797 37.5717 24.3199 38.2095 23.4619 38.6901Z" fill="#00C972"/>
</svg>
