<svg width="64" height="67" viewBox="0 0 64 67" fill="none" xmlns="http://www.w3.org/2000/svg">
<path d="M58.0979 58.797C58.0979 63.0807 54.9372 66.5855 51.0742 66.5855H12.4437C8.5806 66.5855 5.41992 63.0807 5.41992 58.797V25.696C5.41992 21.4123 8.5806 17.9075 12.4437 17.9075H51.0742C54.9372 17.9075 58.0979 21.4123 58.0979 25.696V58.797Z" fill="#FFE4AA"/>
<path d="M63.3659 19.8546C63.3659 24.1383 60.2052 27.6431 56.3422 27.6431H7.17607C3.31302 27.6431 0.152344 24.1383 0.152344 19.8546C0.152344 15.5709 3.31302 12.0661 7.17607 12.0661H56.3422C60.2052 12.0661 63.3659 15.5709 63.3659 19.8546Z" fill="#FFE4AA"/>
<path d="M5.41992 27.6431H58.0979V31.5373H5.41992V27.6431Z" fill="#FFC373"/>
<path d="M33.515 4.27759H30.0031C28.606 4.27759 27.2662 4.89302 26.2782 5.98849C25.2903 7.08395 24.7354 8.56973 24.7354 10.119V66.5855H38.7828V10.119C38.7828 8.56973 38.2278 7.08395 37.2399 5.98849C36.252 4.89302 34.9121 4.27759 33.515 4.27759Z" fill="#FFB202"/>
<path d="M28.2473 12.0661C30.1788 12.0661 30.465 11.0614 28.8812 9.83276L17.0778 0.669623C16.7156 0.377217 16.3014 0.173778 15.8628 0.0728684C15.4241 -0.0280411 14.9711 -0.0241025 14.534 0.0844218C14.0968 0.192946 13.6855 0.403562 13.3275 0.70223C12.9696 1.0009 12.6731 1.38075 12.4579 1.81648L8.91799 8.68591C7.95925 10.5454 8.75644 12.0661 10.688 12.0661H28.2473ZM35.271 12.0661C33.3395 12.0661 33.0533 11.0614 34.6371 9.83276L46.4422 0.669623C46.8045 0.377528 47.2187 0.17435 47.6573 0.0736139C48.0959 -0.0271222 48.5488 -0.0231049 48.9859 0.0853983C49.423 0.193902 49.8342 0.404402 50.1922 0.702886C50.5502 1.00137 50.8467 1.38099 51.0621 1.81648L54.6021 8.68396C55.559 10.5454 54.7618 12.0661 52.8303 12.0661H35.271Z" fill="#FFB202"/>
</svg>
