<svg width="144" height="64" viewBox="0 0 144 64" fill="none" xmlns="http://www.w3.org/2000/svg">
<path d="M72.5215 46.7394C72.5215 48.4499 72.0538 49.8397 71.1184 50.9087C70.2097 51.9777 68.9803 52.7662 67.4302 53.274C65.8801 53.7817 64.1697 54.0356 62.2988 54.0356H48.3077V25.5724H64.8244C66.1607 25.5724 67.31 25.9332 68.2721 26.6548C69.261 27.3497 70.0093 28.2584 70.5171 29.3809C71.0516 30.5034 71.3189 31.6659 71.3189 32.8686C71.3189 34.1782 70.9714 35.4477 70.2766 36.6771C69.6084 37.9065 68.5928 38.8285 67.2298 39.4432C68.8601 39.9243 70.1429 40.7662 71.0783 41.9688C72.0405 43.1715 72.5215 44.7617 72.5215 46.7394ZM64.5839 45.1359C64.5839 44.6548 64.4904 44.2405 64.3033 43.8931C64.1429 43.5189 63.9158 43.225 63.6218 43.0111C63.3278 42.7973 62.9803 42.6904 62.5795 42.6904H56.1251V47.461H62.2988C62.7264 47.461 63.114 47.3675 63.4614 47.1804C63.8089 46.9933 64.0761 46.7261 64.2632 46.3786C64.477 46.0312 64.5839 45.6169 64.5839 45.1359ZM56.1251 32.2272V36.5969H61.457C61.8044 36.5969 62.1385 36.5434 62.4592 36.4365C62.7799 36.3029 63.0472 36.0757 63.261 35.755C63.4748 35.4343 63.5817 34.98 63.5817 34.392C63.5817 33.8575 63.4881 33.4432 63.3011 33.1492C63.1407 32.8285 62.9135 32.6013 62.6195 32.4677C62.3523 32.3074 62.0449 32.2272 61.6975 32.2272H56.1251ZM75.0691 46.8196V32.9488H82.686V45.0958C82.686 46.0045 82.8865 46.7261 83.2873 47.2606C83.715 47.7684 84.2896 48.0223 85.0112 48.0223C85.4121 48.0223 85.813 47.9688 86.2138 47.8619C86.6147 47.755 87.0156 47.5412 87.4165 47.2205C87.8441 46.8998 88.2584 46.4454 88.6593 45.8575V32.9488H96.2762V45.6169C96.2762 46.3385 96.3831 46.8463 96.5969 47.1403C96.8107 47.4076 97.1849 47.5679 97.7194 47.6214V54.0356C97.0513 54.1693 96.4499 54.2628 95.9154 54.3163C95.3809 54.3964 94.9132 54.4365 94.5123 54.4365C93.2294 54.4365 92.2138 54.196 91.4655 53.7149C90.7172 53.2339 90.2361 52.4989 90.0223 51.51L89.862 50.7483C88.8731 52.0579 87.6838 53.0067 86.294 53.5947C84.931 54.1559 83.3809 54.4365 81.6437 54.4365C79.5323 54.4365 77.902 53.7817 76.7528 52.4722C75.6303 51.1626 75.0691 49.2784 75.0691 46.8196ZM122.041 54.0356H114.424V42.1693C114.424 41.127 114.184 40.3786 113.703 39.9243C113.248 39.4432 112.714 39.2027 112.099 39.2027C111.672 39.2027 111.217 39.3363 110.736 39.6036C110.255 39.8441 109.814 40.1915 109.413 40.6459C109.012 41.1002 108.692 41.6214 108.451 42.2094V54.0356H100.834V32.9488H107.689V36.0757C108.197 35.3007 108.839 34.6593 109.614 34.1515C110.389 33.6169 111.284 33.216 112.3 32.9488C113.315 32.6815 114.424 32.5479 115.627 32.5479C117.07 32.5479 118.219 32.8018 119.075 33.3096C119.93 33.8174 120.571 34.4722 120.999 35.274C121.427 36.0757 121.707 36.9176 121.841 37.7996C121.974 38.6548 122.041 39.4432 122.041 40.1648V54.0356ZM134.192 54.4365C132.348 54.4365 130.531 54.1425 128.74 53.5546C126.976 52.9399 125.479 52.0579 124.25 50.9087L126.856 46.2183C128.165 47.0735 129.421 47.7417 130.624 48.2227C131.853 48.7038 132.963 48.9443 133.951 48.9443C134.513 48.9443 134.927 48.8775 135.194 48.7439C135.462 48.5835 135.595 48.3296 135.595 47.9822C135.595 47.7417 135.502 47.5412 135.315 47.3809C135.127 47.2205 134.82 47.0601 134.392 46.8998C133.992 46.7394 133.47 46.5657 132.829 46.3786C131.172 45.7907 129.782 45.2428 128.66 44.735C127.564 44.2272 126.735 43.6125 126.174 42.8909C125.64 42.1425 125.372 41.1537 125.372 39.9243C125.372 38.4811 125.733 37.2116 126.455 36.1158C127.176 34.9933 128.205 34.1114 129.542 33.4699C130.905 32.8285 132.535 32.5078 134.433 32.5078C135.849 32.5078 137.266 32.735 138.682 33.1893C140.125 33.6169 141.515 34.4054 142.851 35.5546L139.965 40.2049C138.629 39.3764 137.493 38.7884 136.557 38.441C135.649 38.0936 134.833 37.9198 134.112 37.9198C133.764 37.9198 133.457 37.9599 133.19 38.0401C132.949 38.1203 132.762 38.2405 132.629 38.4009C132.495 38.5613 132.428 38.7751 132.428 39.0423C132.428 39.3096 132.522 39.5368 132.709 39.7238C132.896 39.8842 133.19 40.0446 133.591 40.2049C133.992 40.3385 134.499 40.4989 135.114 40.686C136.931 41.2205 138.415 41.7684 139.564 42.3296C140.713 42.8642 141.555 43.5189 142.09 44.294C142.651 45.0691 142.931 46.0846 142.931 47.3408C142.931 49.559 142.143 51.2962 140.566 52.5523C139.016 53.8085 136.891 54.4365 134.192 54.4365Z" fill="#F7A9C5"/>
<path d="M56.9267 13.0276C56.9267 13.6156 56.777 14.1288 56.4777 14.5671C56.1783 15.0054 55.7721 15.3475 55.259 15.5933C54.7565 15.8392 54.2006 15.9622 53.5913 15.9622H48.1872V4.57686H53.8478C54.3823 4.57686 54.842 4.72118 55.2269 5.00982C55.6224 5.28777 55.9218 5.65124 56.1249 6.10024C56.3387 6.53855 56.4456 6.99824 56.4456 7.47931C56.4456 8.03521 56.3013 8.55904 56.0126 9.0508C55.7347 9.53187 55.3338 9.89 54.81 10.1252C55.4621 10.3176 55.9752 10.6757 56.3494 11.1996C56.7342 11.7127 56.9267 12.3221 56.9267 13.0276ZM55.4674 12.7711C55.4674 12.4183 55.3872 12.0922 55.2269 11.7929C55.0772 11.4936 54.8688 11.253 54.6015 11.0713C54.3449 10.8896 54.0456 10.7987 53.7035 10.7987H49.6305V14.7114H53.5913C53.944 14.7114 54.2594 14.6205 54.5374 14.4388C54.826 14.257 55.0505 14.0218 55.2109 13.7332C55.3819 13.4339 55.4674 13.1132 55.4674 12.7711ZM49.6305 5.82764V9.62808H53.2545C53.5966 9.62808 53.8959 9.54256 54.1525 9.37151C54.4198 9.20047 54.6282 8.97062 54.7779 8.68198C54.9383 8.39334 55.0184 8.07797 55.0184 7.73588C55.0184 7.3724 54.9436 7.05169 54.7939 6.77374C54.655 6.4851 54.4572 6.25525 54.2006 6.08421C53.9547 5.91316 53.6714 5.82764 53.3507 5.82764H49.6305ZM58.6409 12.6107V7.59156H60.052V12.3381C60.052 13.1933 60.2017 13.8348 60.501 14.2624C60.8003 14.69 61.244 14.9038 61.8319 14.9038C62.2168 14.9038 62.5856 14.8236 62.9384 14.6633C63.3019 14.4922 63.6279 14.2517 63.9166 13.9417C64.2052 13.6316 64.4297 13.2628 64.5901 12.8352V7.59156H66.0012V14.3586C66.0012 14.5296 66.0333 14.6579 66.0974 14.7434C66.1723 14.8183 66.2899 14.861 66.4502 14.8717V15.9622C66.2899 15.9835 66.1616 15.9942 66.0654 15.9942C65.9798 16.0049 65.8943 16.0103 65.8088 16.0103C65.5415 16.0103 65.3117 15.9301 65.1193 15.7697C64.9268 15.5987 64.8253 15.3902 64.8146 15.1443L64.7825 14.1662C64.419 14.7862 63.9273 15.2673 63.3072 15.6094C62.6979 15.9515 62.0297 16.1225 61.3028 16.1225C60.4262 16.1225 59.7633 15.8285 59.3144 15.2406C58.8654 14.6419 58.6409 13.7653 58.6409 12.6107ZM72.6494 16.1225C71.9972 16.1225 71.4039 15.9622 70.8694 15.6414C70.3349 15.3207 69.9126 14.9038 69.6026 14.3907V15.9622H68.3518V4.25614H69.7629V9.25926C70.1157 8.71405 70.5487 8.27574 71.0618 7.94434C71.575 7.61294 72.1736 7.44724 72.8578 7.44724C73.4351 7.44724 73.9536 7.57018 74.4133 7.81606C74.873 8.05124 75.2632 8.3773 75.5839 8.79423C75.9153 9.20047 76.1665 9.6655 76.3376 10.1893C76.5193 10.7025 76.6102 11.2423 76.6102 11.8089C76.6102 12.3969 76.5086 12.9528 76.3055 13.4766C76.1131 13.9898 75.8351 14.4495 75.4716 14.8557C75.1082 15.2512 74.6859 15.5613 74.2048 15.7858C73.7344 16.0103 73.216 16.1225 72.6494 16.1225ZM72.2966 14.9038C72.7135 14.9038 73.0984 14.8183 73.4511 14.6472C73.8039 14.4762 74.1086 14.2463 74.3652 13.9577C74.6217 13.6691 74.8195 13.3377 74.9585 12.9635C75.0975 12.5893 75.167 12.2045 75.167 11.8089C75.167 11.2637 75.0494 10.7506 74.8142 10.2695C74.5897 9.78844 74.269 9.40358 73.852 9.11494C73.4458 8.81561 72.9701 8.66594 72.4249 8.66594C72.0293 8.66594 71.6605 8.75681 71.3184 8.93855C70.9763 9.12029 70.6716 9.36082 70.4044 9.66015C70.1478 9.94879 69.934 10.2695 69.7629 10.6223V13.0437C69.8164 13.3109 69.9286 13.5568 70.0997 13.7813C70.2707 14.0058 70.4792 14.2036 70.7251 14.3746C70.971 14.535 71.2275 14.6633 71.4948 14.7595C71.7727 14.8557 72.04 14.9038 72.2966 14.9038ZM82.6403 16.1225C81.9882 16.1225 81.3949 15.9622 80.8604 15.6414C80.3258 15.3207 79.9036 14.9038 79.5935 14.3907V15.9622H78.3428V4.25614H79.7539V9.25926C80.1067 8.71405 80.5396 8.27574 81.0528 7.94434C81.5659 7.61294 82.1646 7.44724 82.8488 7.44724C83.4261 7.44724 83.9445 7.57018 84.4042 7.81606C84.8639 8.05124 85.2541 8.3773 85.5748 8.79423C85.9062 9.20047 86.1575 9.6655 86.3285 10.1893C86.5102 10.7025 86.6011 11.2423 86.6011 11.8089C86.6011 12.3969 86.4996 12.9528 86.2964 13.4766C86.104 13.9898 85.8261 14.4495 85.4626 14.8557C85.0991 15.2512 84.6768 15.5613 84.1958 15.7858C83.7254 16.0103 83.2069 16.1225 82.6403 16.1225ZM82.2875 14.9038C82.7045 14.9038 83.0893 14.8183 83.4421 14.6472C83.7949 14.4762 84.0996 14.2463 84.3561 13.9577C84.6127 13.6691 84.8105 13.3377 84.9494 12.9635C85.0884 12.5893 85.1579 12.2045 85.1579 11.8089C85.1579 11.2637 85.0403 10.7506 84.8051 10.2695C84.5806 9.78844 84.2599 9.40358 83.843 9.11494C83.4367 8.81561 82.961 8.66594 82.4158 8.66594C82.0203 8.66594 81.6514 8.75681 81.3094 8.93855C80.9673 9.12029 80.6626 9.36082 80.3953 9.66015C80.1388 9.94879 79.9249 10.2695 79.7539 10.6223V13.0437C79.8073 13.3109 79.9196 13.5568 80.0906 13.7813C80.2617 14.0058 80.4702 14.2036 80.716 14.3746C80.9619 14.535 81.2185 14.6633 81.4857 14.7595C81.7637 14.8557 82.031 14.9038 82.2875 14.9038ZM88.4367 18.2392C88.5757 18.2499 88.7146 18.2606 88.8536 18.2713C88.9926 18.2927 89.0995 18.3034 89.1743 18.3034C89.3454 18.3034 89.495 18.2446 89.6233 18.127C89.7516 18.0094 89.8906 17.7795 90.0403 17.4374C90.2006 17.106 90.4037 16.6143 90.6496 15.9622L87.1057 7.59156H88.597L91.4193 14.535L93.969 7.59156H95.3641L91.291 18.159C91.1948 18.4049 91.0505 18.6348 90.8581 18.8486C90.6763 19.0731 90.4411 19.2495 90.1525 19.3777C89.8639 19.506 89.5164 19.5702 89.1102 19.5702C89.014 19.5702 88.9124 19.5648 88.8055 19.5541C88.7093 19.5435 88.5864 19.5221 88.4367 19.49V18.2392Z" fill="#F7A9C5"/>
<circle cx="20.6757" cy="15.6002" r="12.6925" transform="rotate(9.63676 20.6757 15.6002)" fill="url(#paint0_linear_471_236)"/>
<circle cx="20.0264" cy="38.1855" r="15.8329" transform="rotate(9.63676 20.0264 38.1855)" fill="url(#paint1_linear_471_236)"/>
<path d="M14.4513 4.58903C0.767948 12.9336 2.22513 36.2564 5.01527 43.0692C5.52928 43.1564 7.25033 41.8021 11.7607 41.8567C17.3986 41.925 30.8738 25.2348 24.0446 22.8384C17.2155 20.442 9.45567 12.3602 14.4513 4.58903Z" fill="url(#paint2_linear_471_236)"/>
<defs>
<linearGradient id="paint0_linear_471_236" x1="24.1547" y1="23.8198" x2="18.6495" y2="6.80728" gradientUnits="userSpaceOnUse">
<stop stop-color="#E3769E"/>
<stop offset="1" stop-color="#F6A9C5"/>
</linearGradient>
<linearGradient id="paint1_linear_471_236" x1="19.7212" y1="36.7358" x2="35.8592" y2="44.4042" gradientUnits="userSpaceOnUse">
<stop stop-color="#F7A9C5"/>
<stop offset="1" stop-color="#FFC6DA"/>
</linearGradient>
<linearGradient id="paint2_linear_471_236" x1="16.5361" y1="29.9124" x2="2.31162" y2="14.1824" gradientUnits="userSpaceOnUse">
<stop stop-color="#F6A9C5"/>
<stop offset="1" stop-color="#FEC3D8"/>
</linearGradient>
</defs>
</svg>
