<svg width="34" height="34" viewBox="0 0 34 34" fill="none" xmlns="http://www.w3.org/2000/svg">
<g clip-path="url(#clip0_601_374)">
<path fill-rule="evenodd" clip-rule="evenodd" d="M21.773 12.2271C21.9136 12.3677 21.9926 12.5585 21.9926 12.7574C21.9926 12.9563 21.9136 13.1471 21.773 13.2877L17.5303 17.5304C17.3897 17.671 17.1989 17.75 17 17.75C16.8011 17.75 16.6103 17.671 16.4697 17.5304L12.227 13.2877C12.0864 13.1471 12.0074 12.9563 12.0074 12.7574C12.0074 12.5585 12.0864 12.3677 12.227 12.2271C12.3677 12.0864 12.5584 12.0074 12.7574 12.0074C12.9563 12.0074 13.147 12.0864 13.2877 12.2271L17 15.9394L20.7123 12.2271C20.853 12.0864 21.0437 12.0074 21.2426 12.0074C21.4416 12.0074 21.6323 12.0864 21.773 12.2271Z" fill="#1D4EFF"/>
<path fill-rule="evenodd" clip-rule="evenodd" d="M16.4697 16.4698C16.6103 16.3291 16.8011 16.2501 17 16.2501C17.1989 16.2501 17.3897 16.3291 17.5303 16.4698L21.773 20.7124C21.9136 20.8531 21.9926 21.0438 21.9926 21.2428C21.9926 21.4417 21.9136 21.6324 21.773 21.7731C21.6323 21.9137 21.4416 21.9928 21.2426 21.9928C21.0437 21.9928 20.853 21.9137 20.7123 21.7731L17 18.0608L13.2877 21.7731C13.147 21.9137 12.9563 21.9928 12.7574 21.9928C12.5584 21.9928 12.3677 21.9137 12.227 21.7731C12.0864 21.6324 12.0074 21.4417 12.0074 21.2428C12.0074 21.0438 12.0864 20.8531 12.227 20.7124L16.4697 16.4698Z" fill="#1D4EFF"/>
<path fill-rule="evenodd" clip-rule="evenodd" d="M9.57538 24.4247C11.5445 26.3939 14.2152 27.5001 17 27.5001C19.7848 27.5001 22.4555 26.3939 24.4246 24.4247C26.3938 22.4556 27.5 19.7849 27.5 17.0001C27.5 14.2153 26.3938 11.5446 24.4246 9.57548C22.4555 7.60635 19.7848 6.5001 17 6.5001C14.2152 6.5001 11.5445 7.60635 9.57538 9.57548C7.60625 11.5446 6.5 14.2153 6.5 17.0001C6.5 19.7849 7.60625 22.4556 9.57538 24.4247ZM8.51472 25.4854C10.7652 27.7358 13.8174 29.0001 17 29.0001C20.1826 29.0001 23.2348 27.7358 25.4853 25.4854C27.7357 23.2349 29 20.1827 29 17.0001C29 13.8175 27.7357 10.7653 25.4853 8.51482C23.2348 6.26439 20.1826 5.0001 17 5.0001C13.8174 5.0001 10.7652 6.26439 8.51472 8.51482C6.26428 10.7653 5 13.8175 5 17.0001C5 20.1827 6.26428 23.2349 8.51472 25.4854Z" fill="#1D4EFF"/>
</g>
<defs>
<clipPath id="clip0_601_374">
<rect width="24" height="24" fill="white" transform="translate(17 0.029541) rotate(45)"/>
</clipPath>
</defs>
</svg>
