<svg width="20" height="19" viewBox="0 0 20 19" fill="none" xmlns="http://www.w3.org/2000/svg">
<path d="M7.94048e-08 5.54704C-0.000122982 4.80999 0.142796 4.08032 0.420403 3.40065C0.69801 2.72098 1.10474 2.10497 1.61681 1.5886C2.12889 1.07223 2.73604 0.665874 3.40279 0.393275C4.06953 0.120675 4.78249 -0.0126979 5.5 0.000951127C6.34896 -0.00367934 7.18919 0.17706 7.96499 0.531189C8.74079 0.885318 9.43445 1.40475 10 2.05506C10.5655 1.40475 11.2592 0.885318 12.035 0.531189C12.8108 0.17706 13.651 -0.00367934 14.5 0.000951127C15.2175 -0.0126979 15.9305 0.120675 16.5972 0.393275C17.264 0.665874 17.8711 1.07223 18.3832 1.5886C18.8953 2.10497 19.302 2.72098 19.5796 3.40065C19.8572 4.08032 20.0001 4.80999 20 5.54704C20 11.0479 13.621 15.2013 10 18.4879C6.387 15.1736 7.94048e-08 11.052 7.94048e-08 5.54704Z" fill="#FF97C9"/>
</svg>
