<svg width="21" height="20" viewBox="0 0 21 20" fill="none" xmlns="http://www.w3.org/2000/svg">
<path d="M0.00244149 6.54505C0.00231842 5.80801 0.145237 5.07833 0.422844 4.39867C0.700452 3.71901 1.10718 3.103 1.61925 2.58664C2.13133 2.07027 2.73848 1.66392 3.40523 1.39132C4.07197 1.11872 4.78493 0.985349 5.50244 0.998998C6.3514 0.994368 7.19163 1.17511 7.96743 1.52923C8.74323 1.88336 9.4369 2.40279 10.0024 3.05309C10.568 2.40279 11.2616 1.88336 12.0375 1.52923C12.8133 1.17511 13.6535 0.994368 14.5024 0.998998C15.2199 0.985349 15.9329 1.11872 16.5997 1.39132C17.2664 1.66392 17.8736 2.07027 18.3856 2.58664C18.8977 3.103 19.3044 3.71901 19.582 4.39867C19.8596 5.07833 20.0026 5.80801 20.0024 6.54505C20.0024 12.0459 13.6234 16.1993 10.0024 19.4858C6.38944 16.1716 0.00244149 12.05 0.00244149 6.54505Z" fill="#FFF4EC"/>
</svg>
