<svg width="26" height="28" viewBox="0 0 26 28" fill="none" xmlns="http://www.w3.org/2000/svg">
<path d="M19.8993 1.6419C9.75274 -2.83947 7.63889 11.1289 8.06166 12.7693C8.48443 14.4096 6.53968 18.3667 5.81251 19.0939C5.08534 19.8211 4.62875 21.6644 5.08534 22.0702C4.05858 22.1675 3.02318 22.0287 2.0583 21.6644C1.72987 21.5144 1.35739 21.492 1.01335 21.6015C0.669302 21.711 0.378281 21.9445 0.196886 22.2567C0.0154912 22.5688 -0.0433068 22.9373 0.0319344 23.2904C0.107176 23.6436 0.311076 23.9561 0.603969 24.1672C0.789988 24.3363 0.603969 25.8583 0.756167 26.2979C0.846727 26.5274 0.992903 26.7307 1.18155 26.8897C1.3702 27.0486 1.5954 27.1582 1.83689 27.2085C2.07839 27.2588 2.3286 27.2483 2.56503 27.1779C2.80145 27.1075 3.01667 26.9795 3.19133 26.8053C3.85085 25.9935 4.392 23.9811 5.88016 24.4039C5.88016 24.4039 13.3886 31.4219 23.5351 16.997C23.5182 16.997 29.9781 6.12328 19.8993 1.6419ZM17.2612 8.54154C17.5956 8.54154 17.9226 8.64071 18.2007 8.82653C18.4788 9.01235 18.6955 9.27647 18.8235 9.58547C18.9515 9.89448 18.985 10.2345 18.9198 10.5625C18.8545 10.8906 18.6934 11.1919 18.4569 11.4284C18.2204 11.6649 17.9191 11.826 17.5911 11.8912C17.263 11.9565 16.923 11.923 16.614 11.795C16.305 11.667 16.0409 11.4502 15.8551 11.1721C15.6693 10.894 15.5701 10.5671 15.5701 10.2326C15.5701 9.78412 15.7482 9.35398 16.0654 9.03684C16.3825 8.7197 16.8127 8.54154 17.2612 8.54154ZM11.7313 8.93048C11.3931 6.17401 14.4878 3.01169 16.4664 4.33074C16.4664 4.33074 12.9827 3.99252 13.0842 11.5009C13.0842 11.5009 13.5408 15.3904 10.835 15.9147C11.4887 13.646 11.7909 11.2907 11.7313 8.93048ZM15.5363 21.9857C9.12704 26.9236 8.77191 19.6012 8.77191 19.6012C13.8452 23.9473 18.9184 17.0984 18.9184 17.0984C26.3085 7.42542 19.578 4.00943 19.578 4.00943C25.1585 3.53592 23.738 11.5009 23.738 11.5009C22.605 15.3904 21.9455 17.0308 15.5363 21.9857Z" fill="white"/>
</svg>
