<svg width="100" height="85" viewBox="0 0 100 85" fill="none" xmlns="http://www.w3.org/2000/svg">
<path d="M67.8258 20.4704C68.0033 20.3371 68.1685 20.1881 68.3194 20.0253C68.3922 19.9525 68.4488 19.8797 68.5136 19.8069C68.5379 19.7764 68.5596 19.7439 68.5783 19.7097C68.6988 19.5412 68.8044 19.3625 68.8939 19.1757L68.9667 19.03C68.9667 18.941 69.0315 18.8601 69.0558 18.7711C69.1193 18.5831 69.1706 18.3912 69.2095 18.1966C69.2095 18.0995 69.25 17.9943 69.2662 17.8972C69.2823 17.8001 69.2662 17.8081 69.2662 17.7596C69.3067 17.3425 69.3067 16.9224 69.2662 16.5053V16.3516C69.2662 16.2545 69.2257 16.1655 69.2095 16.0765C69.1933 15.9875 69.1205 15.7123 69.0639 15.5343C69.0072 15.3563 68.9991 15.332 68.9587 15.2349L68.902 15.1054C68.8894 15.0743 68.8894 15.0395 68.902 15.0083L68.8535 14.895C68.8535 14.8222 68.7725 14.7494 68.7402 14.6766C68.635 14.4824 68.5217 14.2962 68.4003 14.1101L68.2304 13.8755L68.1333 13.746C67.8556 13.413 67.5584 13.0969 67.2432 12.7992C67.0732 12.6374 66.8871 12.4836 66.701 12.3299L66.6363 12.2733L66.3692 12.0791C65.997 11.8201 65.6166 11.5774 65.2282 11.3508C64.8317 11.1242 64.419 10.9138 64.0144 10.7115C63.8041 10.6144 63.5937 10.5092 63.3833 10.4202L63.0758 10.2826H63.0273L62.9383 10.2422C61.9673 9.8214 60.9596 9.49093 59.928 9.25497L59.5073 9.17404H59.3373H59.2969C59.046 9.17404 58.7871 9.12549 58.5362 9.12549C58.2667 9.10921 57.9965 9.10921 57.727 9.12549H57.5814L57.29 9.18214C57.0797 9.23069 56.8774 9.28733 56.6751 9.35207L56.5052 9.4249C56.5052 9.4249 56.5052 9.4249 56.4081 9.4249H56.3191C56.1189 9.52171 55.9243 9.62978 55.7364 9.74858C55.6518 9.79972 55.5707 9.85649 55.4937 9.91851L55.4127 9.97515C55.2545 10.1104 55.1058 10.2564 54.9677 10.4121L54.8625 10.5335L54.7816 10.663L54.6035 10.9705C56.8392 11.7859 58.9521 12.905 60.8829 14.2962C63.4746 16.0193 65.8118 18.0976 67.8258 20.4704Z" fill="#FFEAEA"/>
<path d="M95.2887 60.1619C95.1835 59.6116 95.0864 59.0533 95.0055 58.5435C94.0345 52.2561 94.0749 45.8796 94.2691 39.5436C94.4633 33.2076 94.8194 27.0011 94.4228 20.7461C94.3175 18.183 93.9129 15.6411 93.2172 13.172C92.8859 11.9797 92.4331 10.8246 91.8658 9.72484C91.5839 9.16803 91.2704 8.62769 90.9271 8.10645L90.6115 7.64521C90.563 7.58048 90.5144 7.52384 90.474 7.4591C90.4459 7.4298 90.4214 7.39719 90.4012 7.362C90.2151 7.12733 90.0289 6.90076 89.8266 6.67418C89.4101 6.20905 88.9641 5.77118 88.4914 5.36329L88.1111 5.0477L87.9736 4.94251L87.8765 4.86968C87.6337 4.68356 87.3829 4.51363 87.132 4.3518C86.5973 4.00549 86.0405 3.69463 85.4651 3.42123L85.0119 3.21084L84.8582 3.13801L84.7692 3.07327C84.5021 2.96808 84.227 2.86288 83.96 2.77387C83.3562 2.56344 82.74 2.39049 82.115 2.25599C81.7913 2.19125 81.4596 2.12651 81.1278 2.07796H80.9498H80.8446L80.4319 2.02941C79.8105 1.97283 79.1866 1.94852 78.5627 1.95658C78.2228 1.95658 77.891 1.95658 77.5512 2.00514H77.098H76.92H76.7501C75.5199 2.18522 74.3126 2.4972 73.1492 2.93571C72.7769 3.07327 72.607 3.1461 72.34 3.25939C72.0729 3.37267 71.7816 3.51833 71.5308 3.65589C70.9724 3.93101 70.4384 4.23851 69.9124 4.56219C69.6211 4.7483 69.3379 4.93441 69.0627 5.12862C68.9333 5.21763 68.8038 5.30665 68.6824 5.40375L68.5367 5.50894L68.4073 5.60605C67.9137 5.99446 67.4363 6.41524 66.9831 6.82793C66.53 7.24062 66.0687 7.71804 65.6479 8.19547C65.4213 8.44632 65.2029 8.70526 64.9844 9.00466C66.051 9.50392 67.0558 10.1258 67.9784 10.8577C68.2133 10.5324 68.4645 10.2191 68.7309 9.91905C70.0425 8.52007 71.6652 7.44967 73.4675 6.79455C75.2698 6.13943 77.201 5.918 79.1048 6.14821C81.0863 6.37232 82.9706 7.12715 84.5588 8.33303C86.3102 9.70588 87.7177 11.468 88.6695 13.4795C90.911 18.1 90.9595 23.295 91 28.3282C91.0485 33.7741 91.2508 39.2119 91.534 44.6496C91.8172 49.8851 92.1733 55.1206 92.5294 60.348C93.2495 60.2752 93.9616 60.2185 94.6818 60.1862L95.2887 60.1619Z" fill="#FF7AAE"/>
<path d="M41.6372 17.1133C41.5283 17.2112 41.402 17.2881 41.265 17.3399C41.1112 17.4046 41.3217 17.3399 41.3378 17.3399H41.2245L41.0465 17.4289L40.6985 17.6312L40.4234 17.8173H40.3668L40.2454 17.9306C40.1849 17.9803 40.1281 18.0344 40.0755 18.0924C41.5845 17.9957 43.0939 18.2737 44.4694 18.9016C44.6897 19.0331 44.8496 19.2458 44.9147 19.494C44.9797 19.7422 44.9448 20.006 44.8174 20.2287C44.6924 20.4535 44.4852 20.6212 44.2394 20.6966C43.9935 20.772 43.7279 20.7493 43.4984 20.6333L43.3284 20.5524L43.029 20.4472C42.8035 20.3675 42.5739 20.3 42.3412 20.2449C42.1227 20.1893 41.9011 20.1461 41.6777 20.1154H41.5887H41.4997H41.1841C40.7207 20.083 40.2556 20.083 39.7922 20.1154H39.6304L39.2825 20.1801L38.8455 20.2934L38.797 20.4391C38.7241 20.7142 38.6594 20.9893 38.6109 21.2483C38.6109 21.2483 38.6109 21.3939 38.6109 21.4263V21.491C38.6109 21.6286 38.6109 21.7742 38.6109 21.9118C38.5959 22.1813 38.5959 22.4515 38.6109 22.721C38.6109 22.8747 38.6109 23.0366 38.6109 23.1984C38.6148 23.2577 38.6148 23.3172 38.6109 23.3764C38.6109 23.2874 38.6109 23.158 38.6109 23.3764C38.7014 23.9564 38.8589 24.5239 39.0802 25.0677C39.0788 25.0973 39.0788 25.127 39.0802 25.1567C39.0802 25.2376 39.153 25.3104 39.1854 25.3913C39.2177 25.4722 39.3391 25.6988 39.4201 25.8526C39.5819 26.1601 39.768 26.4676 39.9622 26.767C40.0674 26.9207 40.1645 27.0664 40.2778 27.2201L40.4315 27.4305V27.471C40.6419 27.738 40.8685 28.005 41.0951 28.2802C41.5959 28.8617 42.128 29.4155 42.6892 29.939C43.7735 30.9262 44.9307 31.8325 46.0878 32.7388L46.5571 33.103C46.5804 33.1288 46.6077 33.1507 46.638 33.1677L46.8565 33.3376L47.779 34.0335C48.3859 34.4867 49.0009 34.9317 49.6159 35.3687C50.8746 36.2468 52.1793 37.0571 53.5243 37.7963C54.1797 38.1523 54.8514 38.4841 55.5311 38.7916L55.8224 38.921L55.9357 38.9696L56.405 39.1638C56.7557 39.3041 57.1117 39.4335 57.4732 39.5522C58.1923 39.7951 58.9244 39.9977 59.666 40.1591C59.9897 40.2319 60.3215 40.2967 60.6614 40.3452H60.7099H60.9203H61.3573C61.9549 40.3978 62.556 40.3978 63.1537 40.3452C63.2184 40.3452 63.5259 40.2805 63.2346 40.3452H63.4207L63.8415 40.2643C64.1155 40.1983 64.3856 40.1173 64.6507 40.0216L64.8773 39.9406L65.2414 39.7626C65.3709 39.6979 65.4923 39.6251 65.6217 39.5441L65.7674 39.4389C65.6601 39.0604 65.5331 38.6876 65.3871 38.3222C65.369 38.2643 65.3474 38.2076 65.3223 38.1523L65.201 37.8772C65.1038 37.6668 65.0068 37.4645 64.9016 37.2541C64.4846 36.4648 64.0057 35.7099 63.4693 34.9965C63.4288 34.9398 63.3803 34.8832 63.3398 34.8184C63.2913 34.7456 63.2346 34.6809 63.178 34.608C63.1213 34.5352 62.9271 34.3086 62.7976 34.1549C62.5468 33.8555 62.2797 33.5561 61.9884 33.2648C61.4301 32.666 60.8313 32.0915 60.2244 31.5412C59.6175 30.991 58.9863 30.4569 58.3471 29.9228L57.3032 29.1136L56.9957 28.879L56.8744 28.7899L56.3322 28.3773C53.3165 26.0997 50.1537 24.0236 46.8646 22.1626C46.6543 22.0271 46.5045 21.8156 46.4464 21.5722C46.3882 21.3289 46.4262 21.0725 46.5525 20.8565C46.6788 20.6405 46.8835 20.4816 47.1241 20.4129C47.3646 20.3441 47.6224 20.3709 47.8437 20.4876C49.7211 21.5665 51.5579 22.7021 53.3543 23.8943C54.9727 24.9732 56.5291 26.0926 58.0234 27.2525C59.4476 28.353 60.8556 29.4778 62.1665 30.7158C64.2527 32.5882 65.9326 34.8685 67.1025 37.4159C67.1064 37.3378 67.1064 37.2595 67.1025 37.1813C67.1025 37.0033 67.1025 36.8252 67.1025 36.6472C67.1025 36.4692 67.1025 36.2669 67.1025 36.0727C67.1025 36.0727 67.1025 36.016 67.1025 35.9918C67.1025 35.9675 67.1025 35.8137 67.0459 35.7247C66.9675 35.3578 66.8593 34.9978 66.7222 34.6485L66.6737 34.5433L66.5523 34.3006C66.473 34.1336 66.3838 33.9714 66.2852 33.815C66.0891 33.4857 65.8757 33.167 65.646 32.8602L65.5974 32.7874L65.557 32.7388L65.379 32.5203C65.2657 32.3828 65.1443 32.2371 65.0149 32.0995C64.764 31.8082 64.497 31.525 64.2057 31.2499C63.1645 30.171 62.0856 29.1244 60.9689 28.1102C59.8522 27.096 58.7247 26.1115 57.5864 25.1567L56.6963 24.4446L56.4212 24.2342C56.5587 24.3394 56.4212 24.2342 56.3726 24.2342L55.9357 23.9024C55.3369 23.4493 54.73 23.0123 54.1069 22.5834C52.8688 21.7742 51.5984 20.965 50.2875 20.2206C49.6402 19.8645 48.9928 19.5247 48.3292 19.201L47.3097 18.7317L46.7756 18.497H46.7028L46.4519 18.3918C45.7884 18.1167 45.1087 17.8496 44.4209 17.6393C44.1263 17.5413 43.8265 17.4602 43.5227 17.3965L43.0776 17.3075C43.0047 17.3075 42.7297 17.3075 43.0129 17.3075C42.9509 17.312 42.8887 17.312 42.8267 17.3075C42.5224 17.2833 42.2166 17.2833 41.9123 17.3075H41.6696L41.6372 17.1133ZM41.8962 24.4527C41.6399 24.4485 41.3954 24.3449 41.2142 24.1636C41.033 23.9824 40.9293 23.7379 40.9251 23.4816C40.9251 23.2896 40.9821 23.1018 41.0888 22.9422C41.1955 22.7825 41.3471 22.658 41.5246 22.5845C41.702 22.511 41.8972 22.4918 42.0856 22.5293C42.274 22.5667 42.447 22.6592 42.5828 22.795C42.7186 22.9308 42.8111 23.1038 42.8486 23.2922C42.886 23.4806 42.8668 23.6758 42.7933 23.8532C42.7198 24.0307 42.5953 24.1823 42.4357 24.289C42.276 24.3957 42.0882 24.4527 41.8962 24.4527ZM61.2116 35.9108C61.4679 35.915 61.7124 36.0187 61.8936 36.1999C62.0749 36.3811 62.1785 36.6257 62.1827 36.8819C62.1827 37.0739 62.1257 37.2617 62.019 37.4214C61.9123 37.581 61.7607 37.7055 61.5832 37.779C61.4058 37.8525 61.2105 37.8717 61.0222 37.8343C60.8338 37.7968 60.6608 37.7043 60.525 37.5685C60.3892 37.4327 60.2967 37.2597 60.2593 37.0713C60.2218 36.883 60.241 36.6877 60.3145 36.5103C60.388 36.3329 60.5125 36.1812 60.6722 36.0745C60.8318 35.9678 61.0196 35.9108 61.2116 35.9108ZM56.4374 35.7328C56.554 35.7757 56.6593 35.845 56.7449 35.9351C56.8387 36.0209 56.9084 36.1297 56.9472 36.2507C57.0071 36.3653 57.035 36.4939 57.0281 36.6229V36.8819C57.0294 37.0524 56.9847 37.2202 56.8986 37.3674L56.7449 37.5616C56.6265 37.6816 56.4786 37.7682 56.316 37.8125H56.0652C55.9361 37.8194 55.8075 37.7914 55.6929 37.7315C55.5719 37.6928 55.4631 37.6231 55.3773 37.5292C55.2022 37.3454 55.1013 37.1033 55.0941 36.8495V36.5906C55.0958 36.4179 55.1402 36.2483 55.2236 36.097L55.3773 35.9028C55.497 35.7845 55.6445 35.6982 55.8062 35.6519H56.0652C56.1965 35.6494 56.3266 35.6771 56.4455 35.7328H56.4374ZM55.0294 31.0152C55.2856 31.0194 55.5302 31.123 55.7114 31.3042C55.8926 31.4855 55.9963 31.73 56.0004 31.9863C56.0004 32.1783 55.9434 32.3661 55.8367 32.5257C55.73 32.6854 55.5784 32.8099 55.401 32.8834C55.2236 32.9569 55.0283 32.9761 54.8399 32.9386C54.6516 32.9012 54.4786 32.8087 54.3428 32.6729C54.207 32.5371 54.1145 32.3641 54.077 32.1757C54.0395 31.9873 54.0588 31.7921 54.1323 31.6147C54.2058 31.4372 54.3302 31.2856 54.4899 31.1789C54.6496 31.0722 54.8373 31.0152 55.0294 31.0152ZM50.5869 31.9863C50.5827 32.2403 50.4799 32.4829 50.3003 32.6626C50.1206 32.8422 49.8781 32.945 49.624 32.9492C49.4312 32.9508 49.2424 32.895 49.0815 32.7889C48.9206 32.6828 48.7948 32.5313 48.7203 32.3535C48.6459 32.1758 48.6259 31.9799 48.6632 31.7907C48.7004 31.6016 48.793 31.4279 48.9293 31.2916C49.0655 31.1553 49.2393 31.0626 49.4284 31.0254C49.6176 30.9882 49.8135 31.0081 49.9912 31.0826C50.169 31.1571 50.3206 31.2828 50.4266 31.4438C50.5327 31.6047 50.5885 31.7935 50.5869 31.9863ZM49.1061 26.3785C49.3623 26.3827 49.6069 26.4864 49.7881 26.6676C49.9693 26.8488 50.073 27.0933 50.0771 27.3496C50.0771 27.5416 50.0201 27.7294 49.9134 27.8891C49.8067 28.0487 49.6551 28.1732 49.4777 28.2467C49.3002 28.3202 49.105 28.3394 48.9166 28.302C48.7283 28.2645 48.5553 28.172 48.4195 28.0362C48.2837 27.9004 48.1912 27.7274 48.1537 27.539C48.1162 27.3507 48.1355 27.1554 48.209 26.978C48.2825 26.8006 48.4069 26.6489 48.5666 26.5422C48.7263 26.4355 48.914 26.3785 49.1061 26.3785ZM44.2509 28.8061C44.0589 28.8061 43.8711 28.7492 43.7114 28.6425C43.5517 28.5358 43.4273 28.3841 43.3538 28.2067C43.2803 28.0293 43.2611 27.834 43.2985 27.6457C43.336 27.4573 43.4285 27.2843 43.5643 27.1485C43.7001 27.0127 43.8731 26.9202 44.0615 26.8827C44.2498 26.8453 44.4451 26.8645 44.6225 26.938C44.8 27.0115 44.9516 27.1359 45.0583 27.2956C45.165 27.4553 45.222 27.643 45.222 27.8351C45.2242 27.9678 45.1995 28.0996 45.1493 28.2224C45.099 28.3453 45.0243 28.4566 44.9297 28.5497C44.8351 28.6428 44.7226 28.7157 44.5989 28.764C44.4753 28.8122 44.3431 28.8348 44.2105 28.8304L44.2509 28.8061Z" fill="#FFEAEA"/>
<path d="M48.923 17.1702C51.7509 18.5083 54.4329 20.1354 56.9259 22.0254C59.488 23.9602 61.9208 26.0605 64.2087 28.3128C66.2074 30.2792 68.4651 32.4802 69.0153 35.2962L69.0881 35.1586C69.0881 35.0777 69.169 34.9887 69.2014 34.9078C69.2661 34.7459 69.3228 34.5922 69.3794 34.4303C69.6008 33.7739 69.766 33.0999 69.873 32.4154C69.873 32.4154 69.873 32.3345 69.873 32.2941C69.873 32.2536 69.873 32.1322 69.873 32.0513C69.873 31.9704 69.873 31.7114 69.9135 31.5334C69.9135 31.1936 69.9135 30.8456 69.9135 30.4977C69.9135 30.1497 69.873 29.7775 69.8325 29.4214C69.8325 29.4214 69.8325 29.3405 69.8325 29.3C69.8325 29.2596 69.8326 29.1301 69.7921 29.0492C69.7516 28.9683 69.7355 28.7255 69.7112 28.5637C69.5708 27.8661 69.3816 27.1793 69.1448 26.5083C69.08 26.3303 69.0153 26.1523 68.9425 25.9824V25.9095C68.8992 25.8324 68.8639 25.7511 68.8373 25.6668C68.6835 25.3431 68.5297 25.0194 68.3598 24.7038C67.9909 24.0357 67.5829 23.3899 67.138 22.7699C67.0247 22.608 66.9033 22.4543 66.7819 22.2924L66.5958 22.0659C66.3611 21.7745 66.1184 21.4913 65.8675 21.2081C64.8263 20.0777 63.698 19.0306 62.4932 18.0765L62.2504 17.8904L62.1291 17.7933L61.7245 17.4858C61.4089 17.2512 61.0933 17.0165 60.7696 16.7899C60.1304 16.3368 59.483 15.8917 58.8275 15.4709C58.1721 15.0501 57.4115 14.5808 56.6751 14.1843C56.2948 13.982 55.9144 13.7878 55.5341 13.6098L54.9758 13.3589L54.8625 13.3104L54.5631 13.1971C53.8011 12.8973 53.0128 12.6698 52.2083 12.5174L51.8604 12.4526H51.7633L51.213 12.4041C50.8035 12.3757 50.3926 12.3757 49.9831 12.4041C49.8753 12.3961 49.7671 12.3961 49.6594 12.4041H49.5056H49.4571C49.299 12.4245 49.1423 12.4542 48.9878 12.4931C48.6034 12.5725 48.2249 12.6779 47.8549 12.8087L47.2803 13.0191H47.2237L46.9809 13.1324C46.633 13.3023 46.285 13.4884 45.9452 13.6907C45.6053 13.893 45.2897 14.0953 44.9741 14.3138L44.4724 14.6779L44.3591 14.7588L44.1487 14.9288L43.6875 15.301C44.0193 15.3657 44.3511 15.4386 44.6666 15.5276C46.128 15.9576 47.5516 16.507 48.923 17.1702Z" fill="#FF7AAE"/>
<path d="M97.2715 71.3601C97.2715 71.0122 97.2715 70.6642 97.2715 70.3163C97.2631 70.2491 97.2631 70.1811 97.2715 70.114C97.2715 69.4343 97.2715 68.7545 97.2149 68.0748C97.1582 66.9339 97.0773 65.7929 96.9964 64.6519C96.9964 64.0855 96.9074 63.511 96.875 62.9364C96.875 62.6451 96.8345 62.3538 96.8103 62.0625H96.6727H95.8635C95.2863 62.0625 94.7118 62.0868 94.1399 62.1353C93.5654 62.1353 92.999 62.2163 92.4244 62.2729L91.5262 62.37L91.1621 62.4185C91.2107 63.8913 91.2511 65.3721 91.2997 66.8529C91.3806 69.5799 91.4615 72.315 91.5505 75.042H91.8904C92.0051 74.9897 92.1286 74.9595 92.2545 74.953C92.3454 74.9362 92.4387 74.9362 92.5296 74.953L94.148 74.8154L96.6484 74.5969L96.9155 74.5484C96.9772 74.54 97.0398 74.54 97.1016 74.5484H97.3605C97.3605 73.7392 97.3605 72.9947 97.3039 72.226C97.2706 72.1383 97.2568 72.0444 97.2634 71.9508C97.2634 71.7647 97.2634 71.5624 97.2715 71.3601Z" fill="#FFEAEA"/>
<path d="M40.7586 15.4773C39.5023 15.9677 38.4399 16.854 37.7322 18.002C37.0563 19.1309 36.657 20.4036 36.5669 21.7162C36.4421 22.9918 36.5995 24.2792 37.0282 25.487C37.6065 26.9721 38.445 28.3422 39.5043 29.533C40.5075 30.6671 41.6097 31.7097 42.7977 32.6484C44.052 33.6761 45.3386 34.6795 46.6414 35.6586C49.1689 37.6205 51.9172 39.2798 54.8304 40.6028C57.606 41.8085 60.6486 42.6905 63.6911 42.2212C65.0056 42.0587 66.2493 41.5349 67.2839 40.708C67.867 40.2072 68.3352 39.5865 68.6564 38.8882C68.9776 38.19 69.1443 37.4306 69.1451 36.662C69.1855 33.1663 66.5233 30.5769 64.209 28.303C61.9211 26.0507 59.4883 23.9504 56.9263 22.0156C54.4332 20.1256 51.7513 18.4985 48.9233 17.1604C47.5326 16.4773 46.0872 15.9116 44.6022 15.4692C43.2706 15.0249 41.8333 15.0079 40.4916 15.4207C39.7747 15.6884 39.1565 16.1682 38.7194 16.7963C38.5891 17.0175 38.5517 17.2813 38.6154 17.53C38.6791 17.7787 38.8387 17.992 39.0593 18.1234C39.2833 18.2447 39.5451 18.2763 39.7916 18.2116C40.038 18.147 40.2507 17.9911 40.3864 17.7754C40.4835 17.6379 40.2569 17.9049 40.3864 17.7754C40.5158 17.646 40.4754 17.6783 40.532 17.6298C40.5886 17.5812 40.6372 17.5408 40.6777 17.4922C40.7181 17.4437 40.6048 17.5569 40.5967 17.5569C40.5886 17.5569 40.6857 17.4922 40.7181 17.476C40.7505 17.4598 40.9528 17.3466 41.0661 17.2818C41.1793 17.2171 40.969 17.2818 40.969 17.2818L41.0742 17.2333L41.2926 17.1685L41.6972 17.0714C41.8672 17.0714 41.4707 17.0714 41.6972 17.0714H41.94C42.2443 17.0472 42.5501 17.0472 42.8544 17.0714C42.9163 17.0759 42.9785 17.0759 43.0405 17.0714C42.7573 17.0714 43.0405 17.0714 43.1052 17.0714L43.5503 17.1604C43.8541 17.2242 44.1539 17.3052 44.4485 17.4032C45.1363 17.6136 45.816 17.8806 46.4796 18.1558L46.7304 18.2609C46.7709 18.2609 46.9003 18.3257 46.7304 18.2609L46.8356 18.3014L47.3697 18.5361L48.3892 19.0054C49.0528 19.3291 49.7002 19.6689 50.3475 20.025C51.6584 20.7452 52.9288 21.5382 54.1669 22.3878C54.79 22.8167 55.3969 23.2537 55.9957 23.7068L56.4326 24.0386C56.4893 24.0871 56.6187 24.1842 56.4812 24.0386L56.7563 24.2571C57.0557 24.4836 57.347 24.7183 57.6464 24.9611C58.8009 25.9105 59.9283 26.895 61.0288 27.9146C62.1294 28.9342 63.2083 29.9808 64.2656 31.0543C64.5327 31.3294 64.7997 31.6126 65.0748 31.9039C65.2043 32.0415 65.3257 32.1872 65.439 32.3247L65.617 32.5432C65.617 32.5432 65.7303 32.6889 65.617 32.5432L65.7141 32.6727C65.9438 32.9795 66.1572 33.2982 66.3534 33.6275C66.4519 33.7839 66.5411 33.9461 66.6204 34.1131L66.7418 34.3558L66.7904 34.461C66.8389 34.5662 66.7337 34.3073 66.7904 34.461C66.9274 34.8103 67.0356 35.1703 67.114 35.5372C67.114 35.6262 67.1545 35.7153 67.1706 35.8043C67.1668 35.8419 67.1668 35.8799 67.1706 35.9175C67.1706 36.0632 67.1706 35.7476 67.1706 35.9175C67.1706 36.0875 67.1706 36.2979 67.1706 36.4921C67.1706 36.6863 67.1706 36.8481 67.1706 37.0261C67.1706 37.2042 67.1706 36.8805 67.1706 37.0747C67.1706 37.2689 67.1706 37.277 67.114 37.3741C67.0574 37.4712 67.025 37.714 66.9684 37.8839C66.953 37.9337 66.9341 37.9824 66.9117 38.0295C66.9117 38.0295 66.9845 37.8758 66.9117 37.9729C66.8389 38.07 66.8308 38.1428 66.7823 38.2238C66.7337 38.3047 66.6447 38.4665 66.5719 38.5798C66.499 38.6931 66.4585 38.7012 66.4505 38.7497C66.4424 38.7983 66.5961 38.5636 66.4505 38.6931L66.3777 38.7821L66.1025 39.0734L65.9488 39.211C65.9488 39.211 65.7222 39.389 65.8517 39.3C65.9811 39.211 65.795 39.3 65.7627 39.3566L65.6008 39.4699C65.4713 39.5508 65.35 39.6237 65.2205 39.6884L64.8564 39.8745C64.7026 39.9392 65.0587 39.7936 64.8564 39.8745L64.6298 39.9554C64.3647 40.0511 64.0946 40.1322 63.8206 40.1982L63.3998 40.2791H63.2137C63.505 40.2144 63.2137 40.2791 63.1328 40.2791C62.5351 40.3317 61.934 40.3317 61.3363 40.2791H60.8994H60.689C60.4462 40.2791 60.867 40.2791 60.6404 40.2791C60.4139 40.2791 59.9688 40.1658 59.6452 40.093C58.9035 39.9316 58.1714 39.7289 57.4522 39.4861C57.0854 39.362 56.7293 39.2325 56.3841 39.0977L55.9148 38.9035C55.7449 38.8387 55.9148 38.9035 55.9148 38.9035L55.7772 38.8468L55.4859 38.7174C54.8062 38.4099 54.1346 38.0781 53.4791 37.7221C52.1341 36.9829 50.8294 36.1726 49.5707 35.2945C48.9557 34.8575 48.3407 34.4125 47.7338 33.9593L46.8114 33.2634L46.5929 33.0935C46.4472 32.9802 46.5929 33.0935 46.5929 33.0935L46.5039 33.0206L46.0345 32.6565C44.8774 31.7502 43.7202 30.8439 42.6359 29.8567C42.1001 29.3708 41.5896 28.8576 41.1065 28.3192C40.8799 28.0603 40.6533 27.7932 40.443 27.51C40.2326 27.2268 40.443 27.51 40.443 27.51C40.4171 27.4868 40.3952 27.4595 40.3783 27.4291L40.2245 27.2187C40.1112 27.065 40.0141 26.9193 39.9089 26.7656C39.7147 26.4662 39.5286 26.1587 39.3668 25.8512C39.2858 25.6974 39.2049 25.5437 39.1321 25.3899C39.0592 25.2362 39.0592 25.2362 39.0269 25.1553C39.0074 25.1218 38.9911 25.0866 38.9783 25.0501C38.9783 25.2281 38.9783 25.1148 38.9783 25.0501C38.7571 24.5064 38.5996 23.9388 38.509 23.3589C38.509 23.2699 38.509 23.0837 38.509 23.3589C38.513 23.2996 38.513 23.2401 38.509 23.1808C38.509 23.019 38.509 22.8572 38.509 22.7034C38.494 22.4339 38.494 22.1637 38.509 21.8942C38.509 21.7567 38.509 21.611 38.509 21.4734C38.509 21.3359 38.509 21.2064 38.509 21.3683C38.509 21.5301 38.509 21.2711 38.509 21.2307C38.5576 20.9475 38.6223 20.6723 38.6951 20.4215C38.6951 20.2839 38.776 20.1545 38.8246 20.025C38.8412 19.9613 38.8629 19.8991 38.8893 19.8389C38.8893 19.7903 39.0026 19.5637 38.9379 19.7094C38.8731 19.8551 38.9379 19.6528 38.9864 19.6123C39.035 19.5718 39.0431 19.4909 39.0755 19.4343C39.1078 19.3776 39.2049 19.1753 39.2778 19.054L39.4962 18.7222C39.4962 18.6655 39.5691 18.6089 39.6095 18.5603C39.739 18.3823 39.4881 18.706 39.6095 18.5603C39.7814 18.3479 39.9709 18.1502 40.176 17.9696L40.2973 17.8563C40.3302 17.8395 40.3602 17.8177 40.3864 17.7916C40.3864 17.7916 40.2002 17.9292 40.3297 17.8402C40.4592 17.7512 40.5239 17.6945 40.6291 17.6298L40.9771 17.4275L41.1551 17.3385H41.2683C41.2683 17.3385 41.0418 17.4275 41.1955 17.3385C41.4396 17.2649 41.6461 17.1006 41.7726 16.8793C41.8991 16.658 41.9358 16.3965 41.8752 16.1489C41.8036 15.9041 41.6391 15.6969 41.417 15.5714C41.1948 15.446 40.9324 15.4122 40.6858 15.4773H40.7586Z" fill="#362D2A"/>
<path d="M38.5733 20.3819C38.7917 20.3172 39.0102 20.2524 39.2287 20.2039L39.5767 20.1391H39.7385C39.9893 20.1391 39.609 20.1391 39.7385 20.1391C40.2019 20.1068 40.667 20.1068 41.1303 20.1391H41.4459H41.6239C41.8505 20.1391 42.069 20.2201 42.2875 20.2767C42.5202 20.3318 42.7498 20.3994 42.9753 20.479L43.2747 20.5842C43.4446 20.6489 43.1938 20.5842 43.2747 20.5842L43.4527 20.6651C43.6763 20.7884 43.9388 20.8211 44.1858 20.7563C44.4328 20.6916 44.6455 20.5343 44.7798 20.3172C44.9035 20.1015 44.9405 19.8469 44.8834 19.605C44.8263 19.3631 44.6794 19.1519 44.4723 19.0144C42.4666 18.0745 40.1847 17.9073 38.0635 18.545C37.933 18.5712 37.8092 18.6239 37.6999 18.6999C37.5906 18.7759 37.4981 18.8735 37.4282 18.9868C37.3582 19.1 37.3122 19.2265 37.2932 19.3582C37.2741 19.49 37.2824 19.6242 37.3174 19.7526C37.3525 19.8811 37.4135 20.0009 37.4968 20.1048C37.5801 20.2086 37.6839 20.2942 37.8016 20.3562C37.9194 20.4183 38.0487 20.4555 38.1815 20.4654C38.3142 20.4754 38.4475 20.458 38.5733 20.4143V20.3819Z" fill="#362D2A"/>
<path d="M46.8829 22.1376C50.172 23.9986 53.3348 26.0746 56.3505 28.3522L56.8926 28.7649L57.0302 28.8701C57.0302 28.8701 56.8926 28.7649 57.0302 28.8701L57.3377 29.1047L58.3815 29.9139C59.0208 30.4318 59.6439 30.9659 60.2589 31.5323C60.8739 32.0988 61.4646 32.6571 62.0229 33.2559C62.298 33.5472 62.5651 33.8466 62.8321 34.146C62.9616 34.2998 63.091 34.4454 63.2124 34.5992C63.3338 34.7529 63.3419 34.7529 63.3986 34.8338C63.2772 34.6639 63.3581 34.7772 63.3986 34.8338C63.439 34.8905 63.4875 34.9552 63.528 35.0119C64.0644 35.7253 64.5434 36.4802 64.9603 37.2695C65.0655 37.4799 65.1626 37.6822 65.2597 37.8926C65.3568 38.103 65.3487 38.0949 65.3972 38.192C65.4458 38.2891 65.3325 38.0382 65.3972 38.192C65.4223 38.2472 65.444 38.304 65.462 38.3619C65.6381 38.7917 65.7867 39.2323 65.907 39.6809C65.9405 39.8031 65.9977 39.9175 66.0754 40.0176C66.1531 40.1177 66.2498 40.2015 66.3598 40.2643C66.4699 40.327 66.5913 40.3674 66.717 40.3833C66.8427 40.3991 66.9703 40.3901 67.0925 40.3566C67.2147 40.3231 67.3291 40.2659 67.4292 40.1882C67.5293 40.1105 67.6131 40.0139 67.6759 39.9038C67.7386 39.7937 67.7791 39.6723 67.7949 39.5466C67.8107 39.4209 67.8016 39.2933 67.7682 39.1711C66.7265 35.9018 64.8096 32.9802 62.2252 30.7231C60.9143 29.4851 59.5063 28.3603 58.0821 27.2598C56.658 26.1593 55.0072 24.9698 53.4131 23.9016C51.6167 22.6986 49.7798 21.5631 47.9025 20.4949C47.6812 20.3782 47.4234 20.3514 47.1828 20.4202C46.9423 20.4889 46.7375 20.6478 46.6112 20.8638C46.485 21.0798 46.447 21.3362 46.5051 21.5795C46.5633 21.8229 46.7131 22.0344 46.9233 22.17L46.8829 22.1376Z" fill="#362D2A"/>
<path d="M42.3126 16.426C42.8872 15.892 43.4697 15.366 44.0847 14.8805L44.2951 14.7105L44.4084 14.6296L44.9101 14.2655C45.2257 14.047 45.5494 13.8366 45.8812 13.6424C46.2129 13.4482 46.569 13.254 46.9169 13.084L47.1597 12.9789L47.2973 12.9141H47.2406L47.8152 12.7037C48.1852 12.573 48.5637 12.4675 48.948 12.3881C49.1235 12.3434 49.302 12.3109 49.4821 12.291C49.2798 12.291 49.4093 12.291 49.4821 12.291H49.6358C49.7436 12.283 49.8517 12.283 49.9595 12.291C50.369 12.2627 50.78 12.2627 51.1895 12.291L51.7397 12.3396C51.8854 12.3396 51.5698 12.3396 51.7397 12.3396H51.8611L52.2091 12.4043C53.0144 12.5529 53.8031 12.7806 54.5638 13.084L54.8632 13.1973L54.9765 13.2459L55.5348 13.4967C55.9152 13.6748 56.2955 13.869 56.6758 14.0713C57.4122 14.4678 58.1243 14.8805 58.8283 15.3579C59.5323 15.8353 60.1311 16.2237 60.7704 16.6769C61.094 16.9034 61.4096 17.1381 61.7252 17.3728L62.1459 17.6965C62.1459 17.6965 61.9922 17.5751 62.1459 17.6965L62.2673 17.7936L62.5101 17.9797C63.715 18.9338 64.8432 19.9808 65.8844 21.1112C66.1353 21.3945 66.378 21.6777 66.6127 21.969L66.7988 22.1956C66.8336 22.234 66.866 22.2746 66.8959 22.317C66.8959 22.317 66.7907 22.1794 66.8555 22.2684C66.9202 22.3574 67.0982 22.584 67.2115 22.7458C67.6371 23.3673 68.0262 24.0131 68.3767 24.6798C68.5467 24.9954 68.7004 25.3191 68.8542 25.6427C68.8808 25.7322 68.9161 25.819 68.9594 25.9017C68.9594 25.9017 68.8947 25.7237 68.9594 25.8288L69.0079 25.9583C69.0808 26.1283 69.1455 26.3063 69.2102 26.4843C69.447 27.1553 69.6363 27.8421 69.7766 28.5396C69.7766 28.7015 69.8333 28.8633 69.8576 29.0252C69.8819 29.187 69.8576 29.2113 69.898 29.3003C69.9385 29.3893 69.898 29.0737 69.898 29.2517C69.902 29.3002 69.902 29.3489 69.898 29.3974C69.898 29.7534 69.9708 30.1095 69.9789 30.4736C69.987 30.8378 69.9789 31.1695 69.9789 31.5094C69.9789 31.6874 69.9789 31.8573 69.9385 32.0273C69.898 32.1972 69.9385 32.1891 69.9385 32.27C69.942 32.3158 69.942 32.3618 69.9385 32.4076C69.9385 32.5371 69.9385 32.1567 69.9385 32.4076C69.8171 33.0833 69.6357 33.7467 69.3963 34.3901C69.3397 34.552 69.2831 34.7138 69.2183 34.8675C69.1536 35.0213 69.2912 34.6895 69.2183 34.9161C69.2183 34.997 69.1455 35.086 69.105 35.1669C68.951 35.483 68.7809 35.7909 68.5952 36.0894C68.5143 36.227 68.4253 36.3565 68.3363 36.494L68.1744 36.7125C68.1744 36.7125 68.0854 36.8258 68.1744 36.7125C68.2635 36.5992 68.1259 36.7611 68.1178 36.7772C67.9431 36.962 67.8458 37.2067 67.8458 37.461C67.8458 37.7153 67.9431 37.96 68.1178 38.1448C68.3007 38.3232 68.5461 38.4231 68.8016 38.4231C69.0571 38.4231 69.3025 38.3232 69.4853 38.1448C70.4731 36.9233 71.1828 35.5011 71.565 33.9774C71.9185 32.4969 72.0062 30.9653 71.8239 29.454C71.6543 27.8658 71.2423 26.313 70.602 24.8497C69.9367 23.3691 69.0768 21.984 68.045 20.7309C65.9474 18.2534 63.493 16.1017 60.7623 14.3464C57.8815 12.3881 54.669 10.5513 51.1086 10.3004C49.3419 10.2182 47.583 10.5828 45.9945 11.3605C44.496 12.1076 43.1096 13.0609 41.8756 14.1926C41.5601 14.4597 41.2607 14.7348 40.9613 15.0018C40.7809 15.1837 40.6797 15.4295 40.6797 15.6856C40.6797 15.9417 40.7809 16.1875 40.9613 16.3694C41.1451 16.5459 41.3902 16.6445 41.6451 16.6445C41.8999 16.6445 42.1449 16.5459 42.3288 16.3694L42.3126 16.426Z" fill="#362D2A"/>
<path d="M54.2407 11.6679C54.2811 11.4737 54.3539 11.2957 54.4106 11.1096C54.3378 11.3685 54.4106 11.1096 54.4672 11.0205L54.6453 10.713C54.6857 10.6564 54.7343 10.5431 54.799 10.5027C54.6857 10.5755 54.7019 10.624 54.799 10.5512L54.9042 10.4298C55.0424 10.2742 55.1911 10.1282 55.3493 9.99286C55.3493 9.99286 55.5273 9.84721 55.4059 9.99286C55.2845 10.1385 55.4059 9.99286 55.4059 9.99286C55.4829 9.93085 55.564 9.87408 55.6487 9.82293C55.8366 9.70413 56.0311 9.59606 56.2313 9.49925L56.3527 9.44261C56.4255 9.44261 56.474 9.44261 56.3527 9.44261C56.4469 9.41465 56.5389 9.37948 56.6278 9.33742C56.8301 9.27268 57.0324 9.21604 57.2428 9.16749L57.5341 9.11084C57.6069 9.11084 57.7445 9.04611 57.5341 9.11084H57.704C57.9735 9.09456 58.2437 9.09456 58.5132 9.11084C58.7641 9.11084 59.023 9.11084 59.2738 9.15939C59.5247 9.20794 59.0473 9.15939 59.3143 9.15939H59.4842L59.905 9.24031C60.9366 9.47628 61.9443 9.80674 62.9152 10.2275L63.0447 10.2842C62.8424 10.1952 63.0043 10.2842 63.0447 10.2842L63.3522 10.4217C63.5626 10.5107 63.773 10.6159 63.9834 10.713C64.396 10.9153 64.7926 11.1257 65.1971 11.3523C65.6017 11.5789 66.0063 11.8216 66.3381 12.0806L66.6051 12.2748C66.6618 12.3233 66.7265 12.3152 66.6051 12.2748C66.6448 12.3019 66.6827 12.3316 66.7184 12.3638C66.9046 12.5175 67.0907 12.6713 67.2606 12.8331C67.5758 13.1307 67.8731 13.4469 68.1507 13.7799C68.3045 13.966 68.0698 13.6666 68.1507 13.7799L68.2559 13.9255L68.4258 14.1602C68.5472 14.3463 68.6605 14.5324 68.7657 14.7266C68.7657 14.7995 68.8385 14.8723 68.879 14.9451C68.8972 14.9951 68.9188 15.0438 68.9437 15.0908C69.0165 15.2526 68.9033 15.0908 68.9437 15.0908C68.9842 15.0908 69.0246 15.2769 69.0327 15.3174C69.0408 15.3578 69.1056 15.5197 69.1379 15.6168C69.1703 15.7139 69.2431 15.9728 69.2836 16.1589C69.324 16.345 69.2836 16.3369 69.3402 16.434V16.5878C69.3402 16.7739 69.3402 16.3693 69.3402 16.5878C69.3807 17.0103 69.3807 17.4357 69.3402 17.8582C69.3402 17.9068 69.3402 17.9553 69.3402 18.012C69.3402 18.0686 69.3402 17.842 69.3402 17.9634C69.3402 18.0848 69.3402 18.1819 69.2755 18.2952C69.2366 18.4898 69.1853 18.6817 69.1217 18.8697L69.0246 19.1529C68.9518 19.3471 69.1055 18.9992 69.0246 19.1529C68.9928 19.2043 68.9658 19.2585 68.9437 19.3148C68.8543 19.5016 68.7487 19.6803 68.6281 19.8488C68.6094 19.883 68.5877 19.9155 68.5634 19.9459C68.442 20.124 68.709 19.776 68.5634 19.9459C68.5003 20.0252 68.4327 20.1009 68.3611 20.1725C68.2102 20.3353 68.045 20.4843 67.8675 20.6176C67.689 20.8005 67.5892 21.0458 67.5892 21.3013C67.5892 21.5568 67.689 21.8022 67.8675 21.9851C68.0532 22.158 68.2975 22.2542 68.5513 22.2542C68.805 22.2542 69.0493 22.158 69.235 21.9851C69.9216 21.3982 70.4631 20.6603 70.8169 19.8292C71.1706 18.9981 71.3272 18.0964 71.2742 17.1947C71.1947 15.2757 70.4178 13.4515 69.0894 12.0644C67.6828 10.6629 66.0063 9.56175 64.1614 8.82763C61.9604 7.86469 59.6056 7.02312 57.17 7.37107C56.0727 7.49696 55.0361 7.94089 54.1879 8.64824C53.3396 9.35559 52.7167 10.2955 52.3957 11.3523C52.352 11.478 52.3345 11.6114 52.3445 11.7442C52.3545 11.8769 52.3917 12.0062 52.4537 12.124C52.5158 12.2417 52.6014 12.3455 52.7052 12.4288C52.8091 12.5121 52.9289 12.5731 53.0573 12.6082C53.1857 12.6432 53.32 12.6514 53.4518 12.6324C53.5835 12.6133 53.7099 12.5674 53.8232 12.4974C53.9364 12.4275 54.0341 12.335 54.1101 12.2257C54.1861 12.1164 54.2388 11.9926 54.2649 11.8621L54.2407 11.6679Z" fill="#362D2A"/>
<path d="M44.211 28.8287C44.4034 28.8303 44.5919 28.7748 44.7526 28.669C44.9134 28.5633 45.0391 28.4122 45.1139 28.235C45.1886 28.0577 45.209 27.8622 45.1725 27.6733C45.1359 27.4844 45.044 27.3106 44.9086 27.174C44.7731 27.0374 44.6001 26.9441 44.4115 26.906C44.2229 26.8679 44.0273 26.8866 43.8494 26.9599C43.6715 27.0331 43.5193 27.1576 43.4123 27.3174C43.3052 27.4773 43.2481 27.6653 43.248 27.8577C43.2501 28.1132 43.352 28.3578 43.5319 28.5392C43.7118 28.7206 43.9555 28.8245 44.211 28.8287Z" fill="#362D2A"/>
<path d="M41.8832 24.4518C42.0752 24.4518 42.2629 24.3949 42.4226 24.2882C42.5823 24.1815 42.7068 24.0298 42.7803 23.8524C42.8538 23.675 42.873 23.4797 42.8355 23.2914C42.7981 23.103 42.7056 22.93 42.5698 22.7942C42.434 22.6584 42.261 22.5659 42.0726 22.5284C41.8842 22.491 41.689 22.5102 41.5115 22.5837C41.3341 22.6572 41.1825 22.7816 41.0758 22.9413C40.9691 23.101 40.9121 23.2887 40.9121 23.4808C40.9163 23.737 41.0199 23.9816 41.2011 24.1628C41.3823 24.344 41.6269 24.4477 41.8832 24.4518Z" fill="#362D2A"/>
<path d="M49.109 28.3109C49.3645 28.3088 49.6091 28.207 49.7905 28.0271C49.9719 27.8472 50.0759 27.6035 50.0801 27.348C50.0759 27.0918 49.9723 26.8472 49.7911 26.666C49.6099 26.4848 49.3653 26.3811 49.109 26.377C48.8679 26.399 48.6436 26.5105 48.4804 26.6894C48.3171 26.8683 48.2266 27.1017 48.2266 27.3439C48.2266 27.5861 48.3171 27.8196 48.4804 27.9985C48.6436 28.1774 48.8679 28.2888 49.109 28.3109Z" fill="#362D2A"/>
<path d="M49.6254 32.9479C49.8178 32.9479 50.0058 32.8908 50.1657 32.7837C50.3255 32.6766 50.45 32.5245 50.5232 32.3466C50.5965 32.1687 50.6152 31.973 50.5771 31.7845C50.539 31.5959 50.4457 31.4229 50.3091 31.2874C50.1725 31.1519 49.9987 31.0601 49.8098 31.0235C49.6209 30.987 49.4254 31.0074 49.2481 31.0821C49.0709 31.1569 48.9198 31.2826 48.8141 31.4433C48.7083 31.6041 48.6527 31.7926 48.6543 31.985C48.6606 32.2398 48.7651 32.4823 48.9461 32.6618C49.1271 32.8413 49.3705 32.9438 49.6254 32.9479Z" fill="#362D2A"/>
<path d="M55.0309 32.9496C55.2864 32.9475 55.531 32.8457 55.7124 32.6657C55.8938 32.4858 55.9978 32.2421 56.002 31.9867C55.9978 31.7304 55.8941 31.4859 55.7129 31.3046C55.5317 31.1234 55.2872 31.0198 55.0309 31.0156C54.7897 31.0377 54.5655 31.1491 54.4022 31.328C54.239 31.5069 54.1484 31.7404 54.1484 31.9826C54.1484 32.2248 54.239 32.4583 54.4022 32.6372C54.5655 32.8161 54.7897 32.9275 55.0309 32.9496Z" fill="#362D2A"/>
<path d="M55.0957 36.6223V36.8812C55.1029 37.135 55.2038 37.3772 55.3789 37.561C55.4646 37.6548 55.5735 37.7245 55.6945 37.7633C55.8091 37.8232 55.9377 37.8511 56.0667 37.8442H56.3176C56.4802 37.7999 56.6281 37.7133 56.7464 37.5933L56.9002 37.3991C56.9863 37.2519 57.031 37.0842 57.0296 36.9136V36.6547C57.0366 36.5256 57.0086 36.397 56.9487 36.2824C56.91 36.1614 56.8403 36.0526 56.7464 35.9669C56.6608 35.8767 56.5556 35.8075 56.4389 35.7646C56.3225 35.71 56.1953 35.6824 56.0667 35.6836H55.8078C55.6461 35.73 55.4986 35.8162 55.3789 35.9345L55.2252 36.1287C55.1418 36.28 55.0974 36.4496 55.0957 36.6223Z" fill="#362D2A"/>
<path d="M61.2126 37.8441C61.4681 37.8421 61.7126 37.7402 61.894 37.5603C62.0755 37.3804 62.1794 37.1367 62.1836 36.8812C62.1794 36.625 62.0758 36.3804 61.8946 36.1992C61.7134 36.018 61.4688 35.9143 61.2126 35.9102C60.9714 35.9322 60.7471 36.0437 60.5838 36.2226C60.4206 36.4015 60.3301 36.6349 60.3301 36.8771C60.3301 37.1193 60.4206 37.3528 60.5838 37.5317C60.7471 37.7106 60.9714 37.822 61.2126 37.8441Z" fill="#362D2A"/>
<path d="M64.4827 9.63602L64.7659 9.26378C64.6526 9.40944 64.8387 9.17478 64.8387 9.16668L64.9601 9.02103C65.1705 8.75399 65.3971 8.49505 65.6236 8.21183C66.0444 7.73441 66.4895 7.28126 66.9588 6.8443C67.4281 6.40733 67.9056 6.0351 68.4073 5.60623L68.5124 5.52531L68.6581 5.42011C68.7795 5.32301 68.9089 5.234 69.0384 5.14499C69.3135 4.95078 69.5968 4.76467 69.8881 4.57856C70.414 4.25488 70.9481 3.94738 71.5065 3.67226C71.7816 3.53469 72.0567 3.39713 72.3156 3.27575C72.5746 3.15437 72.7445 3.08964 73.1248 2.95208C74.3154 2.51149 75.5497 2.19953 76.8067 2.0215C76.5882 2.0215 76.8876 2.0215 76.9119 2.0215H77.0899H77.5431C77.8829 2.0215 78.2147 2.0215 78.5545 1.97295C79.1785 1.96489 79.8024 1.9892 80.4238 2.04578L80.8365 2.09433C81.1359 2.09433 80.6423 2.09433 80.9417 2.09433H81.1197C81.4514 2.14288 81.7832 2.20762 82.1069 2.27235C82.732 2.40685 83.3481 2.57981 83.9519 2.79024C84.227 2.87925 84.5021 2.98444 84.761 3.08964C84.761 3.08964 84.9795 3.18674 84.8258 3.08964L85.0281 3.18674L85.4812 3.39713C86.0735 3.67123 86.6466 3.98483 87.1967 4.3358C87.4476 4.49763 87.6984 4.66756 87.9412 4.85368L88.0868 4.95887C87.9331 4.84558 88.1678 5.02361 88.1759 5.0317L88.5562 5.34729C89.0289 5.75518 89.4749 6.19305 89.8914 6.65818C90.1017 6.89285 90.304 7.13561 90.4902 7.37837L90.5387 7.4431C90.5387 7.50783 90.6277 7.56448 90.6763 7.62921L90.9918 8.09045C91.3352 8.61169 91.6485 9.15203 91.9305 9.70884C92.4977 10.8086 92.9506 11.9637 93.2819 13.156C93.973 15.6175 94.3749 18.1512 94.4795 20.7058C94.876 26.9608 94.4795 33.2402 94.3257 39.5034C94.172 45.7665 94.091 52.2158 95.0621 58.5032C95.1754 59.2531 95.3049 60.0056 95.4505 60.7609C95.5204 61.0069 95.6845 61.2155 95.9072 61.3412C96.1299 61.467 96.3932 61.4998 96.64 61.4325C96.8852 61.3607 97.093 61.1967 97.2198 60.9748C97.3465 60.753 97.3824 60.4907 97.3198 60.243C96.106 54.0122 96.0493 47.5225 96.2193 41.1136C96.3892 34.7048 96.7857 28.2232 96.4782 21.782C96.2273 16.4818 95.4343 10.7527 92.1409 6.40733C90.5279 4.25725 88.3874 2.55986 85.9263 1.47934C83.4707 0.40628 80.8033 -0.0945519 78.1257 0.0147009C75.448 0.196263 72.8335 0.910291 70.4352 2.11497C68.037 3.31964 65.9033 4.99075 64.159 7.03041C63.6978 7.55639 63.2608 8.10664 62.8481 8.6488C62.7206 8.87148 62.6857 9.13528 62.7508 9.38346C62.8158 9.63165 62.9758 9.84437 63.1961 9.97588C63.4185 10.0988 63.6796 10.1312 63.9253 10.0663C64.171 10.0015 64.3822 9.84451 64.515 9.62792L64.4827 9.63602Z" fill="#362D2A"/>
<path d="M69.4508 12.0974L69.6531 11.8061C69.6531 11.8061 69.7097 11.7252 69.7421 11.6928C69.5883 11.8547 69.7421 11.7495 69.7421 11.6928C69.7421 11.6362 70.0253 11.353 70.179 11.1911C70.4834 10.8586 70.8106 10.5476 71.1582 10.2606C71.2355 10.1914 71.3165 10.1266 71.4009 10.0663C71.1905 10.2201 71.4575 10.0663 71.5061 9.98542L72.0806 9.59701C72.4576 9.36605 72.8465 9.15536 73.2459 8.96584L73.5291 8.83637C73.7395 8.73927 73.3834 8.89301 73.5291 8.83637L73.6909 8.77163L74.3464 8.53697C74.7684 8.39908 75.198 8.2856 75.633 8.19711L76.248 8.08382H76.3856H76.774C77.2133 8.05946 77.6536 8.05946 78.0929 8.08382C78.3033 8.08382 78.5137 8.08382 78.716 8.08382H79.0316C79.0963 8.08382 79.2582 8.08382 79.0316 8.08382C79.0988 8.07606 79.1667 8.07606 79.2339 8.08382C79.6686 8.1494 80.0985 8.24402 80.5205 8.36704C80.7228 8.42368 80.917 8.48842 81.1112 8.56125L81.4349 8.68263L81.5644 8.73927C81.3378 8.61789 81.5644 8.73927 81.5644 8.73927C81.9706 8.92553 82.3652 9.13631 82.7458 9.37044C82.9481 9.49991 83.1504 9.63747 83.3446 9.78312L83.5065 9.9045C83.6359 10.0016 83.3365 9.75885 83.5065 9.9045L83.8221 10.1554C84.2099 10.4892 84.5748 10.8488 84.9144 11.2316C85.0844 11.4177 85.2462 11.6119 85.408 11.8142C85.408 11.8142 85.5456 12.0003 85.408 11.8142L85.5051 11.9437C85.5861 12.057 85.667 12.1622 85.7398 12.2754C86.0338 12.7081 86.3039 13.1566 86.549 13.6187C86.7999 14.0719 87.0264 14.5412 87.2368 15.0186C87.2368 15.0186 87.3258 15.2371 87.2368 15.0186C87.2368 15.0672 87.2773 15.1157 87.2935 15.1724C87.3097 15.229 87.3987 15.4232 87.4472 15.5527C87.4958 15.6822 87.6253 16.0382 87.7062 16.289C88.0689 17.395 88.3395 18.529 88.5154 19.6796C88.5154 19.809 88.5154 19.9385 88.5801 20.0761C88.6449 20.2136 88.5801 20.2379 88.5801 20.3188C88.5801 20.3997 88.5801 20.0923 88.5801 20.4078C88.5801 20.7234 88.661 21.0714 88.6934 21.4031C88.75 22.0343 88.7986 22.6655 88.831 23.3048C88.8957 24.5752 88.92 25.8456 88.9281 27.1161C88.9766 32.4244 89.133 37.7273 89.3974 43.0248C89.6563 48.3493 90.0124 53.6738 90.3765 58.9902C90.4251 59.6537 90.4655 60.3173 90.5141 60.9727C90.5017 61.1072 90.5176 61.2427 90.5606 61.3706C90.6036 61.4986 90.6728 61.6161 90.7638 61.7158C90.8548 61.8156 90.9656 61.8952 91.0891 61.9497C91.2126 62.0042 91.3461 62.0323 91.481 62.0323C91.616 62.0323 91.7496 62.0042 91.873 61.9497C91.9965 61.8952 92.1073 61.8156 92.1983 61.7158C92.2893 61.6161 92.3585 61.4986 92.4015 61.3706C92.4445 61.2427 92.4603 61.1072 92.448 60.9727C92.0758 55.5026 91.6955 50.0243 91.4042 44.5461C91.1129 39.0679 90.9187 33.6705 90.8701 28.2247C90.8296 23.1915 90.7811 17.9964 88.5396 13.3759C87.5878 11.3644 86.1804 9.60232 84.4289 8.22947C82.8666 7.08241 81.0306 6.36532 79.1044 6.14985C77.1955 5.9177 75.2587 6.13972 73.4517 6.7978C71.6448 7.45589 70.0189 8.53144 68.7063 9.93687C68.3715 10.3106 68.0606 10.7052 67.7757 11.1183C67.7114 11.2277 67.6693 11.3488 67.6518 11.4745C67.6343 11.6002 67.6418 11.7282 67.6737 11.851C67.7056 11.9739 67.7614 12.0893 67.838 12.1905C67.9145 12.2918 68.0102 12.377 68.1196 12.4413C68.2291 12.5056 68.3501 12.5477 68.4759 12.5652C68.6016 12.5827 68.7295 12.5753 68.8524 12.5434C68.9752 12.5115 69.0906 12.4556 69.1919 12.3791C69.2931 12.3026 69.3784 12.2069 69.4427 12.0974H69.4508Z" fill="#362D2A"/>
<path d="M9.86264 55.0795C11.8335 53.4097 13.6187 51.5323 15.1872 49.4798C15.3155 49.2539 15.3503 48.9867 15.2843 48.7354C15.2122 48.4954 15.0536 48.2906 14.8392 48.1609C14.6156 48.0375 14.3531 48.0049 14.1061 48.0697C13.8591 48.1344 13.6465 48.2916 13.5121 48.5088L13.4636 48.5735L13.3098 48.7677L13.0428 49.0914L12.4602 49.7954C12.0502 50.2648 11.6294 50.726 11.1978 51.1791C10.3405 52.0687 9.43839 52.9141 8.49511 53.7119C8.31667 53.8948 8.2168 54.1402 8.2168 54.3957C8.2168 54.6512 8.31667 54.8966 8.49511 55.0795C8.68081 55.2524 8.92516 55.3485 9.1789 55.3485C9.43264 55.3485 9.67694 55.2524 9.86264 55.0795Z" fill="#362D2A"/>
<path d="M18.6275 45.5484L21.7591 42.2388C21.8628 42.1525 21.9474 42.0455 22.0074 41.9246C22.0675 41.8037 22.1017 41.6716 22.1079 41.5368C22.114 41.402 22.092 41.2673 22.0432 41.1415C21.9944 41.0156 21.9199 40.9013 21.8245 40.8059C21.729 40.7105 21.6148 40.636 21.4889 40.5872C21.3631 40.5384 21.2284 40.5163 21.0935 40.5225C20.9587 40.5286 20.8267 40.5628 20.7058 40.6229C20.5849 40.683 20.4779 40.7676 20.3915 40.8713L17.26 44.1809C17.1562 44.2672 17.0716 44.3743 17.0116 44.4952C16.9515 44.616 16.9173 44.7481 16.9112 44.8829C16.905 45.0178 16.927 45.1524 16.9758 45.2783C17.0246 45.4041 17.0991 45.5184 17.1946 45.6138C17.29 45.7093 17.4043 45.7838 17.5301 45.8326C17.656 45.8814 17.7906 45.9034 17.9254 45.8972C18.0603 45.8911 18.1924 45.8569 18.3132 45.7968C18.4341 45.7368 18.5411 45.6522 18.6275 45.5484Z" fill="#362D2A"/>
<path d="M25.1067 39.1468C26.0939 38.0679 27.0865 37.0025 28.0845 35.9505C28.2592 35.7657 28.3565 35.5211 28.3565 35.2668C28.3565 35.0125 28.2592 34.7678 28.0845 34.583C27.9016 34.4046 27.6562 34.3047 27.4007 34.3047C27.1452 34.3047 26.8998 34.4046 26.7169 34.583L23.731 37.8198C23.5563 38.0046 23.459 38.2492 23.459 38.5035C23.459 38.7578 23.5563 39.0025 23.731 39.1873C23.9172 39.3626 24.1632 39.4601 24.4188 39.4601C24.6745 39.4601 24.9205 39.3626 25.1067 39.1873V39.1468Z" fill="#362D2A"/>
<path d="M32.1738 32.4699C32.5063 31.7931 32.9047 31.1507 33.3633 30.5521L33.2096 30.7463C33.4685 30.4146 33.7436 30.099 34.0188 29.7915C34.1737 29.6053 34.2535 29.3679 34.2425 29.126C34.2314 28.884 34.1303 28.6549 33.9591 28.4836C33.7878 28.3124 33.5587 28.2113 33.3167 28.2002C33.0747 28.1892 32.8374 28.269 32.6512 28.4239C31.7757 29.3323 31.0443 30.3693 30.4825 31.4989C30.3582 31.7261 30.3236 31.9918 30.3854 32.2433C30.4531 32.4856 30.6128 32.6918 30.8305 32.8179C31.0532 32.9453 31.317 32.9802 31.5652 32.9152C31.8134 32.8501 32.0261 32.6902 32.1576 32.4699H32.1738Z" fill="#362D2A"/>
<path d="M17.2338 65.9499C19.1542 63.3011 21.0694 60.6577 22.9791 58.0198C23.1087 57.7976 23.1448 57.5331 23.0796 57.2843C23.0143 57.0355 22.853 56.8227 22.6311 56.6927C22.4083 56.5718 22.1477 56.5405 21.9026 56.6052C21.6575 56.6699 21.4463 56.8256 21.3121 57.0407C19.397 59.6894 17.4819 62.3328 15.5668 64.9707C15.4394 65.1934 15.4044 65.4572 15.4695 65.7054C15.5346 65.9536 15.6945 66.1663 15.9148 66.2978C16.1372 66.4207 16.3984 66.4531 16.644 66.3883C16.8897 66.3235 17.1009 66.1665 17.2338 65.9499Z" fill="#362D2A"/>
<path d="M26.225 53.0636C27.2858 51.6387 28.1842 50.0998 28.9034 48.4755C29.0322 48.2544 29.0678 47.9913 29.0026 47.7439C28.9373 47.4966 28.7765 47.2853 28.5555 47.1565C28.3344 47.0277 28.0712 46.992 27.8239 47.0573C27.5765 47.1226 27.3652 47.2834 27.2365 47.5044C26.5122 49.1237 25.6142 50.6594 24.558 52.0845C24.4284 52.3067 24.3923 52.5712 24.4575 52.82C24.5228 53.0688 24.6841 53.2815 24.906 53.4116C25.1284 53.5344 25.3895 53.5668 25.6352 53.502C25.8809 53.4372 26.0921 53.2802 26.225 53.0636Z" fill="#362D2A"/>
<path d="M32.0996 44.2546C32.9088 42.9761 33.718 41.7056 34.5272 40.4352C34.6554 40.2135 34.6916 39.9504 34.628 39.7023C34.5645 39.4542 34.4063 39.2409 34.1874 39.1081C33.9638 38.9848 33.7014 38.9522 33.4543 39.0169C33.2073 39.0817 32.9946 39.2389 32.8603 39.4561C32.0511 40.7346 31.2419 42.005 30.4732 43.2755C30.3451 43.4972 30.3089 43.7603 30.3724 44.0083C30.4359 44.2564 30.5941 44.4697 30.8131 44.6025C31.0367 44.7259 31.2991 44.7585 31.5461 44.6937C31.7932 44.629 32.0058 44.4718 32.1401 44.2546H32.0996Z" fill="#362D2A"/>
<path d="M38.0066 36.6614L40.0619 33.7159C40.187 33.4889 40.2217 33.223 40.159 32.9714C40.0891 32.7254 39.925 32.5169 39.7023 32.3911C39.4796 32.2653 39.2163 32.2325 38.9695 32.2998C38.7322 32.3768 38.5272 32.5305 38.3869 32.7368C37.7071 33.724 37.0194 34.7031 36.3396 35.6822C36.2434 35.8486 36.1986 36.0398 36.211 36.2316C36.2235 36.4234 36.2926 36.6072 36.4096 36.7597C36.5265 36.9122 36.6861 37.0265 36.8681 37.0882C37.0502 37.15 37.2464 37.1563 37.432 37.1064C37.6703 37.031 37.874 36.8733 38.0066 36.6614Z" fill="#362D2A"/>
<path d="M12.0311 73.5145L14.0783 70.5691C14.1423 70.4597 14.184 70.3387 14.2012 70.2131C14.2183 70.0876 14.2105 69.9599 14.1781 69.8373C14.1458 69.7148 14.0896 69.5998 14.0128 69.4991C13.936 69.3983 13.84 69.3137 13.7304 69.2501C13.5052 69.1198 13.2383 69.0821 12.9859 69.1449C12.7504 69.2256 12.5484 69.3821 12.4114 69.5899L10.3237 72.5354C10.1941 72.7576 10.1579 73.0221 10.2232 73.2709C10.2884 73.5197 10.4497 73.7325 10.6716 73.8625C10.7829 73.9277 10.9061 73.9699 11.034 73.9866C11.1619 74.0032 11.2918 73.9941 11.4161 73.9596C11.6557 73.8828 11.8616 73.7256 11.9987 73.5145H12.0311Z" fill="#362D2A"/>
<path d="M1.62523 64.1834C2.16739 63.528 2.78236 62.9211 3.38116 62.3142C4.13371 61.505 4.90244 60.7605 5.65499 59.9756C5.93821 59.6762 6.22143 59.3768 6.46419 59.0612C6.64073 58.8774 6.73934 58.6323 6.73934 58.3774C6.73934 58.1226 6.64073 57.8775 6.46419 57.6937C6.28232 57.5133 6.03658 57.4121 5.78044 57.4121C5.5243 57.4121 5.27852 57.5133 5.09665 57.6937C4.55449 58.3491 3.93142 58.9479 3.34071 59.5629C2.58007 60.3721 1.81133 61.1166 1.05878 61.9015C0.775562 62.2009 0.492344 62.5003 0.249586 62.8159C0.0827391 63.0011 -0.00649155 63.2434 0.000368117 63.4925C0.00722778 63.7417 0.109647 63.9787 0.286431 64.1545C0.463214 64.3302 0.700807 64.4312 0.950025 64.4366C1.19924 64.442 1.44101 64.3514 1.62523 64.1834Z" fill="#362D2A"/>
<path d="M22.3653 77.0264C24.0412 73.8937 25.9623 70.8984 28.1105 68.0686C28.2401 67.8464 28.2762 67.5819 28.211 67.3331C28.1458 67.0843 27.9845 66.8715 27.7626 66.7415C27.5397 66.6207 27.2792 66.5894 27.0341 66.654C26.789 66.7187 26.5778 66.8744 26.4436 67.0895C24.2918 69.9185 22.368 72.9138 20.6902 76.0473C20.5735 76.2686 20.5468 76.5264 20.6155 76.7669C20.6842 77.0075 20.8431 77.2122 21.0591 77.3385C21.2751 77.4648 21.5315 77.5028 21.7749 77.4446C22.0182 77.3865 22.2297 77.2367 22.3653 77.0264Z" fill="#362D2A"/>
<path d="M31.6371 60.0258C33.3935 57.5816 34.9779 55.0184 36.3789 52.3546C36.5088 52.1336 36.5455 51.87 36.481 51.6219C36.4165 51.3738 36.2561 51.1614 36.0351 51.0316C35.814 50.9017 35.5504 50.865 35.3023 50.9295C35.0542 50.994 34.8419 51.1544 34.712 51.3755C33.308 54.0376 31.7237 56.6006 29.9701 59.0466C29.8406 59.2688 29.8044 59.5334 29.8696 59.7822C29.9349 60.031 30.0962 60.2437 30.3181 60.3737C30.5409 60.4946 30.8014 60.5259 31.0465 60.4612C31.2916 60.3966 31.5029 60.2408 31.6371 60.0258Z" fill="#362D2A"/>
<path d="M40.3925 46.6253C41.5033 44.986 42.3397 43.1767 42.8687 41.2685C42.9359 41.0217 42.9031 40.7584 42.7774 40.5357C42.6516 40.3129 42.4431 40.1488 42.1971 40.079C41.9494 40.0163 41.687 40.0521 41.4652 40.1789C41.2434 40.3057 41.0793 40.5135 41.0075 40.7587C40.878 41.2037 40.7405 41.6488 40.5787 42.0858C40.4977 42.3043 40.4087 42.5227 40.3197 42.7412C40.2307 42.9597 40.3845 42.6037 40.3197 42.7412L40.2469 42.895L40.1012 43.2267C39.7042 44.0725 39.2388 44.8844 38.7094 45.6543C38.582 45.877 38.547 46.1408 38.6121 46.389C38.6772 46.6372 38.8371 46.8499 39.0574 46.9814C39.281 47.1047 39.5434 47.1373 39.7904 47.0726C40.0374 47.0078 40.2501 46.8506 40.3845 46.6334L40.3925 46.6253Z" fill="#362D2A"/>
<path d="M44.5121 38.1288L45.3213 36.5832C45.4496 36.3572 45.4844 36.0901 45.4184 35.8387C45.3684 35.6551 45.2651 35.4905 45.1215 35.3655C44.978 35.2406 44.8007 35.161 44.612 35.1368C44.4232 35.1125 44.2315 35.1447 44.0611 35.2293C43.8907 35.314 43.7491 35.4472 43.6543 35.6122L42.8451 37.1496C42.7156 37.3718 42.6794 37.6363 42.7446 37.8851C42.8099 38.1339 42.9712 38.3467 43.1931 38.4767C43.3044 38.5419 43.4276 38.5841 43.5555 38.6008C43.6833 38.6175 43.8133 38.6083 43.9375 38.5738C44.0581 38.5415 44.171 38.4856 44.2696 38.4091C44.3683 38.3327 44.4507 38.2374 44.5121 38.1288Z" fill="#362D2A"/>
<path d="M30.3116 81.6471C31.4444 79.1656 32.5719 76.6814 33.694 74.1945C33.8238 73.9734 33.8605 73.7098 33.796 73.4617C33.7315 73.2136 33.5711 73.0013 33.3501 72.8714C33.129 72.7416 32.8655 72.7049 32.6173 72.7694C32.3692 72.8339 32.1569 72.9943 32.027 73.2153C30.8996 75.7023 29.7721 78.1892 28.6446 80.6761C28.5217 80.8985 28.4893 81.1597 28.5541 81.4054C28.6189 81.651 28.776 81.8623 28.9926 81.9951C29.214 82.1221 29.4766 82.1568 29.7234 82.0917C29.9703 82.0266 30.1816 81.8669 30.3116 81.6471Z" fill="#362D2A"/>
<path d="M37.9907 67.5661C39.0966 64.9065 40.2106 62.2443 41.3327 59.5794C41.4 59.3326 41.3672 59.0692 41.2414 58.8465C41.1157 58.6238 40.9071 58.4597 40.6611 58.3898C40.4135 58.3293 40.1521 58.366 39.9308 58.4925C39.7094 58.6189 39.5451 58.8255 39.4716 59.0696L36.1215 67.0563C36.0545 67.3042 36.0885 67.5685 36.2158 67.7914C36.3432 68.0143 36.5537 68.1777 36.8012 68.2458C37.0487 68.3044 37.3092 68.2667 37.53 68.1406C37.7509 68.0144 37.9155 67.809 37.9907 67.5661Z" fill="#362D2A"/>
<path d="M43.8579 52.0699L45.9052 46.4055C45.9396 46.2833 45.9495 46.1555 45.9344 46.0295C45.9192 45.9034 45.8792 45.7816 45.8168 45.6711C45.7544 45.5605 45.6707 45.4634 45.5706 45.3853C45.4705 45.3072 45.356 45.2497 45.2336 45.216C44.9869 45.1509 44.7245 45.1847 44.5023 45.3101C44.2801 45.4356 44.1157 45.6428 44.044 45.8876L41.9887 51.552C41.9217 51.7998 41.9556 52.0641 42.083 52.2871C42.2104 52.51 42.4209 52.6734 42.6684 52.7415C42.916 52.8021 43.1774 52.7653 43.3987 52.6389C43.62 52.5124 43.7844 52.3059 43.8579 52.0618V52.0699Z" fill="#362D2A"/>
<path d="M48.9781 42.0184L49.7063 39.9388C49.7408 39.8145 49.75 39.6846 49.7334 39.5567C49.7167 39.4288 49.6745 39.3056 49.6092 39.1943C49.4813 38.9783 49.2759 38.8191 49.0348 38.7492C48.7808 38.6836 48.5112 38.7184 48.2822 38.8464C48.0718 38.9823 47.9169 39.1889 47.8452 39.429C47.5944 40.1168 47.3516 40.8127 47.1089 41.5005C47.0428 41.7518 47.0777 42.019 47.206 42.245C47.3346 42.4637 47.5437 42.6235 47.7886 42.69C47.9128 42.7245 48.0428 42.7337 48.1706 42.717C48.2985 42.7003 48.4217 42.6581 48.533 42.5929C48.743 42.4583 48.9003 42.2554 48.9781 42.0184Z" fill="#362D2A"/>
<path d="M52.6612 43.6067C51.9377 45.2785 51.3135 46.9916 50.792 48.737C50.7247 48.9837 50.7575 49.2471 50.8833 49.4698C51.009 49.6925 51.2176 49.8566 51.4637 49.9265C51.7103 49.9895 51.9717 49.9548 52.1933 49.8296C52.415 49.7045 52.5797 49.4985 52.6531 49.2548C52.8959 48.4457 53.1629 47.6365 53.4623 46.8273C53.5999 46.4388 53.7455 46.0181 53.8993 45.6701C53.9721 45.4759 54.0531 45.2817 54.134 45.0956C54.134 45.0956 54.2796 44.7315 54.2068 44.9176C54.2068 44.8124 54.2958 44.6991 54.3444 44.5939C54.4611 44.3726 54.4878 44.1148 54.4191 43.8742C54.3504 43.6336 54.1914 43.4289 53.9754 43.3026C53.7594 43.1764 53.5031 43.1384 53.2597 43.1965C53.0164 43.2547 52.8049 43.4045 52.6693 43.6148L52.6612 43.6067Z" fill="#362D2A"/>
<path d="M48.9476 54.9105L47.9523 59.8142C47.9086 59.9399 47.8912 60.0733 47.9012 60.2061C47.9112 60.3388 47.9483 60.4681 48.0104 60.5859C48.0724 60.7036 48.158 60.8074 48.2619 60.8907C48.3657 60.974 48.4855 61.035 48.614 61.0701C48.7424 61.1051 48.8766 61.1133 49.0084 61.0943C49.1401 61.0753 49.2666 61.0293 49.3798 60.9593C49.4931 60.8894 49.5907 60.7969 49.6667 60.6876C49.7427 60.5783 49.7954 60.4545 49.8216 60.324L50.7845 55.4284C50.8451 55.1808 50.8084 54.9194 50.6819 54.6981C50.5554 54.4768 50.3488 54.3124 50.1048 54.2389C49.857 54.1741 49.5937 54.209 49.3713 54.336C49.149 54.4631 48.9853 54.6722 48.9153 54.9186L48.9476 54.9105Z" fill="#362D2A"/>
<path d="M45.2487 66.4843C44.8261 68.6186 44.2168 70.7117 43.4281 72.7394C43.3938 72.8621 43.3842 72.9905 43.3999 73.1169C43.4156 73.2434 43.4562 73.3655 43.5195 73.4761C43.5827 73.5868 43.6673 73.6838 43.7682 73.7615C43.8692 73.8392 43.9847 73.8961 44.1078 73.9289C44.3544 73.9919 44.6158 73.9572 44.8375 73.832C45.0591 73.7069 45.2238 73.501 45.2973 73.2573C46.0813 71.2286 46.6878 69.1357 47.1099 67.0022C47.1786 66.7554 47.1464 66.4914 47.0204 66.2684C46.8945 66.0453 46.6851 65.8814 46.4383 65.8127C46.1915 65.744 45.9275 65.7762 45.7044 65.9022C45.4813 66.0281 45.3174 66.2375 45.2487 66.4843Z" fill="#362D2A"/>
<path d="M56.9255 46.1459L55.8088 51.3329C55.7748 51.4551 55.7652 51.5828 55.7805 51.7087C55.7959 51.8346 55.8359 51.9563 55.8982 52.0667C55.9606 52.1772 56.0441 52.2743 56.144 52.3525C56.2439 52.4306 56.3582 52.4884 56.4804 52.5224C56.6026 52.5564 56.7303 52.566 56.8562 52.5506C56.9822 52.5353 57.1038 52.4953 57.2143 52.4329C57.3247 52.3706 57.4218 52.287 57.5 52.1872C57.5782 52.0873 57.6359 51.973 57.6699 51.8508C58.0422 50.1191 58.4225 48.3955 58.7947 46.6638C58.8492 46.4207 58.8081 46.1659 58.68 45.9522C58.5519 45.7385 58.3465 45.5822 58.1064 45.5157C57.8663 45.4492 57.6098 45.4775 57.39 45.5948C57.1702 45.7121 57.0039 45.9094 56.9255 46.1459Z" fill="#362D2A"/>
<path d="M55.362 57.4828C55.0491 59.6406 54.685 61.7985 54.2696 63.9563C54.2151 64.1994 54.2562 64.4542 54.3843 64.6679C54.5124 64.8816 54.7178 65.0379 54.9579 65.1044C55.198 65.1709 55.4545 65.1426 55.6743 65.0253C55.8941 64.908 56.0604 64.7107 56.1388 64.4742C56.5434 62.3163 56.9049 60.1585 57.2232 58.0006C57.285 57.7491 57.2504 57.4835 57.1261 57.2562C56.9981 57.0402 56.7927 56.881 56.5515 56.8111C56.3037 56.7464 56.0405 56.7812 55.8181 56.9083C55.5957 57.0354 55.432 57.2445 55.362 57.4909V57.4828Z" fill="#362D2A"/>
<path d="M52.9851 69.8318C52.51 72.1285 52.2393 74.4627 52.1759 76.8071C52.1636 76.9415 52.1795 77.077 52.2225 77.205C52.2655 77.3329 52.3347 77.4505 52.4257 77.5502C52.5167 77.6499 52.6275 77.7296 52.751 77.784C52.8745 77.8385 53.0079 77.8667 53.1429 77.8667C53.2779 77.8667 53.4114 77.8385 53.5349 77.784C53.6584 77.7296 53.7692 77.6499 53.8602 77.5502C53.9512 77.4505 54.0204 77.3329 54.0634 77.205C54.1064 77.077 54.1222 76.9415 54.1099 76.8071C54.1099 75.6985 54.2232 74.5818 54.3446 73.4732L54.3931 73.0767V72.8987C54.3931 73.0929 54.3931 72.8987 54.3931 72.8501C54.3931 72.5669 54.474 72.2918 54.5226 72.0409C54.6116 71.4907 54.7168 70.9323 54.8301 70.3821C54.8907 70.1345 54.8539 69.8731 54.7275 69.6518C54.601 69.4304 54.3944 69.2661 54.1504 69.1926C53.9037 69.1275 53.6413 69.1612 53.4191 69.2867C53.197 69.4121 53.0325 69.6193 52.9609 69.8642L52.9851 69.8318Z" fill="#362D2A"/>
<path d="M41.8253 77.6646C41.8253 78.053 41.8253 78.4738 41.7605 78.8217C41.7605 79.0321 41.7201 79.2425 41.6958 79.4448C41.6716 79.6471 41.6958 79.6228 41.6958 79.7118C41.6958 79.8008 41.6958 79.8332 41.6958 79.8898C41.6958 79.7927 41.6958 79.7847 41.6958 79.8898C41.5745 80.699 41.4369 81.4435 41.2427 82.2041C41.2013 82.329 41.1857 82.4611 41.1969 82.5922C41.208 82.7233 41.2457 82.8508 41.3077 82.9669C41.3697 83.083 41.4546 83.1853 41.5573 83.2675C41.66 83.3498 41.7783 83.4104 41.9051 83.4455C42.0319 83.4806 42.1645 83.4896 42.2949 83.4719C42.4253 83.4542 42.5508 83.4102 42.6637 83.3426C42.7765 83.2749 42.8745 83.185 42.9515 83.0783C43.0286 82.9717 43.0832 82.8504 43.1119 82.722C43.5173 81.0756 43.7505 79.3915 43.8078 77.6969C43.7857 77.4557 43.6743 77.2315 43.4954 77.0682C43.3165 76.905 43.083 76.8145 42.8408 76.8145C42.5986 76.8145 42.3652 76.905 42.1863 77.0682C42.0074 77.2315 41.8959 77.4557 41.8738 77.6969L41.8253 77.6646Z" fill="#362D2A"/>
<path d="M51.7709 81.1354L51.5039 83.8543C51.5029 83.9808 51.5274 84.1063 51.5761 84.2231C51.6248 84.3399 51.6965 84.4457 51.7871 84.534C51.8773 84.6245 51.9845 84.6961 52.1026 84.7447C52.2207 84.7933 52.3473 84.818 52.475 84.8172C52.6016 84.8188 52.7271 84.7944 52.844 84.7457C52.9609 84.697 53.0666 84.625 53.1547 84.534C53.3279 84.349 53.4285 84.1076 53.4379 83.8543L53.7049 81.1354C53.7057 81.0077 53.681 80.8811 53.6324 80.763C53.5838 80.645 53.5122 80.5377 53.4217 80.4476C53.2399 80.2672 52.9941 80.166 52.7379 80.166C52.4818 80.166 52.2361 80.2672 52.0542 80.4476C51.8822 80.6367 51.782 80.8801 51.7709 81.1354Z" fill="#362D2A"/>
<path d="M90.8788 62.476H91.1054H91.1621L91.5262 62.4275L92.4244 62.3304C92.9989 62.2737 93.5654 62.2252 94.1399 62.1928C94.7144 62.1604 95.2889 62.1281 95.8635 62.12H96.6727C96.8021 62.12 96.9397 62.12 97.0692 62.12C97.1986 62.12 97.1258 62.1766 97.0044 62.12H97.1015H97.0125C96.9073 62.0633 96.883 61.9743 96.8102 61.9015V61.8448C96.8102 61.95 96.8102 61.9339 96.8102 61.7882C96.8588 61.8529 96.8102 62.031 96.8102 62.1119C96.8102 62.4113 96.8507 62.7107 96.875 63.0182C96.875 63.5927 96.9558 64.1672 96.9963 64.7337C97.0772 65.8746 97.1582 67.0156 97.2148 68.1566C97.2715 69.4594 97.2876 70.7541 97.2148 72.0569C97.2169 72.3116 97.3191 72.5553 97.4992 72.7354C97.6793 72.9156 97.923 73.0177 98.1778 73.0198C98.4332 73.0177 98.6778 72.9159 98.8592 72.7359C99.0406 72.556 99.1446 72.3123 99.1488 72.0569C99.196 69.5833 99.1096 67.1089 98.8898 64.6447C98.8898 64.0459 98.8008 63.439 98.7603 62.8321C98.8049 62.1789 98.694 61.5244 98.4367 60.9224C98.0078 60.2103 97.1905 60.2022 96.4542 60.2103C95.8473 60.2103 95.2485 60.2103 94.6416 60.2669C93.2012 60.3397 91.7608 60.4854 90.3286 60.6877C90.081 60.7558 89.8705 60.9192 89.7431 61.1421C89.6158 61.3651 89.5819 61.6294 89.6489 61.8772C89.7241 62.1202 89.8887 62.3255 90.1095 62.4517C90.3303 62.5779 90.5909 62.6155 90.8384 62.5569L90.8788 62.476Z" fill="#362D2A"/>
<path d="M89.1797 62.2088L89.4467 70.9885C89.4953 72.4208 89.5195 73.8611 89.5843 75.2934C89.5633 75.7532 89.7164 76.2039 90.0131 76.5558C90.1757 76.7179 90.3708 76.8436 90.5857 76.9245C90.8006 77.0054 91.0302 77.0397 91.2593 77.0251C91.9795 77.0251 92.6997 76.9037 93.4118 76.839L98.3317 76.4263C98.5858 76.4181 98.8273 76.3129 99.0063 76.1323C99.1854 75.9518 99.2885 75.7095 99.2946 75.4553C99.2946 73.7398 99.1894 72.0324 99.1894 70.3169C99.2017 70.1825 99.1859 70.0469 99.1429 69.919C99.0999 69.791 99.0306 69.6735 98.9396 69.5738C98.8487 69.4741 98.7379 69.3944 98.6144 69.3399C98.4909 69.2854 98.3574 69.2573 98.2224 69.2573C98.0874 69.2573 97.9539 69.2854 97.8304 69.3399C97.7069 69.3944 97.5962 69.4741 97.5052 69.5738C97.4142 69.6735 97.3449 69.791 97.3019 69.919C97.2589 70.0469 97.2431 70.1825 97.2554 70.3169C97.2554 72.0324 97.3687 73.7398 97.3606 75.4553L98.3317 74.4923L94.14 74.8484L92.1332 75.0183L91.1865 75.0911C90.968 75.0911 91.3726 75.1559 91.1865 75.0911C91.1865 75.0911 91.6154 75.3015 91.5506 75.4472C91.5506 75.4472 91.5021 75.3339 91.5506 75.3177C91.5506 75.4553 91.5506 75.4795 91.5506 75.3662C91.5506 75.253 91.5506 75.2611 91.5506 75.2044C91.4616 72.4289 91.3807 69.6614 91.2998 66.8859L91.1541 62.2168C91.152 61.9621 91.0499 61.7184 90.8697 61.5383C90.6896 61.3582 90.4459 61.256 90.1912 61.2539C89.9357 61.256 89.6911 61.3578 89.5097 61.5378C89.3283 61.7177 89.2244 61.9614 89.2201 62.2168L89.1797 62.2088Z" fill="#362D2A"/>
<path d="M91.2441 75.918C91.4464 77.9167 91.6406 79.9154 91.8429 81.906C91.8491 82.1616 91.9534 82.4051 92.1342 82.5859C92.315 82.7666 92.5584 82.8709 92.814 82.8771C93.0694 82.8729 93.3132 82.769 93.4931 82.5875C93.673 82.4061 93.7748 82.1615 93.7769 81.906C93.5746 79.9154 93.3804 77.9167 93.1781 75.918C93.1719 75.6632 93.0673 75.4207 92.8863 75.2412C92.7053 75.0617 92.4619 74.9592 92.2071 74.9551C91.953 74.9592 91.7105 75.062 91.5308 75.2417C91.3511 75.4214 91.2483 75.6639 91.2441 75.918Z" fill="#362D2A"/>
<path d="M95.9355 75.5511C96.1702 77.5417 96.3968 79.5323 96.6314 81.523C96.6375 81.7772 96.7407 82.0195 96.9198 82.2C97.0988 82.3806 97.3402 82.4858 97.5944 82.494C98.0718 82.494 98.6302 82.0651 98.5654 81.523C98.3335 79.5323 98.1042 77.5417 97.8776 75.5511C97.8695 75.2961 97.7646 75.0538 97.5843 74.8735C97.4039 74.6931 97.1616 74.5882 96.9066 74.5801C96.6504 74.5842 96.4058 74.6879 96.2246 74.8691C96.0434 75.0503 95.9397 75.2949 95.9355 75.5511Z" fill="#362D2A"/>
</svg>
