<svg width="124" height="74" viewBox="0 0 124 74" fill="none" xmlns="http://www.w3.org/2000/svg">
<g clip-path="url(#clip0_1907_7712)">
<path d="M59.2833 28.9867V28.4793L70.4425 8.8391H59.7233V6.16016H74.8417V6.69912L63.7411 26.3077H74.695V28.9867H59.2833Z" fill="#191919"/>
<path d="M89.6481 28.9867V20.4109C89.6481 19.5971 89.5796 18.8151 89.4428 18.0648C89.3156 17.3145 89.0859 16.6435 88.7535 16.0516C88.4309 15.4492 87.991 14.9738 87.4337 14.625C86.8864 14.2763 86.1922 14.1018 85.3515 14.1018C84.6965 14.1018 84.1002 14.2234 83.5626 14.4664C83.0347 14.6989 82.5801 15.0582 82.1988 15.5444C81.8176 16.0305 81.5194 16.6435 81.3043 17.3832C81.099 18.1123 80.9964 18.9736 80.9964 19.967L79.2807 19.3964C79.2807 17.7372 79.5545 16.3159 80.1019 15.1322C80.6591 13.9381 81.4363 13.0239 82.4334 12.3899C83.4404 11.7452 84.6233 11.4229 85.9821 11.4229C87.0085 11.4229 87.8835 11.5973 88.6069 11.946C89.3303 12.2947 89.9315 12.7597 90.4106 13.3409C90.8896 13.9117 91.2659 14.5563 91.5397 15.2749C91.8134 15.983 92.004 16.7069 92.1116 17.4465C92.2288 18.1757 92.2875 18.8679 92.2875 19.5231V28.9867H89.6481ZM78.3569 28.9867V6.16016H80.7031V18.7623H80.9964V28.9867H78.3569Z" fill="#191919"/>
<path d="M96.3931 8.83859V5.92188H99.0033V8.83859H96.3931ZM96.3931 28.9861V11.8663H99.0033V28.9861H96.3931Z" fill="#191919"/>
<path d="M103.403 28.986V11.8662H105.735V16.0035L105.353 15.4645C105.539 14.9361 105.779 14.45 106.072 14.0061C106.375 13.5623 106.712 13.1977 107.084 12.9124C107.494 12.5531 107.959 12.2782 108.477 12.0881C108.995 11.8979 109.523 11.7869 110.06 11.7552C110.598 11.7129 111.102 11.7499 111.571 11.8662V14.5134C111.023 14.3548 110.422 14.3127 109.767 14.3865C109.112 14.4605 108.506 14.7194 107.949 15.1633C107.441 15.5543 107.045 16.0299 106.761 16.59C106.487 17.15 106.297 17.7576 106.189 18.413C106.082 19.0576 106.028 19.7181 106.028 20.3944V28.986H103.403Z" fill="#191919"/>
<path d="M67.6866 62.0704C66.1419 62.0704 64.7489 61.7798 63.5074 61.1985C62.2756 60.6173 61.2589 59.7878 60.4574 58.7099C59.6655 57.6214 59.162 56.3322 58.9469 54.8421L62.6129 54.2397C62.9257 55.5924 63.566 56.6386 64.5338 57.3784C65.5114 58.118 66.6356 58.4879 67.9065 58.4879C68.6593 58.4879 69.368 58.3612 70.0327 58.1074C70.6975 57.8539 71.2352 57.484 71.6458 56.9979C72.0661 56.5118 72.2763 55.9147 72.2763 55.2067C72.2763 54.8896 72.2274 54.599 72.1297 54.3347C72.0319 54.06 71.8852 53.817 71.6898 53.6057C71.504 53.3942 71.2596 53.2041 70.9565 53.0349C70.6633 52.8553 70.3212 52.702 69.9301 52.5753L64.4752 50.8316C64.006 50.6836 63.4976 50.4882 62.9501 50.245C62.4125 49.9914 61.8993 49.648 61.4104 49.2146C60.9315 48.7709 60.5355 48.2107 60.2227 47.5344C59.9196 46.8475 59.7681 46.0021 59.7681 44.9982C59.7681 43.5292 60.1103 42.2981 60.7946 41.3048C61.4887 40.3007 62.4174 39.5505 63.5808 39.0537C64.7538 38.5571 66.054 38.314 67.4813 38.3245C68.9281 38.3351 70.2185 38.6046 71.3525 39.133C72.4865 39.6508 73.4348 40.4064 74.1973 41.3998C74.9597 42.3931 75.4975 43.5926 75.8103 44.9982L72.0124 45.7115C71.856 44.9083 71.5529 44.2267 71.1032 43.6666C70.6633 43.0959 70.1207 42.6627 69.4756 42.3667C68.8401 42.0708 68.1607 41.9124 67.4373 41.8912C66.7334 41.8807 66.0784 41.9968 65.4723 42.24C64.876 42.4724 64.3921 42.8106 64.0206 43.2545C63.6589 43.6984 63.478 44.2161 63.478 44.8079C63.478 45.3681 63.6345 45.8277 63.9473 46.187C64.2601 46.5357 64.6462 46.8158 65.1057 47.0272C65.5749 47.2279 66.0491 47.3971 66.5281 47.5344L70.3114 48.6757C70.8295 48.8237 71.4111 49.0245 72.0564 49.2781C72.7015 49.5318 73.3224 49.8857 73.9187 50.3402C74.515 50.7946 75.0038 51.3917 75.3851 52.1314C75.776 52.8712 75.9716 53.8117 75.9716 54.9531C75.9716 56.1366 75.7419 57.1775 75.2824 58.0759C74.8327 58.9635 74.2217 59.7033 73.4494 60.295C72.6771 60.8868 71.7925 61.3307 70.7953 61.6266C69.8079 61.9224 68.7717 62.0704 67.6866 62.0704Z" fill="#191919"/>
<path d="M88.4278 61.5941C87.3818 61.8055 86.3554 61.8953 85.3484 61.8635C84.3513 61.8425 83.4568 61.6469 82.665 61.2771C81.8732 60.8966 81.272 60.2996 80.8614 59.4858C80.4997 58.7461 80.309 57.9905 80.2895 57.219C80.2699 56.4476 80.2601 55.5758 80.2601 54.6036V39.7188H83.7795V54.3816C83.7795 55.0685 83.7843 55.6709 83.7941 56.1887C83.8136 56.7066 83.9163 57.1292 84.102 57.4568C84.454 58.0908 85.0161 58.4449 85.7884 58.5189C86.5607 58.5929 87.4405 58.5506 88.4278 58.3921V61.5941ZM77.386 47.4703V44.4742H88.4278V47.4703H77.386Z" fill="#191919"/>
<path d="M98.026 62.0709C96.4423 62.0709 95.059 61.6852 93.8761 60.9137C92.6933 60.1423 91.7743 59.0803 91.1193 57.7276C90.4741 56.3643 90.1515 54.8002 90.1515 53.0354C90.1515 51.239 90.4838 49.6643 91.1486 48.3116C91.8133 46.9589 92.7372 45.9022 93.92 45.1412C95.1029 44.3805 96.4716 44 98.026 44C99.6194 44 101.008 44.3857 102.19 45.1571C103.373 45.9286 104.292 46.9959 104.947 48.3592C105.602 49.7119 105.93 51.2706 105.93 53.0354C105.93 54.8108 105.597 56.3802 104.933 57.7434C104.278 59.0961 103.359 60.1581 102.176 60.9296C100.993 61.6905 99.6096 62.0709 98.026 62.0709ZM98.026 58.4884C99.4337 58.4884 100.48 57.9812 101.164 56.9667C101.848 55.9522 102.19 54.6418 102.19 53.0354C102.19 51.3763 101.843 50.0553 101.149 49.0725C100.455 48.0792 99.4141 47.5824 98.026 47.5824C97.0777 47.5824 96.2956 47.815 95.6798 48.2799C95.0736 48.7344 94.6239 49.3737 94.3306 50.198C94.0374 51.0117 93.8908 51.9575 93.8908 53.0354C93.8908 54.6945 94.2378 56.0209 94.9319 57.0143C95.6357 57.997 96.6671 58.4884 98.026 58.4884Z" fill="#191919"/>
<path d="M116.771 62.0709C115.227 62.0709 113.931 61.6746 112.885 60.882C111.839 60.0895 111.052 59.0115 110.524 57.6483C109.996 56.2745 109.733 54.7368 109.733 53.0354C109.733 51.3128 109.996 49.77 110.524 48.4068C111.052 47.0435 111.824 45.9709 112.841 45.1888C113.868 44.3963 115.134 44 116.639 44C118.135 44 119.43 44.3963 120.524 45.1888C121.63 45.9709 122.485 47.0435 123.091 48.4068C123.697 49.7594 124 51.3023 124 53.0354C124 54.7474 123.702 56.2851 123.106 57.6483C122.51 59.0115 121.669 60.0895 120.584 60.882C119.499 61.6746 118.228 62.0709 116.771 62.0709ZM109.131 69.2042V44.4755H112.255V56.4911H112.695V69.2042H109.131ZM116.228 58.6469C117.147 58.6469 117.905 58.3986 118.502 57.9019C119.097 57.4053 119.537 56.7341 119.821 55.8887C120.114 55.0327 120.261 54.0816 120.261 53.0354C120.261 51.9998 120.114 51.0592 119.821 50.2139C119.528 49.3578 119.073 48.6815 118.457 48.1848C117.842 47.6776 117.06 47.424 116.111 47.424C115.212 47.424 114.479 47.6617 113.912 48.1373C113.345 48.6022 112.924 49.2574 112.651 50.1029C112.387 50.9377 112.255 51.9153 112.255 53.0354C112.255 54.1451 112.387 55.1226 112.651 55.968C112.924 56.8134 113.35 57.4739 113.926 57.9495C114.513 58.4145 115.28 58.6469 116.228 58.6469Z" fill="#191919"/>
<path fill-rule="evenodd" clip-rule="evenodd" d="M12.7197 0.131169C12.5579 0.216322 12.3444 0.449636 12.2452 0.649512C12.0336 1.07646 12.0038 0.95178 13.2714 4.93699C14.7014 9.43251 15.2635 12.7883 15.1014 15.8596C14.8504 20.6131 13.4182 22.9758 7.15369 28.9711C4.07983 31.913 3.00748 33.3068 1.74825 35.9971C0.471661 38.7246 0 40.9662 0 44.3059C0 49.2476 0.898566 53.5962 3.51879 61.3336C5.65635 67.6461 6.17387 69.384 6.80348 72.3635C6.85044 72.5861 7.02383 72.9036 7.18867 73.0694C7.48117 73.3635 7.64834 73.3708 14.1476 73.3708H20.807L21.1288 73.0234C21.3627 72.771 21.4746 72.436 21.5382 71.7975C21.734 69.8311 21.8954 66.8006 21.8958 65.0859C21.8959 64.0331 21.9513 63.2654 22.0272 63.2654C22.2161 63.2654 26.6102 68.6161 28.451 71.0875C29.3114 72.2428 30.1148 73.2291 30.2361 73.2794C30.3574 73.3295 34.0685 73.3708 38.4829 73.3708C46.3944 73.3708 46.5144 73.3663 46.8721 73.0627C47.1542 72.8234 47.235 72.6245 47.235 72.1709C47.235 71.5552 45.8868 64.1453 45.0873 60.3676C44.5171 57.6726 43.6479 54.1303 41.9332 47.5131C39.8549 39.493 39.6608 38.5721 39.6608 36.7284C39.6608 35.8562 39.5723 34.4652 39.4641 33.6372C39.3234 32.5632 39.2474 29.9618 39.1983 24.5532C39.1604 20.3848 39.0303 14.8343 38.9091 12.2188C38.7879 9.60326 38.6436 5.94321 38.5883 4.08547C38.4921 0.844338 38.4754 0.693798 38.1755 0.37028L37.863 0.0329399L25.4382 0.00455589C17.0454 -0.0146145 12.9182 0.0265498 12.7197 0.131169ZM5.73747 10.0268C5.55858 10.3334 5.31579 10.7847 5.19792 11.0299C4.90652 11.6367 4.48774 12.0323 3.51246 12.6225C2.4379 13.2728 2.40526 13.5084 3.31705 14.0337C4.36833 14.6394 4.99795 15.2945 5.49343 16.2977C5.73512 16.7868 5.99498 17.2285 6.07086 17.2791C6.28624 17.4229 6.57654 17.0839 7.03774 16.1502C7.54809 15.1168 7.80533 14.8438 8.88238 14.193C10.0416 13.4923 10.0301 13.2581 8.79906 12.516C7.74681 11.8816 7.4039 11.4869 6.82979 10.2497C6.63065 9.82053 6.37672 9.46952 6.26531 9.46952C6.1539 9.46952 5.91634 9.72037 5.73747 10.0268ZM45.9469 31.0038C45.5436 31.8034 44.9569 32.4193 44.1672 32.8717C43.8851 33.0335 43.6544 33.2676 43.6546 33.3919C43.6548 33.5165 43.9665 33.8071 44.3474 34.038C45.1812 34.5433 45.488 34.881 45.9578 35.8102C46.3744 36.6342 46.7104 36.7193 46.9618 36.0642C47.29 35.2094 47.8847 34.509 48.6603 34.0641C49.0877 33.8188 49.4376 33.5166 49.4379 33.3926C49.4381 33.2683 49.0604 32.9426 48.5983 32.6683C47.7964 32.1927 47.1219 31.3578 46.8828 30.5452C46.7361 30.0458 46.3298 30.2449 45.9469 31.0038ZM20.519 30.5734C24.5725 30.7414 26.5729 30.9044 29.7456 31.3253C32.0623 31.6325 37.4388 32.7213 37.6232 32.9204C37.7931 33.1036 38.0026 35.0231 38.0055 36.4206C38.008 37.6146 37.986 37.7272 37.7674 37.6342C37.2857 37.4296 35.1533 36.98 33.8308 36.8045C32.9835 36.6921 31.5915 36.6549 30.1126 36.7049C24.0332 36.9111 19.0438 38.8988 16.0847 42.2932C14.4793 44.1347 13.6833 46.0442 13.5056 48.479L13.419 49.6679L12.8932 48.5656C11.1232 44.8554 8.4187 41.0487 6.19701 39.1405C5.17189 38.26 3.73294 37.4081 3.27064 37.4079C2.89552 37.4077 2.97704 37.1037 3.70085 35.8043C4.83366 33.7701 5.99719 32.3575 7.76718 30.8668C7.96976 30.6961 8.64179 30.6271 10.728 30.562C15.2681 30.4205 16.8696 30.4223 20.519 30.5734Z" fill="#191919"/>
</g>
<defs>
<clipPath id="clip0_1907_7712">
<rect width="124" height="74" fill="white"/>
</clipPath>
</defs>
</svg>
