<svg width="106" height="63" viewBox="0 0 106 63" fill="none" xmlns="http://www.w3.org/2000/svg">
<path d="M50.6777 24.6773V24.2454L60.217 7.52465H51.0538V5.24393H63.9776V5.70278L54.4884 22.3966H63.8522V24.6773H50.6777Z" fill="#191919"/>
<path d="M76.6346 24.6773V17.3763C76.6346 16.6835 76.5761 16.0177 76.4591 15.379C76.3504 14.7402 76.154 14.1689 75.8699 13.665C75.5941 13.1522 75.2181 12.7474 74.7417 12.4505C74.2738 12.1536 73.6804 12.0051 72.9617 12.0051C72.4018 12.0051 71.8921 12.1086 71.4325 12.3155C70.9812 12.5134 70.5926 12.8193 70.2667 13.2332C69.9408 13.6471 69.6859 14.1689 69.502 14.7987C69.3265 15.4194 69.2388 16.1527 69.2388 16.9984L67.7722 16.5126C67.7722 15.1001 68.0062 13.89 68.4742 12.8823C68.9505 11.8657 69.6149 11.0874 70.4672 10.5476C71.328 9.9988 72.3392 9.7244 73.5008 9.7244C74.3782 9.7244 75.1262 9.87285 75.7446 10.1697C76.363 10.4666 76.8769 10.8625 77.2864 11.3573C77.6959 11.8432 78.0176 12.392 78.2516 13.0038C78.4856 13.6066 78.6485 14.2229 78.7405 14.8526C78.8407 15.4734 78.8909 16.0627 78.8909 16.6205V24.6773H76.6346ZM66.9825 24.6773V5.24393H68.9881V15.9728H69.2388V24.6773H66.9825Z" fill="#191919"/>
<path d="M82.4005 7.52465V5.0415H84.6318V7.52465H82.4005ZM82.4005 24.6773V10.1023H84.6318V24.6773H82.4005Z" fill="#191919"/>
<path d="M88.3929 24.6773V10.1023H90.386V13.6246L90.0601 13.1657C90.2189 12.7159 90.4236 12.302 90.6743 11.9241C90.9334 11.5463 91.2217 11.2359 91.5393 10.993C91.8902 10.6871 92.2872 10.4531 92.7301 10.2912C93.173 10.1293 93.6243 10.0348 94.0839 10.0078C94.5435 9.97181 94.9739 10.0033 95.375 10.1023V12.356C94.9071 12.221 94.3931 12.1851 93.8332 12.248C93.2733 12.311 92.7552 12.5314 92.2788 12.9093C91.8443 13.2422 91.5058 13.6471 91.2635 14.1239C91.0295 14.6007 90.8665 15.118 90.7746 15.6759C90.6827 16.2247 90.6367 16.787 90.6367 17.3628V24.6773H88.3929Z" fill="#191919"/>
<path d="M57.8611 52.8438C56.5407 52.8438 55.3499 52.5964 54.2886 52.1015C53.2356 51.6067 52.3665 50.9005 51.6813 49.9828C51.0044 49.0561 50.574 47.9585 50.3901 46.6899L53.5239 46.1771C53.7913 47.3287 54.3387 48.2194 55.166 48.8492C56.0017 49.4789 56.9627 49.7938 58.0491 49.7938C58.6926 49.7938 59.2985 49.6859 59.8667 49.4699C60.435 49.254 60.8946 48.9391 61.2456 48.5253C61.6049 48.1114 61.7846 47.6031 61.7846 47.0003C61.7846 46.7304 61.7428 46.483 61.6593 46.258C61.5757 46.0241 61.4503 45.8172 61.2832 45.6373C61.1244 45.4573 60.9155 45.2954 60.6564 45.1514C60.4057 44.9985 60.1133 44.868 59.779 44.7601L55.1159 43.2756C54.7148 43.1496 54.2802 42.9832 53.8122 42.7762C53.3526 42.5603 52.9139 42.2679 52.496 41.899C52.0866 41.5212 51.7481 41.0443 51.4807 40.4685C51.2216 39.8837 51.0921 39.164 51.0921 38.3093C51.0921 37.0587 51.3846 36.0106 51.9696 35.1649C52.5629 34.3101 53.3568 33.6714 54.3513 33.2485C55.3541 32.8257 56.4655 32.6187 57.6856 32.6277C58.9224 32.6367 60.0255 32.8661 60.9949 33.316C61.9643 33.7568 62.7749 34.4001 63.4267 35.2458C64.0785 36.0915 64.5382 37.1127 64.8056 38.3093L61.559 38.9166C61.4253 38.2328 61.1662 37.6525 60.7818 37.1757C60.4057 36.6898 59.9419 36.321 59.3904 36.069C58.8472 35.8171 58.2664 35.6822 57.648 35.6642C57.0463 35.6552 56.4864 35.7541 55.9683 35.9611C55.4585 36.159 55.0449 36.4469 54.7273 36.8248C54.4181 37.2027 54.2635 37.6435 54.2635 38.1473C54.2635 38.6242 54.3972 39.0155 54.6646 39.3214C54.932 39.6183 55.2621 39.8567 55.6549 40.0367C56.056 40.2076 56.4613 40.3516 56.8708 40.4685L60.1049 41.4402C60.5478 41.5662 61.045 41.7371 61.5966 41.953C62.1481 42.169 62.6788 42.4703 63.1886 42.8572C63.6983 43.2441 64.1162 43.7524 64.4421 44.3822C64.7763 45.012 64.9435 45.8127 64.9435 46.7844C64.9435 47.792 64.7471 48.6782 64.3543 49.443C63.9699 50.1987 63.4476 50.8285 62.7874 51.3323C62.1272 51.8361 61.371 52.214 60.5186 52.4659C59.6745 52.7178 58.7887 52.8438 57.8611 52.8438Z" fill="#191919"/>
<path d="M75.5915 52.4389C74.6973 52.6189 73.8199 52.6953 72.9591 52.6683C72.1067 52.6504 71.3421 52.4839 70.6652 52.169C69.9883 51.8451 69.4744 51.3368 69.1234 50.644C68.8142 50.0143 68.6512 49.371 68.6345 48.7142C68.6178 48.0574 68.6094 47.3152 68.6094 46.4875V33.8153H71.6179V46.2985C71.6179 46.8833 71.622 47.3962 71.6304 47.837C71.6471 48.2779 71.7349 48.6377 71.8936 48.9166C72.1945 49.4564 72.675 49.7578 73.3352 49.8208C73.9954 49.8838 74.7475 49.8478 75.5915 49.7129V52.4389ZM66.1525 40.4146V37.8639H75.5915V40.4146H66.1525Z" fill="#191919"/>
<path d="M83.7964 52.8438C82.4426 52.8438 81.2601 52.5154 80.2489 51.8586C79.2378 51.2019 78.4522 50.2977 77.8923 49.1461C77.3408 47.9855 77.065 46.6539 77.065 45.1514C77.065 43.622 77.3491 42.2814 77.9174 41.1298C78.4856 39.9782 79.2754 39.0785 80.2865 38.4307C81.2977 37.783 82.4677 37.4591 83.7964 37.4591C85.1585 37.4591 86.3452 37.7875 87.3564 38.4442C88.3675 39.101 89.1531 40.0097 89.713 41.1703C90.2729 42.3219 90.5528 43.6489 90.5528 45.1514C90.5528 46.6629 90.2687 47.999 89.7004 49.1596C89.1405 50.3112 88.355 51.2153 87.3438 51.8721C86.3327 52.5199 85.1502 52.8438 83.7964 52.8438ZM83.7964 49.7938C84.9998 49.7938 85.8939 49.362 86.4789 48.4983C87.0639 47.6346 87.3564 46.519 87.3564 45.1514C87.3564 43.7389 87.0597 42.6143 86.4664 41.7776C85.873 40.9319 84.983 40.509 83.7964 40.509C82.9858 40.509 82.3172 40.707 81.7908 41.1028C81.2726 41.4897 80.8882 42.034 80.6375 42.7358C80.3868 43.4285 80.2615 44.2337 80.2615 45.1514C80.2615 46.5639 80.5581 47.6931 81.1515 48.5388C81.7531 49.3755 82.6348 49.7938 83.7964 49.7938Z" fill="#191919"/>
<path d="M99.8204 52.8438C98.5001 52.8438 97.3928 52.5064 96.4986 51.8316C95.6044 51.1569 94.9317 50.2392 94.4805 49.0786C94.0292 47.909 93.8036 46.5999 93.8036 45.1514C93.8036 43.6849 94.0292 42.3714 94.4805 41.2108C94.9317 40.0502 95.5919 39.137 96.461 38.4712C97.3385 37.7965 98.4207 37.4591 99.7076 37.4591C100.986 37.4591 102.093 37.7965 103.029 38.4712C103.974 39.137 104.705 40.0502 105.223 41.2108C105.741 42.3624 106 43.6759 106 45.1514C106 46.6089 105.745 47.918 105.236 49.0786C104.726 50.2392 104.007 51.1569 103.08 51.8316C102.152 52.5064 101.066 52.8438 99.8204 52.8438ZM93.2896 58.9167V37.8639H95.9596V48.0934H96.3357V58.9167H93.2896ZM99.3566 49.9288C100.142 49.9288 100.79 49.7174 101.3 49.2945C101.809 48.8717 102.185 48.3003 102.428 47.5806C102.678 46.8518 102.804 46.0421 102.804 45.1514C102.804 44.2697 102.678 43.469 102.428 42.7493C102.177 42.0205 101.788 41.4447 101.262 41.0218C100.736 40.59 100.067 40.3741 99.2564 40.3741C98.4875 40.3741 97.8608 40.5765 97.3761 40.9814C96.8914 41.3772 96.532 41.935 96.2981 42.6548C96.0724 43.3655 95.9596 44.1978 95.9596 45.1514C95.9596 46.0961 96.0724 46.9283 96.2981 47.6481C96.532 48.3678 96.8956 48.9301 97.3886 49.335C97.89 49.7309 98.546 49.9288 99.3566 49.9288Z" fill="#191919"/>
<path fill-rule="evenodd" clip-rule="evenodd" d="M10.8733 0.111671C10.735 0.184166 10.5525 0.382798 10.4677 0.552963C10.2868 0.916447 10.2613 0.810299 11.3449 4.20311C12.5673 8.03038 13.0478 10.8873 12.9093 13.5021C12.6947 17.549 11.4704 19.5605 6.11525 24.6646C3.4876 27.1692 2.57091 28.3558 1.49447 30.6462C0.403194 32.9682 0 34.8766 0 37.7199C0 41.927 0.768129 45.6292 3.008 52.2164C4.83527 57.5906 5.27766 59.0702 5.81588 61.6068C5.85602 61.7963 6.00424 62.0666 6.14515 62.2077C6.39519 62.4581 6.5381 62.4643 12.0939 62.4643H17.7866L18.0617 62.1686C18.2617 61.9537 18.3573 61.6685 18.4117 61.1249C18.5791 59.4508 18.717 56.8708 18.7174 55.411C18.7175 54.5147 18.7648 53.8611 18.8297 53.8611C18.9912 53.8611 22.7474 58.4164 24.321 60.5204C25.0565 61.504 25.7433 62.3437 25.847 62.3865C25.9507 62.4292 29.1231 62.4643 32.8967 62.4643C39.6597 62.4643 39.7623 62.4605 40.0681 62.202C40.3092 61.9983 40.3783 61.829 40.3783 61.4428C40.3783 60.9186 39.2258 54.6102 38.5424 51.394C38.0549 49.0996 37.3119 46.0839 35.8461 40.4503C34.0695 33.6224 33.9036 32.8384 33.9036 31.2688C33.9036 30.5262 33.8279 29.342 33.7354 28.6371C33.6152 27.7227 33.5502 25.508 33.5082 20.9034C33.4758 17.3546 33.3646 12.6292 33.261 10.4025C33.1574 8.17575 33.034 5.05976 32.9868 3.47817C32.9045 0.718828 32.8903 0.590666 32.6339 0.315238L32.3668 0.0280434L21.7456 0.00387865C14.5711 -0.0124421 11.043 0.0226032 10.8733 0.111671ZM4.90461 8.53633C4.75169 8.79733 4.54414 9.18156 4.44338 9.39032C4.19428 9.90689 3.83629 10.2437 3.00259 10.7462C2.08401 11.2998 2.05611 11.5004 2.83554 11.9476C3.73422 12.4633 4.27244 13.021 4.696 13.8751C4.9026 14.2915 5.12474 14.6675 5.18961 14.7106C5.37372 14.833 5.62188 14.5444 6.01613 13.7495C6.4524 12.8697 6.6723 12.6373 7.593 12.0832C8.58397 11.4867 8.57408 11.2873 7.52178 10.6555C6.62227 10.1154 6.32914 9.77936 5.83837 8.7261C5.66814 8.36072 5.45107 8.06189 5.35583 8.06189C5.26059 8.06189 5.05752 8.27545 4.90461 8.53633ZM39.2772 26.3951C38.9324 27.0759 38.4309 27.6002 37.7558 27.9854C37.5147 28.1231 37.3175 28.3224 37.3176 28.4282C37.3178 28.5343 37.5843 28.7817 37.9099 28.9783C38.6226 29.4085 38.8849 29.696 39.2865 30.4871C39.6426 31.1886 39.9299 31.261 40.1448 30.7033C40.4253 29.9756 40.9337 29.3793 41.5967 29.0005C41.9621 28.7917 42.2612 28.5344 42.2614 28.4288C42.2616 28.323 41.9387 28.0457 41.5437 27.8122C40.8582 27.4073 40.2816 26.6965 40.0772 26.0047C39.9518 25.5795 39.6045 25.749 39.2772 26.3951ZM17.5404 26.0287C21.0055 26.1717 22.7155 26.3105 25.4277 26.6688C27.4081 26.9304 32.0041 27.8573 32.1618 28.0268C32.307 28.1828 32.4861 29.817 32.4886 31.0067C32.4907 32.0232 32.4719 32.1191 32.285 32.0399C31.8733 31.8657 30.0504 31.483 28.9199 31.3336C28.1956 31.2379 27.0056 31.2062 25.7414 31.2488C20.5445 31.4243 16.2794 33.1165 13.7498 36.0064C12.3775 37.5741 11.697 39.1998 11.5451 41.2727L11.4711 42.2848L11.0216 41.3464C9.50855 38.1877 7.19663 34.9469 5.29744 33.3223C4.42113 32.5727 3.19106 31.8474 2.79587 31.8473C2.4752 31.8471 2.54489 31.5883 3.16363 30.482C4.132 28.7502 5.12663 27.5476 6.63969 26.2785C6.81286 26.1332 7.38734 26.0744 9.17069 26.019C13.0518 25.8985 14.4208 25.9001 17.5404 26.0287Z" fill="#191919"/>
</svg>
