<svg width="132" height="78" viewBox="0 0 132 78" fill="none" xmlns="http://www.w3.org/2000/svg">
<path d="M113.036 8.67479C112.455 7.94521 112.025 7.10765 111.77 6.2106C111.284 4.78006 110.906 3.31513 110.64 1.82812C110.769 3.63671 110.351 5.44231 109.441 7.01065C108.531 8.57899 107.171 9.83766 105.537 10.6234L105.712 10.775C107.486 10.3808 109.351 11.5333 110.261 13.0497C111.098 14.6854 111.433 16.5318 111.224 18.3572C111.349 16.6694 111.693 15.005 112.247 13.406C112.822 11.802 113.989 10.4783 115.508 9.70595C115.043 9.7517 114.573 9.68147 114.142 9.50152C113.711 9.32158 113.331 9.03753 113.036 8.67479Z" fill="#FFC055"/>
<path d="M105.999 11.4058C107.37 10.7357 108.568 9.75947 109.502 8.5526C110.435 7.34574 111.079 5.94047 111.383 4.44534C111.557 3.585 111.61 2.70463 111.542 1.82952L109.768 2.07213C110.033 3.54557 110.405 4.99764 110.882 6.4167C111.239 7.861 112.076 9.14139 113.255 10.0486C113.992 10.5305 114.881 10.7198 115.75 10.5793C115.515 10.0334 115.287 9.47988 115.052 8.92639C112.444 10.1244 111.193 12.998 110.708 15.6669C110.541 16.5616 110.435 17.4715 110.329 18.3813H112.133C112.288 16.67 112.041 14.9461 111.413 13.3468C111.1 12.6143 110.645 11.9507 110.075 11.3938C109.505 10.837 108.831 10.3979 108.092 10.1016C107.255 9.78336 106.344 9.71487 105.469 9.90449C105.238 9.96995 105.043 10.1237 104.925 10.3324C104.807 10.5411 104.776 10.7878 104.839 11.0191C104.906 11.2488 105.06 11.4435 105.268 11.5623C105.476 11.6811 105.722 11.7147 105.954 11.656C106.026 11.6364 106.1 11.6212 106.174 11.6105C106.295 11.6105 105.992 11.6105 106.121 11.6105H106.212C106.386 11.6105 106.553 11.6105 106.72 11.6105H106.811C106.94 11.6105 106.636 11.5726 106.758 11.6105L106.977 11.6484C107.132 11.6808 107.284 11.7238 107.432 11.7773C107.499 11.8071 107.567 11.8324 107.637 11.8531C107.516 11.8531 107.516 11.7924 107.637 11.8531L107.751 11.9062C107.896 11.9771 108.038 12.0555 108.175 12.1412L108.365 12.2625C108.365 12.2625 108.577 12.4218 108.479 12.3459C108.38 12.2701 108.562 12.4218 108.592 12.4445L108.782 12.6189C108.903 12.7275 109.017 12.8441 109.123 12.9677C109.123 12.9677 109.237 13.1421 109.267 13.1421C109.298 13.1421 109.169 13.0056 109.222 13.089L109.32 13.2179C109.516 13.5083 109.686 13.8153 109.828 14.1353C109.828 14.1353 109.881 14.2642 109.828 14.1353C109.775 14.0064 109.828 14.1732 109.828 14.196L109.919 14.4386L110.079 14.9618C110.079 15.1286 110.162 15.2954 110.192 15.4622L110.238 15.72V15.864C110.238 16.0384 110.238 15.7655 110.238 15.864C110.326 16.69 110.346 17.5217 110.298 18.351C110.298 18.5903 110.393 18.8198 110.563 18.989C110.732 19.1582 110.961 19.2533 111.201 19.2533C111.438 19.2457 111.663 19.1482 111.83 18.9806C111.998 18.813 112.095 18.5879 112.103 18.351C112.148 18.0022 112.186 17.6534 112.232 17.3122C112.232 17.1303 112.232 17.2743 112.232 17.3122V17.1909C112.232 17.1075 112.232 17.0317 112.232 16.9483C112.232 16.8649 112.285 16.5768 112.323 16.3948C112.433 15.6943 112.592 15.0026 112.8 14.3249C112.854 14.1581 112.914 13.9913 112.975 13.832C112.998 13.7571 113.026 13.6836 113.058 13.6121C113.061 13.5819 113.061 13.5514 113.058 13.5212C113.058 13.5212 112.99 13.6728 113.058 13.5212C113.177 13.2484 113.311 12.9826 113.46 12.725C113.601 12.4631 113.758 12.2099 113.93 11.9668L113.983 11.891C113.983 11.891 113.877 12.0275 113.983 11.891L114.105 11.7394L114.415 11.3982L114.772 11.0646L114.946 10.9205C114.946 10.9205 115.052 10.8447 114.946 10.9205C114.84 10.9963 114.946 10.9205 114.984 10.9205C115.259 10.7251 115.551 10.5551 115.856 10.4125C116.046 10.3024 116.188 10.1265 116.257 9.91828C116.325 9.71002 116.315 9.48387 116.228 9.28275C116.139 9.08368 115.984 8.92208 115.788 8.82638C115.593 8.73069 115.37 8.70703 115.159 8.75958C115.416 8.72167 115.159 8.75958 115.068 8.75958C114.977 8.77092 114.885 8.77092 114.795 8.75958C115.045 8.8354 114.795 8.75958 114.711 8.75958L114.453 8.68375C114.355 8.64584 114.37 8.64584 114.453 8.68375L114.332 8.62311C114.25 8.58504 114.171 8.53936 114.097 8.48663C114.017 8.44304 113.941 8.39227 113.87 8.33498C114.044 8.48662 113.816 8.28192 113.786 8.25159C113.65 8.12446 113.523 7.98761 113.407 7.84215C113.544 8.01654 113.354 7.75875 113.331 7.72842C113.308 7.69809 113.225 7.5616 113.18 7.4782C113.076 7.31213 112.982 7.13996 112.899 6.96262C112.861 6.87163 112.816 6.78066 112.785 6.68967C112.869 6.90197 112.747 6.60626 112.732 6.56835C112.124 4.94433 111.673 3.26616 111.383 1.55655C111.324 1.34655 111.191 1.16517 111.008 1.0465C110.825 0.927825 110.605 0.880018 110.389 0.912062C110.177 0.943227 109.983 1.05029 109.844 1.2134C109.704 1.37651 109.629 1.58462 109.631 1.79918C109.65 2.14517 109.65 2.49194 109.631 2.83793C109.631 3.00474 109.631 3.17155 109.631 3.33836C109.643 3.41119 109.643 3.48541 109.631 3.55824C109.684 3.46726 109.631 3.39142 109.631 3.49757C109.635 3.56069 109.635 3.62401 109.631 3.68713C109.578 4.01727 109.504 4.3439 109.411 4.66523C109.366 4.82445 109.313 4.98368 109.26 5.14291C109.207 5.30213 109.199 5.30213 109.176 5.37795L109.131 5.49927C109.131 5.49927 109.047 5.6964 109.131 5.56751C109.214 5.43861 109.078 5.68882 109.062 5.71157C109.032 5.79191 108.996 5.87039 108.956 5.94661C108.881 6.10584 108.797 6.25748 108.706 6.4167C108.546 6.71129 108.366 6.99497 108.168 7.2659L108.016 7.47063C107.925 7.59953 108.016 7.47062 108.016 7.43271C108.016 7.39479 107.963 7.50853 107.94 7.53128C107.827 7.67534 107.713 7.80424 107.592 7.94072C107.357 8.19093 107.106 8.43354 106.833 8.66101L106.621 8.843L106.522 8.92639C106.432 8.99463 106.667 8.81266 106.522 8.92639C106.378 9.04012 106.219 9.14628 106.06 9.24485C105.726 9.46341 105.377 9.65604 105.014 9.82107C104.807 9.94429 104.657 10.1436 104.596 10.3762C104.535 10.6087 104.568 10.8559 104.688 11.0646C104.815 11.2668 105.014 11.4125 105.246 11.4717C105.477 11.531 105.722 11.4992 105.931 11.383L105.999 11.4058Z" fill="#362D2A"/>
<path d="M8.50656 41.3252C7.92333 40.596 7.49039 39.7585 7.23276 38.861C6.7497 37.4303 6.37456 35.9653 6.11058 34.4785C6.23951 36.2871 5.82194 38.0927 4.91203 39.661C4.00212 41.2294 2.6419 42.4881 1.00781 43.2738L1.18219 43.4254C2.95641 43.0236 4.82161 44.1836 5.73147 45.7001C6.56825 47.3358 6.90326 49.1822 6.69442 51.0076C6.81932 49.3198 7.16344 47.6554 7.71803 46.0564C8.28628 44.4452 9.45031 43.1129 10.9708 42.3336C10.5087 42.3814 10.0421 42.3144 9.61218 42.1385C9.1823 41.9625 8.80251 41.6832 8.50656 41.3252Z" fill="#FFC055"/>
<path d="M1.47077 44.0536C2.84144 43.3835 4.03979 42.4073 4.9732 41.2004C5.90662 39.9935 6.55016 38.5883 6.85411 37.0931C7.02826 36.2328 7.08182 35.3524 7.01331 34.4773L5.23911 34.7199C5.49965 36.1919 5.87224 37.6417 6.35366 39.0569C6.70905 40.5022 7.54275 41.7848 8.71929 42.6963C9.45863 43.1775 10.3504 43.3666 11.2214 43.2271C10.9864 42.6736 10.7513 42.1277 10.5238 41.5742C7.91559 42.7722 6.66455 45.6458 6.17929 48.3147C6.01248 49.2094 5.90633 50.1193 5.79259 51.0291H7.60474C7.74743 49.3148 7.4878 47.5908 6.84652 45.9946C6.53572 45.2605 6.08205 44.5956 5.51192 44.0385C4.94179 43.4814 4.26657 43.0432 3.52554 42.7494C2.68859 42.4312 1.77723 42.3627 0.902106 42.5523C0.671562 42.6177 0.476174 42.7715 0.358343 42.9802C0.240512 43.1889 0.209788 43.4356 0.272822 43.6669C0.341646 43.8952 0.495987 44.0882 0.703668 44.2054C0.911348 44.3227 1.15629 44.3552 1.38737 44.2962H1.60729C1.7286 44.2962 1.42531 44.2962 1.55421 44.2962H1.64519C1.81199 44.2962 1.98637 44.2962 2.15318 44.2962H2.24416C2.37306 44.2962 2.06218 44.2583 2.19108 44.2962L2.4034 44.3417C2.56057 44.373 2.71516 44.4161 2.8659 44.4706C2.93237 44.5004 3.00078 44.5257 3.07063 44.5464C2.94932 44.5464 2.94932 44.4857 3.07063 44.5464L3.18434 44.5995C3.32737 44.6704 3.46656 44.7489 3.60135 44.8345L3.7909 44.9558C3.82881 44.9558 4.00322 45.115 3.91224 45.0392C3.82125 44.9634 3.99565 45.1151 4.0184 45.1378L4.2155 45.3122C4.33681 45.4183 4.44297 45.5397 4.5567 45.661C4.67043 45.7823 4.67044 45.8353 4.70076 45.8353C4.73109 45.8353 4.59462 45.6989 4.65527 45.7823L4.75385 45.9112C4.94958 46.2016 5.11954 46.5086 5.26184 46.8286C5.26184 46.8286 5.31491 46.9575 5.26184 46.8286C5.20876 46.6997 5.26184 46.8665 5.26184 46.8893C5.26184 46.912 5.32253 47.0485 5.34527 47.1319C5.36802 47.2153 5.45898 47.4807 5.51206 47.6551L5.62581 48.1555L5.6713 48.4133V48.5574C5.6713 48.7317 5.6713 48.4588 5.6713 48.5574C5.76104 49.3832 5.77881 50.2153 5.72438 51.0443C5.72833 51.2837 5.82567 51.512 5.99566 51.6806C6.16565 51.8492 6.3948 51.9446 6.6342 51.9465C6.87109 51.939 7.09622 51.8415 7.26381 51.6739C7.4314 51.5063 7.52889 51.2812 7.53648 51.0443C7.58197 50.6955 7.61991 50.3467 7.66541 50.0055C7.66541 49.8235 7.66541 50.0055 7.66541 50.0055C7.66865 49.9651 7.66865 49.9246 7.66541 49.8842C7.66541 49.8008 7.66541 49.725 7.66541 49.6416C7.66541 49.5582 7.71847 49.2701 7.7488 49.0881C7.86387 48.388 8.026 47.6964 8.23407 47.0182C8.28714 46.8513 8.34778 46.6845 8.40844 46.5253C8.43165 46.4504 8.45949 46.3769 8.49183 46.3055C8.50768 46.2766 8.52038 46.246 8.52973 46.2144C8.52973 46.2144 8.4615 46.3661 8.52973 46.2144C8.64844 45.9417 8.78263 45.6759 8.93161 45.4183C9.07298 45.1564 9.22996 44.9032 9.4017 44.6601L9.45478 44.5843C9.45478 44.5843 9.34863 44.7208 9.45478 44.5843L9.57607 44.4327L9.88697 44.0915L10.2433 43.7578L10.4177 43.6138C10.4177 43.6138 10.5239 43.538 10.4177 43.6138C10.3116 43.6896 10.4177 43.6138 10.4556 43.6138C10.7303 43.4184 11.0221 43.2484 11.3275 43.1058C11.5159 42.9945 11.6575 42.8186 11.7258 42.6108C11.7942 42.403 11.7847 42.1774 11.6991 41.976C11.611 41.777 11.4554 41.6154 11.2599 41.5197C11.0643 41.424 10.8413 41.4003 10.63 41.4529C10.8878 41.415 10.5921 41.4529 10.539 41.4529C10.4484 41.4642 10.3567 41.4642 10.2661 41.4529C10.5163 41.5287 10.2282 41.4529 10.1827 41.4529L9.92487 41.3695C9.8263 41.3695 9.83388 41.3695 9.92487 41.3695L9.80357 41.3088C9.72114 41.2707 9.64245 41.2251 9.56853 41.1723C9.48714 41.1307 9.41078 41.0798 9.34103 41.0207C9.51542 41.1723 9.28796 40.9676 9.25764 40.9373C9.12154 40.8102 8.99483 40.6733 8.87853 40.5278C9.01501 40.6947 8.82547 40.4444 8.80273 40.4141L8.64349 40.1639C8.54492 39.9971 8.45394 39.8227 8.37054 39.6483L8.2492 39.3754C8.34019 39.5877 8.2492 39.2844 8.20371 39.2541C7.59592 37.63 7.14404 35.9519 6.85411 34.2423C6.7922 34.0341 6.65788 33.855 6.47542 33.7372C6.29297 33.6194 6.07441 33.5708 5.85923 33.6001C5.64406 33.6294 5.44646 33.7347 5.30214 33.897C5.15782 34.0592 5.07628 34.2678 5.07228 34.4849C5.095 34.8308 5.095 35.1778 5.07228 35.5237C5.07228 35.6905 5.07228 35.8572 5.07228 36.0241C5.08763 36.0965 5.08763 36.1715 5.07228 36.2439C5.12536 36.153 5.07228 36.0771 5.07228 36.1833C5.07651 36.2464 5.07651 36.3097 5.07228 36.3728C5.01791 36.7028 4.94451 37.0294 4.85242 37.3509C4.80692 37.5102 4.75384 37.6694 4.70076 37.8286L4.60978 38.0637L4.56429 38.185V38.2456C4.61737 38.1167 4.51124 38.3745 4.49608 38.3973C4.48091 38.42 4.42783 38.5565 4.38992 38.6247C4.35201 38.693 4.23068 38.9432 4.13969 39.1024C3.97635 39.3954 3.79661 39.6789 3.60135 39.9516L3.44974 40.1563C3.35875 40.2852 3.44974 40.1563 3.44974 40.1184C3.42009 40.1497 3.39221 40.1826 3.3663 40.217C3.26015 40.3535 3.13887 40.4899 3.02514 40.6264C2.7901 40.8766 2.53989 41.1193 2.26693 41.3467L2.05461 41.5287L1.95603 41.6045C1.86505 41.6803 2.1001 41.4984 1.95603 41.6045C1.81197 41.7107 1.65276 41.832 1.49354 41.9305C1.16001 42.1491 0.810202 42.3418 0.447197 42.5068C0.240769 42.63 0.0909754 42.8293 0.0300031 43.0619C-0.0309691 43.2944 0.00175793 43.5416 0.12117 43.7503C0.24825 43.9525 0.448069 44.0982 0.679418 44.1575C0.910767 44.2167 1.15603 44.1849 1.36465 44.0687L1.47077 44.0536Z" fill="#362D2A"/>
<path d="M128.637 29.4968C128.124 28.8551 127.743 28.1181 127.515 27.3283C127.089 26.0713 126.76 24.7837 126.53 23.4766C126.642 25.0669 126.274 26.6543 125.474 28.0332C124.673 29.4121 123.478 30.5189 122.041 31.2104L122.193 31.3468C122.988 31.2302 123.801 31.362 124.518 31.7244C125.236 32.0867 125.825 32.6619 126.204 33.3712C126.938 34.8059 127.231 36.4258 127.045 38.0267C127.162 36.5438 127.465 35.0816 127.947 33.6745C128.445 32.2587 129.469 31.0886 130.806 30.4066C130.398 30.4456 129.986 30.383 129.607 30.2242C129.229 30.0655 128.896 29.8156 128.637 29.4968Z" fill="#FFC055"/>
<path d="M122.505 32.0209C123.725 31.4249 124.791 30.5561 125.62 29.4819C126.45 28.4076 127.021 27.1568 127.29 25.8263C127.447 25.0636 127.496 24.2824 127.434 23.5061L125.659 23.7488C125.935 25.4484 126.408 27.1101 127.07 28.6999C127.396 29.4814 127.918 30.1655 128.586 30.6864C128.905 30.9288 129.265 31.1136 129.648 31.2323C130.106 31.3634 130.588 31.3893 131.058 31.3082L130.36 29.6477C129.004 30.3423 127.932 31.4869 127.327 32.8852C126.672 34.5381 126.275 36.2824 126.152 38.0563H127.964C128.094 36.5404 127.874 35.015 127.32 33.598C127.037 32.9322 126.623 32.3304 126.101 31.8287C125.58 31.3271 124.963 30.936 124.287 30.6788C123.537 30.3832 122.714 30.3224 121.929 30.5044C121.814 30.5352 121.707 30.5883 121.613 30.6606C121.519 30.7329 121.44 30.823 121.381 30.9259C121.322 31.0287 121.283 31.1422 121.268 31.2598C121.253 31.3774 121.261 31.4969 121.292 31.6114C121.361 31.8401 121.515 32.0337 121.722 32.1522C121.93 32.2707 122.175 32.3051 122.407 32.2483C122.47 32.2394 122.534 32.2267 122.596 32.2104C122.596 32.2104 122.407 32.2104 122.513 32.2104H122.604C122.75 32.1953 122.897 32.1953 123.044 32.2104H123.135C123.241 32.2104 123.051 32.2104 123.051 32.2104C123.111 32.2268 123.172 32.2394 123.233 32.2483C123.378 32.2772 123.52 32.3178 123.658 32.3697C123.716 32.3975 123.777 32.4179 123.84 32.4303C123.84 32.4303 123.68 32.3621 123.764 32.4303L123.855 32.4682C123.99 32.5341 124.122 32.6075 124.249 32.6881C124.34 32.7412 124.461 32.8777 124.568 32.908L124.507 32.8625L124.583 32.9231L124.772 33.0975C124.869 33.1879 124.96 33.2841 125.045 33.3857C125.045 33.3857 125.144 33.5297 125.167 33.5297V33.4766L125.242 33.5828C125.415 33.8195 125.562 34.0736 125.682 34.341C125.702 34.3716 125.717 34.4048 125.728 34.4396C125.728 34.4396 125.659 34.2652 125.728 34.4396L125.803 34.6443C125.859 34.7959 125.905 34.9476 125.94 35.0992C125.985 35.2585 126.023 35.4101 126.054 35.5693C126.084 35.7285 126.054 35.7134 126.092 35.7892C126.129 35.865 126.092 35.8574 126.092 35.8954C126.092 35.9333 126.092 36.0773 126.092 35.956C126.092 35.8347 126.092 35.956 126.092 35.956C126.088 36.0039 126.088 36.0521 126.092 36.1001V36.3958C126.092 36.5727 126.092 36.7471 126.092 36.9189C126.092 37.293 126.092 37.6645 126.092 38.0335C126.092 38.2735 126.186 38.5038 126.355 38.6742C126.524 38.8446 126.754 38.9414 126.994 38.9434C127.233 38.9358 127.46 38.8375 127.629 38.6685C127.798 38.4995 127.896 38.2724 127.904 38.0335C127.904 37.8212 127.949 37.6165 127.98 37.4042C128.01 37.1919 127.979 37.1919 128.017 37.0858C128.017 37.2526 128.017 37.0857 128.017 37.0099C128.07 36.6157 128.131 36.2517 128.215 35.8271C128.298 35.4025 128.381 35.0689 128.495 34.6746C128.556 34.4851 128.616 34.2955 128.685 34.106C128.753 33.9164 128.745 33.9467 128.783 33.8633C128.821 33.7799 128.783 33.7799 128.783 33.8633C128.798 33.824 128.815 33.786 128.836 33.7496C128.969 33.4482 129.124 33.1568 129.299 32.8777C129.382 32.7412 129.473 32.6199 129.564 32.491C129.59 32.4538 129.617 32.4183 129.648 32.3848L129.814 32.1877L130.133 31.8616L130.33 31.6873L130.429 31.6039C130.485 31.571 130.538 31.533 130.588 31.4901L130.808 31.3537C130.955 31.2609 131.11 31.1797 131.27 31.111C131.458 30.9998 131.6 30.8238 131.668 30.616C131.737 30.4082 131.727 30.1826 131.642 29.9813C131.555 29.7808 131.4 29.6176 131.204 29.5204C131.009 29.4233 130.785 29.3985 130.573 29.4505C130.823 29.4505 130.527 29.4505 130.474 29.4505H130.338H130.444C130.286 29.4355 130.133 29.3945 129.989 29.3292L129.867 29.2686L129.685 29.1624L129.572 29.0866C129.496 29.0259 129.503 29.0335 129.572 29.0866C129.511 29.0866 129.458 28.988 129.413 28.9501L129.223 28.753C129.223 28.7151 129.049 28.5483 129.223 28.7151C129.118 28.5813 129.024 28.4393 128.942 28.2905C128.859 28.1464 128.783 27.9948 128.707 27.8431L128.639 27.6915C128.62 27.6346 128.597 27.5789 128.571 27.5247C128.04 26.0991 127.644 24.6268 127.388 23.127C127.326 22.9189 127.192 22.7397 127.009 22.622C126.827 22.5042 126.608 22.4556 126.393 22.4849C126.178 22.5142 125.98 22.6195 125.836 22.7817C125.692 22.944 125.61 23.1525 125.606 23.3697C125.629 23.67 125.629 23.9716 125.606 24.2719C125.606 24.4236 125.606 24.5676 125.606 24.7117C125.606 24.8558 125.606 24.8558 125.606 24.9316C125.606 25.0074 125.606 24.742 125.606 24.8406V24.9998C125.555 25.286 125.489 25.5695 125.409 25.849C125.409 25.9855 125.326 26.1295 125.28 26.266L125.204 26.4708C125.204 26.4708 125.098 26.7513 125.144 26.6224C125.189 26.4935 125.144 26.7134 125.091 26.7437L125 26.9408C124.931 27.0849 124.856 27.2214 124.78 27.3579C124.634 27.6204 124.472 27.8736 124.295 28.1161C124.261 28.1827 124.217 28.2441 124.166 28.2981L124.211 28.2374C124.182 28.2669 124.156 28.3 124.135 28.336C124.037 28.4573 123.931 28.571 123.824 28.6923C123.629 28.9059 123.421 29.1084 123.203 29.2989L123.013 29.4657L122.915 29.5415C122.786 29.6477 123.013 29.4657 122.915 29.5415C122.783 29.6419 122.646 29.7355 122.505 29.8221C122.217 30.0109 121.916 30.1781 121.603 30.3225C121.397 30.4443 121.247 30.6422 121.186 30.8735C121.125 31.1048 121.158 31.3509 121.277 31.5584C121.403 31.7618 121.602 31.9092 121.833 31.9698C122.065 32.0305 122.311 31.9999 122.52 31.8844L122.505 32.0209Z" fill="#362D2A"/>
<path d="M61.3711 50.2885L61.2574 49.3255V49.2573C61.2574 49.1815 61.2574 49.0981 61.2574 49.0222C61.2574 48.9464 61.2118 48.7038 61.1815 48.537C60.9735 47.2401 60.7002 45.9546 60.3627 44.6853C60.0038 43.3508 59.5893 42.0391 59.1192 40.7501C58.869 40.0753 58.6112 39.4005 58.361 38.7333L58.2245 38.3997L58.1563 38.248C58.0956 38.0888 58.0273 37.9296 57.9591 37.7704L57.5345 36.8226C57.2924 36.2752 57.0164 35.7434 56.7081 35.2303C56.5413 34.9498 56.3593 34.6693 56.1697 34.4039L55.8968 34.0172L55.8058 33.9035L55.7072 33.7746C55.3138 33.2772 54.891 32.8037 54.441 32.3567C54.2237 32.1393 53.9962 31.9271 53.7586 31.7198L53.4098 31.4317L53.2885 31.3331L53.1824 31.2573C52.7069 30.9174 52.1989 30.6253 51.6659 30.3854L51.3551 30.2489L51.2186 30.1882L50.885 30.0517C50.5666 29.9304 50.2481 29.8243 49.9221 29.7181C49.2732 29.5171 48.6122 29.3575 47.9431 29.2405L47.6095 29.1798H47.4655L47.0181 29.1267C46.7148 29.1267 46.404 29.0812 46.0931 29.0736C45.6789 29.051 45.2638 29.051 44.8496 29.0736L45.1832 29.2101C46.3134 29.667 47.3912 30.244 48.398 30.9313C50.3427 32.4385 51.9493 34.337 53.1142 36.5041C54.3648 38.6717 55.3985 40.9574 56.2001 43.3281C57.8431 48.0307 58.3624 53.0526 57.7165 57.9919C57.3742 60.4329 56.6635 62.8079 55.6087 65.0357C54.7072 66.9099 53.5289 68.6378 52.1133 70.1613C50.6999 71.6912 49.0793 73.0158 47.2986 74.0964C47.9355 74.0054 48.5724 73.9068 49.2017 73.7855C50.3802 73.5593 51.5369 73.232 52.6592 72.8074L52.9397 72.7013H52.9928L53.4023 72.5193L54.1605 72.1554C54.4335 72.0037 54.7064 71.8445 54.9717 71.6701L55.3281 71.4275L55.5025 71.2986H55.548C56.0363 70.9164 56.4835 70.4844 56.8825 70.0096C57.3146 69.5623 57.7393 69.0998 58.1411 68.6221C58.2245 68.5159 58.3079 68.4174 58.3837 68.3112L58.4899 68.1671C58.6339 67.9776 58.7628 67.7805 58.8917 67.5833C59.1265 67.216 59.3367 66.8335 59.521 66.4384L59.5893 66.2716C59.6272 66.1882 59.6575 66.1048 59.6879 66.0214C59.7637 65.8167 59.8395 65.612 59.9077 65.3997C60.0518 64.9372 60.1807 64.4671 60.2944 63.997C60.628 62.6827 60.9061 61.3584 61.1285 60.0239L61.2877 58.97V58.8563V58.6516C61.2877 58.4999 61.2877 58.3483 61.3408 58.1966C61.4166 57.537 61.4696 56.8849 61.5151 56.2253C61.5834 54.9069 61.5834 53.5858 61.5151 52.2674C61.4848 51.5623 61.4317 50.9254 61.3711 50.2885Z" fill="#FF7AAE"/>
<path d="M47.9433 71.3406L48.0949 71.2268L48.33 71.0373C49.1136 70.4141 49.8509 69.735 50.5364 69.0053C50.8851 68.6337 51.2188 68.2471 51.5372 67.8604C51.613 67.7618 51.6964 67.6632 51.7723 67.5571L51.886 67.4054C52.0225 67.2159 52.1665 67.0187 52.2954 66.8292C52.8649 66.0198 53.3719 65.1681 53.8119 64.2816C53.9408 64.0238 54.062 63.7584 54.1758 63.5234V63.4627L54.2365 63.3262C54.2971 63.1822 54.3502 63.0457 54.4032 62.9016C54.6155 62.3557 54.8051 61.8022 54.9795 61.2488C55.3109 60.1355 55.5643 59.0005 55.7377 57.8519L55.7832 57.5487L55.8287 57.1468C55.8287 56.8739 55.8894 56.5933 55.9121 56.3204C55.9576 55.7391 55.9879 55.1552 56.0031 54.5689C56.0248 53.3967 55.9742 52.2243 55.8515 51.0584C55.8515 50.7475 55.7984 50.4442 55.7453 50.1409C55.7453 50.3836 55.7453 50.1409 55.7453 50.0878C55.7453 50.0348 55.7453 49.9362 55.7453 49.8604C55.7453 49.7845 55.7074 49.6026 55.6846 49.4737C55.5936 48.8899 55.4799 48.306 55.3586 47.7298C55.1008 46.5546 54.7824 45.3945 54.4108 44.2496C54.2213 43.6733 54.0166 43.1047 53.7967 42.536C53.6905 42.2479 53.5768 41.9598 53.4555 41.6717C53.4555 41.6262 53.4176 41.5731 53.3948 41.5276C53.4858 41.7399 53.3948 41.5276 53.3948 41.467C53.3948 41.4063 53.2735 41.1864 53.2053 41.0424C52.7251 39.9657 52.1968 38.9118 51.6206 37.8806C51.3401 37.3878 51.0444 36.8949 50.7335 36.4173C50.5743 36.167 50.4075 35.9168 50.2407 35.659L50.0208 35.3558L49.8843 35.1814L49.8236 35.0904C49.1754 34.2074 48.4102 33.4167 47.549 32.7399L47.4277 32.6565L47.2685 32.5276L46.9045 32.2774C46.6771 32.1333 46.442 31.9969 46.2069 31.8756C45.661 31.5799 45.1 31.3145 44.5313 31.0567L44.0233 30.8292H43.9627L43.8262 30.7761C43.5608 30.6624 43.2879 30.5638 43.0149 30.4729C42.448 30.2771 41.8677 30.1225 41.2786 30.0103L40.9677 29.9648H40.8995H40.4976C40.2019 29.9648 39.9062 29.9648 39.6029 29.9648C39.0343 29.9648 38.4656 29.9648 37.9045 30.0103L37.0174 30.0786L36.5701 30.1241H36.4032C35.8264 30.2104 35.2544 30.3268 34.6897 30.4729C34.0831 30.6321 33.4993 30.8444 32.9079 31.0643L32.8093 31.1022L32.5819 31.2083L32.1497 31.413C31.8388 31.5647 31.5431 31.7315 31.2398 31.9059C31.1109 31.9818 30.9648 32.0235 30.8152 32.0272C30.5195 32.2016 30.2314 32.376 29.9433 32.5655C29.6552 32.7551 29.4353 32.9143 29.1851 33.0963L28.9349 33.2858L28.8287 33.3692L28.6467 33.5133C28.1842 33.8848 27.7369 34.2715 27.3123 34.6885C26.4972 35.4771 25.7372 36.3207 25.0376 37.2134L24.977 37.2968L24.8708 37.4408L24.6433 37.7517L24.196 38.3886C23.8927 38.836 23.6046 39.2985 23.3317 39.761C22.7898 40.6982 22.3013 41.6652 21.8683 42.6573V42.7256L21.7849 42.9227C21.7849 43.0289 21.7015 43.1426 21.656 43.2488L21.383 44.007C21.2011 44.5226 21.0343 45.0381 20.8826 45.5613C20.5727 46.616 20.3196 47.6867 20.1244 48.7686C20.0789 49.0491 20.041 49.322 20.0031 49.6026C20.0031 49.6784 20.0031 49.7466 20.0031 49.8149L19.9576 50.2395C19.8969 50.7854 19.859 51.3237 19.8287 51.8696C19.768 52.9581 19.768 54.0491 19.8287 55.1376C19.8287 55.6835 19.9197 56.2294 19.9804 56.7677C19.9804 56.8435 19.9804 56.9193 19.9804 56.9952L20.0486 57.4122C20.0865 57.67 20.132 57.9278 20.1775 58.1704C20.3658 59.2412 20.619 60.2996 20.9357 61.3397C21.0949 61.8477 21.2693 62.3557 21.4589 62.8562C21.5575 63.114 21.656 63.3793 21.7697 63.6144V63.6523C21.7929 63.7174 21.8208 63.7807 21.8531 63.8418C21.8986 63.9556 21.9441 64.0617 21.9972 64.1679C22.4396 65.1431 22.9461 66.0879 23.5136 66.996C23.7942 67.4509 24.0899 67.8907 24.4083 68.3229C24.4993 68.4594 24.5979 68.5883 24.6964 68.7172L24.795 68.8536C24.9542 69.0508 25.1135 69.2479 25.2803 69.4375C25.9749 70.2567 26.7357 71.0175 27.5549 71.7121L27.9188 72.0154L28.0857 72.1443C28.2676 72.2959 28.4648 72.4248 28.6619 72.5613C29.1017 72.8646 29.5566 73.1527 30.0191 73.4181C30.4816 73.6834 30.9517 73.9109 31.437 74.1232L31.6265 74.199L31.9904 74.3355C32.2103 74.4189 32.4302 74.4947 32.6577 74.563C33.1152 74.7134 33.5811 74.8374 34.0528 74.9345C34.303 74.9876 34.5456 75.0331 34.811 75.071C34.9132 75.0781 35.0145 75.0934 35.1143 75.1165H35.2963C36.2481 75.2201 37.207 75.2403 38.1623 75.1771L38.9205 75.1089H39.1101H39.1707C38.9964 75.1089 39.1708 75.1089 39.2238 75.1089H39.4134C39.8911 75.0331 40.3611 74.9345 40.8312 74.8208C41.7753 74.5939 42.7005 74.2948 43.5987 73.9261C43.6669 73.9261 43.9172 73.8427 43.6594 73.9261C43.7213 73.9041 43.7821 73.8787 43.8413 73.8503L44.1294 73.7138C44.3417 73.6228 44.5541 73.5167 44.7664 73.4105C45.2061 73.1906 45.6383 72.9556 46.0553 72.7053C46.4724 72.4551 46.8969 72.1898 47.3064 71.9092L47.9433 71.3406ZM41.8093 54.713C41.6099 55.7226 41.0356 56.6193 40.2019 57.2226C39.202 57.8042 38.0599 58.0956 36.9037 58.0642C35.1295 58.178 33.3477 58.2766 31.5962 58.3827C31.2046 58.5903 30.7822 58.7337 30.3451 58.8073C29.2169 58.9963 28.058 58.7844 27.0696 58.2083C26.1229 57.6681 25.3532 56.8647 24.8539 55.8957C24.3546 54.9267 24.1471 53.8337 24.2567 52.7492C24.3865 51.7479 24.7231 50.7846 25.2452 49.9205C25.7674 49.0564 26.4636 48.3104 27.2896 47.7298C27.3199 47.6317 27.3697 47.5409 27.4362 47.4627C27.5027 47.3845 27.5843 47.3206 27.6762 47.2749C28.1933 47.0251 28.7627 46.9029 29.3367 46.9185C31.6568 46.5091 33.9922 46.2083 36.3426 46.0162C37.5027 45.9177 38.7158 45.857 39.7015 46.5925C40.4983 47.2288 41.0762 48.0984 41.3544 49.0794C41.629 49.9816 41.8144 50.9085 41.9079 51.8469C42.0307 52.8013 41.9974 53.7693 41.8093 54.713Z" fill="#FFEAEA"/>
<path d="M39.9734 51.9159C39.978 51.8503 39.978 51.7844 39.9734 51.7188C39.9734 51.7188 39.9734 51.969 39.9734 51.787L39.9279 51.4761C39.8596 51.0743 39.7914 50.68 39.6928 50.2858C39.6397 50.0735 39.5867 49.8611 39.5184 49.6488L39.4274 49.3835C39.4244 49.3532 39.4244 49.3227 39.4274 49.2925C39.369 49.1876 39.3184 49.0787 39.2758 48.9664L39.1469 48.7314L39.0028 48.5115L38.9422 48.4357C38.8727 48.3587 38.7993 48.2853 38.7223 48.2158L38.6313 48.14L38.4266 48.0187L38.3584 47.9808C38.2295 47.9808 38.0854 47.8974 37.9565 47.8671H37.7518C37.4993 47.8516 37.2461 47.8516 36.9936 47.8671C36.4098 47.905 35.8183 47.958 35.2345 48.0187C34.6507 48.0793 34.0593 48.14 33.4679 48.2082L33.0281 48.2613H32.8082H32.7172H32.4746C33.1084 48.8621 33.6229 49.5773 33.991 50.3691C34.5296 51.5232 34.7344 52.8049 34.5825 54.0692C34.4828 54.8511 34.2248 55.6044 33.8243 56.2832C35.0146 56.215 36.2126 56.1392 37.403 56.0558H37.7745H37.9565C38.1735 56.0212 38.3886 55.9756 38.601 55.9193L38.8436 55.8359H38.9498H38.8512C38.9119 55.8359 39.1317 55.6918 39.1772 55.6691L39.2985 55.5857H39.344L39.4881 55.4416L39.6094 55.3127C39.6468 55.2525 39.6872 55.1943 39.7307 55.1383C39.7836 55.0565 39.8293 54.9703 39.8672 54.8805C39.8672 54.8805 39.943 54.6834 39.8672 54.835C39.7914 54.9867 39.8672 54.835 39.8672 54.782C39.9343 54.5934 39.99 54.4009 40.034 54.2057C40.0332 54.1053 40.0485 54.0055 40.0795 53.91C40.0836 53.8773 40.0836 53.8442 40.0795 53.8114C40.1098 53.395 40.1098 52.9769 40.0795 52.5604C40.0189 52.3405 39.9961 52.1282 39.9734 51.9159Z" fill="#FF7AAE"/>
<path d="M32.6012 52.8346C32.6012 52.8346 32.6012 52.8346 32.6012 52.774C32.5828 52.5469 32.537 52.3228 32.4648 52.1067C32.4059 51.8607 32.3273 51.6198 32.2297 51.3864V51.3333C32.2297 51.2803 32.1766 51.2196 32.1463 51.159C32.116 51.0983 32.0477 50.9618 31.9947 50.8557C31.8698 50.6337 31.7332 50.4185 31.5852 50.2112C31.4867 50.1505 31.5018 50.1278 31.5852 50.1657L31.5398 50.105L31.3198 49.8548C31.1814 49.6872 31.0207 49.5392 30.8422 49.4151H30.7891L30.683 49.3393L30.3948 49.1573L30.0764 48.998L29.9627 48.9601C29.8638 48.9228 29.7625 48.8924 29.6594 48.8691H29.5153H29.4623L28.9618 48.9601L28.8784 49.0208C28.6571 49.1456 28.4443 49.2849 28.2415 49.4378L28.1733 49.4985L28.0747 49.5895C27.9686 49.6729 27.87 49.7714 27.7714 49.8624C27.5922 50.0402 27.4226 50.2275 27.2634 50.4235C27.2246 50.4644 27.1914 50.5103 27.1648 50.56C27.089 50.6585 27.0208 50.7647 26.9526 50.8708C26.8219 51.0815 26.7029 51.2992 26.5962 51.5229C26.5678 51.577 26.5425 51.6327 26.5204 51.6897C26.5204 51.6897 26.5204 51.6897 26.5204 51.7276C26.5204 51.7655 26.4445 51.9399 26.4142 52.0461C26.3318 52.2931 26.2709 52.5467 26.2323 52.8043V52.8422C26.2323 52.8877 26.2323 52.9332 26.2323 52.9711C26.2323 53.009 26.2323 53.2213 26.2323 53.3426C26.2247 53.4663 26.2247 53.5904 26.2323 53.7141C26.2323 53.7672 26.2323 53.8203 26.2323 53.8734C26.2323 53.9264 26.2323 53.9795 26.2323 53.9795C26.2702 54.1312 26.2929 54.298 26.3384 54.4496C26.3839 54.6012 26.3991 54.6012 26.4218 54.6771C26.4446 54.7529 26.4218 54.6771 26.4218 54.7756L26.49 54.9121C26.5775 55.0837 26.6736 55.2507 26.7781 55.4125C26.8161 55.4732 26.8616 55.5263 26.9071 55.5869C26.9687 55.6687 27.0344 55.7471 27.1042 55.822C27.2356 55.9636 27.3748 56.0978 27.5212 56.2238C27.5212 56.2238 27.6956 56.3603 27.6577 56.3376L27.9003 56.4968C28.0444 56.5802 28.2036 56.6484 28.3477 56.7242L28.4159 56.7697L28.5903 56.8304L28.7571 56.8759C28.9381 56.7208 29.1639 56.6278 29.4016 56.6105L31.0014 56.5195L31.1076 56.4513H31.1682C31.3265 56.3306 31.4714 56.1934 31.6004 56.0419L31.8203 55.7916L31.8582 55.7537L31.9113 55.6703C32.0325 55.4894 32.1438 55.3021 32.2449 55.1092C32.2449 55.0638 32.2449 55.0258 32.298 54.9879C32.3188 54.9489 32.3366 54.9084 32.351 54.8666L32.3056 54.9728C32.3593 54.8873 32.3953 54.7919 32.4117 54.6922C32.4868 54.4597 32.5427 54.2213 32.5785 53.9795C32.5821 53.9214 32.5821 53.8632 32.5785 53.8051C32.5785 53.699 32.5785 53.5852 32.5785 53.4715C32.5861 53.3326 32.5861 53.1934 32.5785 53.0545C32.6088 52.9332 32.6012 52.8801 32.6012 52.8346Z" fill="#FFEAEA"/>
<path d="M90.0228 60.9308L90.4701 60.529C90.7685 60.243 91.0519 59.9418 91.3193 59.6267L91.5392 59.3538L91.6074 59.2703C91.7363 59.0959 91.8652 58.9291 91.9865 58.7472C92.2216 58.4136 92.4414 58.0724 92.6462 57.716C93.0839 56.9799 93.4813 56.2206 93.8366 55.4414C93.9427 55.2139 94.0489 54.9788 94.1474 54.7438C94.1474 54.7059 94.2308 54.5543 94.2384 54.5391L94.337 54.304C94.519 53.8567 94.6934 53.4018 94.8602 52.9468C95.1786 52.0673 95.4667 51.1651 95.7094 50.2628C95.952 49.3605 96.1719 48.4355 96.3538 47.518C96.4448 47.0403 96.5206 46.5627 96.5965 46.085C96.5965 45.9637 96.6344 45.8424 96.6495 45.7287V45.6756C96.6495 45.6301 96.6495 45.5846 96.6495 45.5391C96.6495 45.3268 96.7026 45.1145 96.7253 44.9022C96.9349 43.0042 96.9932 41.0925 96.8998 39.1853C96.8543 38.2451 96.7633 37.3049 96.642 36.3723V36.3116V36.1524L96.5965 35.8339L96.4827 35.1516C96.4145 34.7421 96.3311 34.3327 96.2477 33.9233C96.0657 33.112 95.861 32.3007 95.6108 31.5046C95.4895 31.0951 95.353 30.6933 95.2013 30.2838C95.1331 30.0867 95.0573 29.8896 94.9815 29.6848C94.9415 29.5983 94.9061 29.5097 94.8753 29.4195C94.8544 29.3779 94.8366 29.3348 94.8222 29.2906L94.7843 29.2072V29.1238C94.7843 29.0783 94.7464 29.0328 94.7312 28.9949C94.7161 28.957 94.6403 28.7977 94.6024 28.6992L94.3446 28.1533C94.1626 27.7817 93.9655 27.395 93.7683 27.0614C93.3624 26.3348 92.909 25.6358 92.4111 24.9688L92.305 24.8247L92.1306 24.6048L91.7515 24.1499C91.4785 23.8466 91.2056 23.5433 90.9174 23.2628C90.6293 22.9822 90.326 22.6941 90.0076 22.4363L89.7422 22.2089C89.7043 22.2089 89.4389 21.9511 89.6285 22.1179C89.4857 22.0007 89.3364 21.8919 89.1812 21.7918C88.5651 21.3582 87.9102 20.9826 87.225 20.6697L86.9595 20.5484H86.8686L86.3606 20.3588C86.0042 20.2299 85.6479 20.1238 85.2915 20.0252C84.9352 19.9266 84.5333 19.8508 84.1921 19.7902L83.8812 19.7371H83.7826L83.2746 19.684C82.5382 19.6157 81.7971 19.6157 81.0607 19.684H80.7801H80.6285L80.1053 19.775C79.749 19.8508 79.4002 19.9342 79.0514 20.0404L78.5282 20.2148L78.2629 20.3133L78.1795 20.3512C77.861 20.4953 77.5501 20.6469 77.2468 20.8213C76.9267 21.0049 76.6178 21.2074 76.3218 21.4279L76.2233 21.5037L76.0337 21.663C75.8972 21.7843 75.7683 21.898 75.6394 22.0269C75.066 22.5965 74.5291 23.2017 74.032 23.839L73.8197 24.1044L73.7288 24.2181C73.6074 24.3849 73.4861 24.5442 73.3724 24.711C73.107 25.0749 72.8568 25.4692 72.6142 25.8331C72.3715 26.1971 72.1744 26.5913 71.9773 26.9401C71.8787 27.1221 71.7877 27.3116 71.6967 27.5012C71.6641 27.593 71.6235 27.6818 71.5754 27.7666C71.5754 27.7666 71.5754 27.8272 71.5754 27.85C70.859 29.6907 70.3504 31.6057 70.059 33.5593C70.0549 33.6098 70.0549 33.6605 70.059 33.711V33.764L70.0135 34.1431C70.0135 34.3782 69.968 34.6208 69.9528 34.8559C69.9124 35.3613 69.8972 35.8542 69.9073 36.3344C69.9073 36.8272 69.9074 37.3276 69.9832 37.8508L70.0287 38.2754V38.4195C70.0287 38.6697 70.1121 38.9275 70.1576 39.1777C70.1688 39.2658 70.1688 39.355 70.1576 39.4431L72.0379 39.2004C73.706 38.9881 75.3741 38.7986 77.0421 38.6318C77.8357 38.5458 78.6318 38.47 79.4305 38.4043C80.3653 38.2419 81.3262 38.3228 82.2207 38.6393C83.6537 39.2838 84.0405 41.005 84.1466 42.4304C84.2148 43.3099 84.2224 44.1971 84.2528 45.0842C84.2831 45.9713 84.5029 47.1768 83.8812 47.9805C83.569 48.358 83.1602 48.6436 82.6984 48.807C82.2738 48.989 81.8416 49.1634 81.4095 49.3226C80.5527 49.641 79.6807 49.9216 78.8012 50.1642C77.0422 50.6419 75.2528 50.9224 73.4937 51.2409L72.6142 51.4077L72.7506 51.7413L72.8037 51.8778V51.9612V52.0294C72.8207 52.0762 72.841 52.1218 72.8644 52.1659C72.9402 52.3403 73.0236 52.5222 73.0994 52.7042C73.8056 54.2816 74.6747 55.7809 75.6925 57.1777L75.8821 57.4355L75.973 57.5492L76.3446 58.0041C76.6327 58.3377 76.9284 58.6638 77.2317 58.9746C77.535 59.2855 77.8534 59.5888 78.1795 59.8769C78.3387 60.0134 78.4979 60.1574 78.6647 60.2863L78.7633 60.3622L78.9908 60.529C79.6509 61.0052 80.357 61.4142 81.0986 61.7497L81.2654 61.8255C81.3185 61.8255 81.5004 61.9165 81.5535 61.9393L82.107 62.1364C82.4899 62.2647 82.8797 62.371 83.2746 62.4548L83.8888 62.5686H83.9571H84.0025H84.2755C84.671 62.6077 85.0687 62.6204 85.4659 62.6065L86.1104 62.561C86.1862 62.561 86.444 62.4927 86.1862 62.561L86.4591 62.5231C86.8577 62.4541 87.2506 62.3552 87.6344 62.2274L87.9528 62.1136H88.0438C88.2278 62.0431 88.4054 61.9569 88.5745 61.8559C88.9373 61.6645 89.2868 61.4492 89.6209 61.2114C89.6209 61.2114 89.7877 61.1052 89.7877 61.0825C89.7877 61.0597 89.6133 61.2265 89.7877 61.0825L90.0228 60.9308Z" fill="#FFEAEA"/>
<path d="M105.93 37.025C105.93 36.9492 105.93 36.8734 105.93 36.7976C105.93 37.0478 105.93 36.7976 105.93 36.7521C105.892 36.4564 105.847 36.1607 105.794 35.8574C105.695 35.2432 105.581 34.6367 105.445 34.0301C105.173 32.8013 104.823 31.5908 104.399 30.4058C104.285 30.095 104.164 29.7765 104.042 29.4656L103.891 29.1017C103.873 29.0526 103.853 29.0045 103.83 28.9576L103.769 28.8212C103.496 28.1918 103.208 27.5777 102.897 26.9711C102.587 26.3646 102.23 25.7049 101.859 25.0832L101.578 24.6586L101.411 24.4387C101.616 24.7116 101.411 24.4387 101.351 24.3629C100.716 23.599 100.024 22.8843 99.2807 22.2247L98.6287 21.656L98.3178 21.4058L98.1738 21.2997C97.7589 20.9864 97.3259 20.6978 96.8772 20.4353C96.6649 20.314 96.445 20.2003 96.2252 20.1017H96.1645L95.9749 20.0259C95.8309 19.9728 95.6868 19.9121 95.5352 19.8667C94.929 19.6548 94.3081 19.4876 93.6776 19.3662L93.1468 19.2752L92.9194 19.2373H92.8663C92.5857 19.2373 92.2976 19.1691 92.0171 19.1464C91.3726 19.0933 90.7205 19.0781 90.0761 19.0781C89.4316 19.0781 88.9615 19.0781 88.4004 19.1312C91.3238 20.6552 93.7301 23.0113 95.3153 25.902C97.0647 29.0578 98.1824 32.5243 98.606 36.1076C99.1349 40.0759 99.0171 44.1037 98.2572 48.0343C97.8874 49.9622 97.3599 51.8566 96.6801 53.6982C96.038 55.4975 95.2309 57.2337 94.269 58.8843C93.3471 60.4739 92.1115 61.8592 90.6371 62.9559C90.4703 63.0773 90.2959 63.1834 90.1216 63.2971C90.7509 63.2971 91.3802 63.2971 92.0095 63.2289L92.5857 63.1682H92.6994H92.8966C93.2226 63.1152 93.5411 63.0545 93.8595 62.9787C94.5007 62.8336 95.1294 62.6384 95.7399 62.3949L95.9143 62.319L96.2934 62.1522L97.0516 61.7731C97.5725 61.4909 98.0787 61.1821 98.568 60.8481L99.3262 60.2946L99.4931 60.1657L99.8343 59.8852C100.296 59.4944 100.736 59.0793 101.154 58.6417C101.373 58.4142 101.586 58.1868 101.79 57.9441L102.071 57.6105C102.118 57.5583 102.161 57.5025 102.2 57.4437C102.553 56.9978 102.872 56.5265 103.155 56.0335C103.454 55.5521 103.707 55.0445 103.913 54.517C103.822 54.7672 103.913 54.4791 103.913 54.426C103.913 54.373 103.967 54.3047 103.989 54.2365L104.126 53.8574C104.217 53.5844 104.293 53.3039 104.368 53.0233C104.732 51.7723 105.043 50.4985 105.301 49.2323C105.43 48.5954 105.551 47.9585 105.65 47.3216C105.71 46.9728 105.764 46.624 105.809 46.2752V46.207C105.809 46.1236 105.809 46.0478 105.809 45.9644C105.809 45.881 105.847 45.6459 105.87 45.4867C106.021 44.1678 106.097 42.8413 106.097 41.5137C106.088 40.2615 106.007 39.0109 105.854 37.7681C105.976 37.3738 105.953 37.1994 105.93 37.025Z" fill="#FF7AAE"/>
<path d="M79.0593 48.089C79.8934 47.8388 80.7122 47.5507 81.5235 47.2323L81.8419 47.1033L81.9481 47.0579L82.168 46.9441L82.259 46.891H82.3045C82.3069 46.8633 82.3069 46.8354 82.3045 46.8076V46.7318C82.3045 46.6408 82.3045 46.5499 82.3045 46.4664C82.3045 45.5566 82.2362 44.6467 82.1983 43.7369C82.1983 43.3426 82.1983 42.9407 82.1453 42.5465C82.1453 42.3948 82.1453 42.2432 82.1074 42.0915C82.1074 42.0915 82.1074 42.0915 82.1074 42.0309C82.111 41.9602 82.111 41.8893 82.1074 41.8186C82.0775 41.6601 82.0395 41.5032 81.9936 41.3485C81.9936 41.2803 81.9557 41.212 81.9329 41.1514C81.8915 41.0812 81.856 41.0076 81.8268 40.9315L81.7282 40.7571L81.6828 40.7116L81.5766 40.5903L81.4932 40.5221L81.387 40.4538L81.3188 40.4159L81.0534 40.3477H80.9624H80.6288C80.4317 40.3477 80.227 40.3477 80.0299 40.3477C76.8529 40.5979 73.6836 40.977 70.5218 41.3864L69.3087 41.5456L68.6566 41.629H68.5353H68.2548L65.8664 41.9551L61.7266 42.5389C62.0753 43.6686 62.3862 44.8135 62.6364 45.9812C63.0066 47.6779 63.2599 49.398 63.3946 51.1295H63.5235H63.6676L64.2362 51.0461C67.4966 50.576 70.719 49.8632 73.9566 49.2794C75.6796 48.9842 77.3835 48.5867 79.0593 48.089Z" fill="#FFEAEA"/>
<path d="M41.3157 49.0812C41.0375 48.1002 40.4596 47.2306 39.6628 46.5942C38.6771 45.836 37.464 45.9194 36.3039 46.018C33.9534 46.2101 31.6182 46.5109 29.298 46.9203C28.724 46.9047 28.1546 47.0269 27.6375 47.2767C27.5456 47.3224 27.464 47.3862 27.3975 47.4644C27.3311 47.5426 27.2811 47.6335 27.2508 47.7316C26.4248 48.3121 25.7287 49.0582 25.2066 49.9223C24.6844 50.7864 24.3478 51.7497 24.218 52.751C24.1084 53.8355 24.3159 54.9285 24.8152 55.8975C25.3145 56.8665 26.0842 57.6698 27.031 58.2101C28.0193 58.7861 29.1782 58.9981 30.3065 58.8091C30.7435 58.7354 31.1659 58.5921 31.5575 58.3845C33.3393 58.2783 35.1211 58.1798 36.865 58.066C38.0213 58.0974 39.1634 57.8059 40.1632 57.2244C40.997 56.6211 41.5713 55.7244 41.7706 54.7147C41.9461 53.769 41.9666 52.801 41.8313 51.8487C41.7502 50.9116 41.5775 49.9846 41.3157 49.0812ZM39.3519 49.2404C39.3444 49.2101 39.3064 49.1115 39.3519 49.2101V49.2404ZM31.8229 55.7686V55.7231V55.7686ZM32.5811 53.729C32.5847 53.7871 32.5847 53.8454 32.5811 53.9034C32.5453 54.1452 32.4894 54.3836 32.4143 54.6162C32.3979 54.7158 32.3619 54.8112 32.3082 54.8967L32.3536 54.7905C32.3392 54.8323 32.3214 54.8729 32.3006 54.9118C32.3006 54.9498 32.3006 54.9877 32.2475 55.0332C32.1464 55.226 32.0351 55.4134 31.9139 55.5943L31.8608 55.6777L31.8229 55.7156L31.603 55.9658C31.474 56.1173 31.3291 56.2546 31.1708 56.3752H31.1102L31.004 56.4435L29.4042 56.5344C29.1665 56.5517 28.9407 56.6447 28.7597 56.7998L28.5929 56.7543L28.4185 56.6937L28.3578 56.6558C28.2138 56.5799 28.0545 56.5117 27.9105 56.4283L27.6679 56.2691C27.7058 56.2691 27.5541 56.1705 27.5314 56.1553C27.385 56.0293 27.2457 55.8951 27.1144 55.7535C27.0446 55.6786 26.9788 55.6002 26.9172 55.5184C26.8717 55.4578 26.8262 55.4047 26.7883 55.344C26.6838 55.1823 26.5876 55.0152 26.5002 54.8436L26.432 54.7071C26.432 54.7071 26.432 54.6389 26.432 54.6237C26.432 54.6086 26.3713 54.4721 26.3486 54.3963C26.3258 54.3204 26.2804 54.0778 26.2424 53.9262C26.2393 53.8934 26.2393 53.8604 26.2424 53.8276C26.2424 53.7745 26.2424 53.7215 26.2424 53.6684C26.2348 53.5447 26.2348 53.4206 26.2424 53.2969C26.2424 53.1756 26.2424 53.0542 26.2424 52.9253C26.2424 52.7964 26.2424 52.8419 26.2424 52.7964V52.7585C26.2811 52.501 26.3419 52.2473 26.4244 52.0003C26.4244 51.8942 26.4927 51.788 26.5306 51.6819C26.5685 51.5757 26.5306 51.6819 26.5306 51.6439C26.5527 51.587 26.578 51.5313 26.6064 51.4771C26.7131 51.2534 26.8321 51.0357 26.9627 50.8251C27.0309 50.7189 27.0992 50.6128 27.175 50.5142C27.2016 50.4645 27.2348 50.4186 27.2736 50.3777C27.4328 50.1818 27.6024 49.9945 27.7816 49.8167C27.8802 49.7257 27.9787 49.6271 28.0849 49.5437L28.1835 49.4527L28.2517 49.3921C28.4545 49.2391 28.6673 49.0998 28.8886 48.975L28.972 48.9144L29.4724 48.8234C29.4194 48.8234 29.4042 48.8234 29.4194 48.8234H29.5255H29.6695C29.7726 48.8466 29.874 48.877 29.9728 48.9144L30.0866 48.9523L30.405 49.1115L30.6932 49.2935L30.7993 49.3693H30.8523C31.0308 49.4935 31.1916 49.6414 31.33 49.8091L31.5499 50.0593L31.5954 50.12V50.1579C31.7433 50.3652 31.88 50.5803 32.0048 50.8023C32.0579 50.9085 32.111 51.0071 32.1565 51.1056C32.202 51.2042 32.2096 51.2269 32.2399 51.28V51.3331C32.3375 51.5665 32.4161 51.8074 32.4749 52.0534C32.5472 52.2695 32.593 52.4935 32.6114 52.7206C32.6114 52.7206 32.6114 52.7661 32.6114 52.7813C32.6114 52.7964 32.6114 52.8798 32.6114 52.9253C32.619 53.0642 32.619 53.2035 32.6114 53.3424C32.6266 53.5092 32.619 53.6229 32.6114 53.7594L32.5811 53.729ZM39.1169 55.6549L39.1927 55.5943C39.1806 55.6166 39.1653 55.637 39.1472 55.6549H39.1169ZM39.9813 53.9717C39.9813 54.1081 39.9813 53.9717 39.9813 53.9717V53.9717ZM39.9813 53.8125C39.9853 53.8452 39.9853 53.8783 39.9813 53.911C39.9503 54.0065 39.9349 54.1063 39.9358 54.2067C39.8917 54.402 39.836 54.5944 39.7689 54.783C39.7689 54.783 39.7007 54.9953 39.7689 54.836C39.8372 54.6768 39.7689 54.836 39.7689 54.8815C39.731 54.9713 39.6854 55.0575 39.6325 55.1393C39.589 55.1953 39.5485 55.2535 39.5112 55.3137L39.3898 55.4426L39.2458 55.5867H39.2003L39.079 55.6701C39.0335 55.6701 38.8136 55.8596 38.753 55.8369H38.8515H38.7454L38.5027 55.9203C38.2904 55.9766 38.0753 56.0222 37.8583 56.0568H37.6763H37.3048C36.1144 56.1402 34.9164 56.216 33.726 56.2842C34.1265 55.6054 34.3845 54.8521 34.4842 54.0702C34.6362 52.8059 34.4313 51.5242 33.8928 50.3702C33.5246 49.5783 33.0101 48.8631 32.3764 48.2623H32.619H32.71H32.9299L33.3696 48.2092C33.961 48.141 34.5449 48.0728 35.1363 48.0197C35.7277 47.9666 36.3115 47.906 36.8953 47.8681C37.1478 47.8526 37.401 47.8526 37.6535 47.8681H37.8583C37.9872 47.8681 38.1312 47.959 38.2601 47.9818L38.3284 48.0197L38.5331 48.141L38.624 48.2168C38.701 48.2863 38.7745 48.3597 38.844 48.4367L38.9046 48.5125L39.0486 48.7324L39.1776 48.9675C39.2201 49.0797 39.2708 49.1886 39.3292 49.2935C39.3262 49.3237 39.3262 49.3542 39.3292 49.3845L39.4202 49.6498C39.4884 49.8621 39.5415 50.0745 39.5946 50.2868C39.6931 50.681 39.7614 51.045 39.8296 51.4771L39.8751 51.788C39.8751 51.97 39.8751 51.7274 39.8751 51.7198C39.8797 51.7854 39.8797 51.8513 39.8751 51.9169C39.8751 52.1292 39.9206 52.3415 39.9358 52.5614C39.9965 52.9757 40.0269 53.3938 40.0268 53.8125H39.9813Z" fill="#362D2A"/>
<path d="M32.3211 29.1406C27.7718 30.9148 24.0794 34.5922 21.6379 38.7927C19.3632 42.7922 18.0711 47.2748 17.8681 51.8714C17.6651 56.468 18.557 61.0471 20.4702 65.2316C22.2912 69.3514 25.3702 72.7887 29.2655 75.0504C31.1767 76.0945 33.278 76.7442 35.445 76.9612C37.4588 77.1503 39.4902 76.9913 41.45 76.4911C45.5305 75.445 49.2186 73.2348 52.065 70.1296C53.4771 68.6122 54.6506 66.8891 55.5452 65.0193C56.5999 62.7941 57.3107 60.4216 57.6531 57.9831C58.2953 53.0537 57.776 48.0425 56.1366 43.3495C55.3382 40.9789 54.307 38.6931 53.0583 36.5256C51.8961 34.3654 50.2948 32.4723 48.3574 30.9679C47.3494 30.2846 46.2717 29.7102 45.1425 29.2543C43.9766 28.7138 42.7457 28.3265 41.4804 28.1019C38.9678 27.8102 36.4231 27.985 33.974 28.6174C32.6812 28.9809 31.4403 29.5083 30.2815 30.1869C30.093 30.3169 29.9604 30.5132 29.9102 30.7367C29.86 30.9601 29.8959 31.1943 30.0108 31.3924C30.1256 31.5905 30.311 31.7381 30.5298 31.8055C30.7486 31.873 30.9849 31.8555 31.1914 31.7565C31.4871 31.5821 31.7904 31.4152 32.1013 31.2636C32.2428 31.1878 32.3869 31.1195 32.5334 31.0589L32.7609 30.9528L32.9201 30.8845C32.8443 30.8845 32.8367 30.8845 32.9201 30.8845C33.5031 30.6556 34.0978 30.4582 34.7019 30.2931C35.2665 30.1463 35.8385 30.0299 36.4155 29.9443C36.4155 29.9443 36.5899 29.9443 36.4155 29.9443H36.6354L37.0827 29.8912L37.9698 29.8306C38.5309 29.8306 39.0996 29.7851 39.6682 29.7851C39.9715 29.7851 40.2672 29.7851 40.5629 29.7851L40.9648 29.823C41.2301 29.823 40.7828 29.823 41.0406 29.823L41.3515 29.8685C41.9431 29.9807 42.5259 30.1353 43.0954 30.331C43.3683 30.422 43.6337 30.5206 43.8991 30.6343L44.1189 30.7177C43.9673 30.657 44.1189 30.7177 44.1189 30.7177C44.2933 30.7859 44.4602 30.8618 44.6345 30.9452C45.1956 31.1954 45.7567 31.4683 46.3026 31.7565C46.5452 31.8854 46.7727 32.0218 47.0002 32.1659L47.3641 32.4085L47.4778 32.4995C47.4778 32.4995 47.7659 32.7118 47.5916 32.5753C48.476 33.2765 49.2683 34.0866 49.9496 34.9864C49.8131 34.812 49.9496 34.9864 49.9496 35.0395L50.0785 35.2139L50.2984 35.5172L50.7988 36.2754C51.1096 36.7531 51.3978 37.2459 51.6783 37.7387C52.2622 38.7699 52.7853 39.8238 53.2706 40.9005L53.4525 41.3251C53.4525 41.3251 53.5663 41.5905 53.4525 41.3933C53.4525 41.4464 53.4905 41.4919 53.5132 41.5374C53.6345 41.8255 53.7483 42.1136 53.8544 42.4018C54.0743 42.9704 54.279 43.5467 54.4686 44.1229C54.8446 45.2632 55.1609 46.4223 55.4163 47.5955C55.5376 48.1794 55.6514 48.7632 55.7424 49.347C55.7424 49.4683 55.7424 49.5972 55.803 49.7261C55.8637 49.855 55.803 49.8778 55.803 49.9536C55.803 50.0294 55.8409 50.2417 55.803 50.0218C55.8485 50.3251 55.8789 50.6284 55.9092 50.9393C56.0319 52.1052 56.0825 53.2776 56.0608 54.4498C56.0608 55.0336 56.0608 55.6174 55.9698 56.2013C55.9698 56.4742 55.9243 56.7548 55.8864 57.0277L55.8409 57.4447C55.8409 57.5964 55.8409 57.2248 55.8409 57.4447L55.7954 57.7404C55.6236 58.8893 55.3702 60.0244 55.0372 61.1372C54.8628 61.6983 54.6733 62.2518 54.461 62.7977C54.4079 62.9342 54.3548 63.0783 54.2942 63.2223C54.2942 63.2223 54.1956 63.4498 54.2487 63.3209L54.2032 63.427C54.0895 63.6924 53.9681 63.9578 53.8392 64.1852C53.4023 65.0734 52.8952 65.9253 52.3228 66.7328C52.1863 66.9224 52.0499 67.1195 51.9058 67.3091L51.792 67.4607C51.6556 67.6427 51.9134 67.3091 51.792 67.4607L51.5495 67.764C51.231 68.1507 50.8974 68.5222 50.5486 68.9013C49.8639 69.6314 49.1292 70.313 48.3498 70.9409C48.2664 71.0016 48.183 71.0774 48.092 71.1381C48.2891 70.994 48.092 71.1381 48.092 71.1381L47.9403 71.2518C47.7356 71.411 47.5233 71.5551 47.311 71.7067C46.9016 71.9873 46.4921 72.2526 46.0599 72.5029C45.6278 72.7531 45.2108 72.9881 44.771 73.208L44.1341 73.5113L43.846 73.6402L43.6716 73.716H43.5882C42.6909 74.0892 41.7655 74.3909 40.8207 74.6183C40.3582 74.7244 39.8805 74.823 39.4104 74.8988H39.2209C39.2209 74.8988 39.001 74.9367 39.1526 74.8988C39.3043 74.8609 39.1071 74.8988 39.092 74.8988H38.9024L38.1442 74.967C37.1889 75.0303 36.2299 75.01 35.2782 74.9064H35.0962C35.0128 74.9064 34.8687 74.9064 35.0962 74.9064C34.9909 74.9062 34.8862 74.8909 34.7853 74.8609C34.5427 74.823 34.2925 74.7775 34.0271 74.7244C33.5529 74.6273 33.0845 74.5033 32.6244 74.3529C32.4045 74.2847 32.1771 74.2088 31.9648 74.1254L31.5933 73.9889L31.4037 73.9056C31.6084 74.0041 31.4037 73.9056 31.4037 73.9056C30.9185 73.6933 30.4484 73.4582 29.9859 73.2004C29.5167 72.9382 29.0611 72.6522 28.621 72.3436C28.4033 72.2006 28.1933 72.0462 27.9917 71.8811C27.9917 71.8811 28.1358 72.0024 27.9917 71.8811L27.8325 71.7522L27.461 71.4489C26.6545 70.7532 25.9064 69.9924 25.2242 69.1743L24.739 68.5829L24.6329 68.4464C24.5419 68.3327 24.7618 68.6208 24.6329 68.4464C24.504 68.272 24.4357 68.1886 24.3447 68.0521C24.0263 67.62 23.7306 67.1802 23.4425 66.7253C22.8779 65.8155 22.3714 64.8709 21.926 63.8971C21.8805 63.791 21.8351 63.6848 21.782 63.5787C21.7289 63.4725 21.7289 63.4498 21.6986 63.3815C21.6683 63.3133 21.5924 63.1313 21.6986 63.3436C21.5849 63.0858 21.4863 62.8281 21.3877 62.5854C21.1981 62.085 21.0237 61.5846 20.8645 61.069C20.5478 60.0263 20.2946 58.9654 20.1063 57.8921C20.0608 57.6419 20.0153 57.3841 19.9774 57.1339L19.9092 56.7093C19.9092 56.4818 19.9092 56.8533 19.9092 56.7093C19.9092 56.5652 19.9092 56.55 19.9092 56.4666C19.8409 55.9283 19.7954 55.3824 19.7575 54.8365C19.6968 53.748 19.6968 52.657 19.7575 51.5686C19.7575 51.0226 19.8258 50.4843 19.8864 49.9384L19.9319 49.5138V49.3015C19.9319 49.074 19.9319 49.4456 19.9319 49.3015C19.9774 49.021 20.0153 48.7404 20.0608 48.4599C20.256 47.3755 20.5091 46.3024 20.819 45.2451C20.9707 44.7396 21.1375 44.2341 21.3195 43.7286L21.5924 42.9704C21.6379 42.8567 21.6834 42.7505 21.7213 42.6368C21.7592 42.5231 21.7744 42.5079 21.8047 42.4397L21.8578 42.3108C21.8123 42.4169 21.8123 42.4245 21.8578 42.3108C22.2877 41.3172 22.7763 40.35 23.3211 39.4144C23.5941 38.9443 23.8822 38.4894 24.1855 38.042L24.6253 37.4051L24.8603 37.0943C24.8914 37.0432 24.9269 36.995 24.9665 36.9502L25.0499 36.8365C24.9816 36.9275 24.9741 36.935 25.0499 36.8365C25.7493 35.9461 26.5093 35.105 27.3245 34.3192C27.7567 33.9098 28.2041 33.5155 28.659 33.144L28.8409 32.9923L28.9016 32.9468L29.2125 32.7194C29.4627 32.5298 29.7129 32.3554 29.9707 32.1886C30.4436 31.876 30.932 31.5876 31.434 31.3243C31.6842 31.1878 31.9344 31.0665 32.1922 30.9452L32.6092 30.7556C32.4197 30.839 32.6548 30.7556 32.6851 30.7556L32.8974 30.6646C33.0119 30.6333 33.1191 30.5796 33.2129 30.5068C33.3067 30.434 33.3852 30.3435 33.444 30.2404C33.5028 30.1372 33.5407 30.0235 33.5555 29.9057C33.5704 29.7879 33.5619 29.6684 33.5305 29.5538C33.4991 29.4393 33.4455 29.3321 33.3727 29.2383C33.2999 29.1446 33.2094 29.066 33.1062 29.0072C33.0031 28.9484 32.8894 28.9105 32.7716 28.8957C32.6538 28.8809 32.5342 28.8894 32.4197 28.9207L32.3211 29.1406Z" fill="#362D2A"/>
<path d="M37.3041 29.7848C38.8206 29.5876 40.337 29.4815 41.8534 29.345C43.2507 29.1485 44.6584 29.0346 46.0691 29.0038C46.3799 29.0038 46.6908 29.0038 46.9941 29.0645L47.5021 29.1175C47.2974 29.1175 47.5779 29.1175 47.6007 29.1175L47.9343 29.1782C48.6032 29.2961 49.2642 29.4557 49.9132 29.6559C50.2393 29.762 50.5577 29.8682 50.8686 29.9895L51.2629 30.1487L51.3539 30.1866L51.6647 30.3307C52.1986 30.5689 52.7067 30.8611 53.1811 31.2026L53.3631 31.3391C53.1963 31.2102 53.3631 31.3391 53.4162 31.377L53.765 31.6727C54 31.8774 54.2275 32.0897 54.4549 32.3096C54.9046 32.7569 55.3274 33.2303 55.7212 33.7275L55.7742 33.7957L55.9107 33.9777C56.0093 34.1066 56.1003 34.2355 56.1837 34.3568C56.3732 34.6298 56.5552 34.9027 56.7296 35.1908C57.0364 35.7047 57.3124 36.2364 57.556 36.7831C57.6925 37.1015 57.8366 37.4124 57.973 37.7308C58.0489 37.8977 58.1171 38.0721 58.1929 38.2464L58.246 38.3678L58.3825 38.7089C58.6554 39.3686 58.9132 40.0434 59.1407 40.7182C59.6108 42.0122 60.0253 43.3239 60.3842 44.6533C60.7217 45.9252 60.995 47.2133 61.203 48.5126C61.203 48.6719 61.2561 48.8311 61.2788 48.9903C61.3016 49.1495 61.2788 49.1496 61.2788 49.233C61.3243 49.4983 61.2788 49.0434 61.2788 49.3088L61.3926 50.2717C61.4533 50.9086 61.5063 51.5455 61.5367 52.19C61.6087 53.5083 61.6087 54.8296 61.5367 56.1479C61.4987 56.8075 61.4381 57.4596 61.3623 58.1192C61.3623 58.2709 61.3623 58.4225 61.3092 58.5742V58.7789C61.3092 58.7789 61.2637 59.0746 61.3092 58.8698C61.2637 59.2338 61.203 59.6281 61.15 59.9617C60.9326 61.2961 60.6546 62.6205 60.3159 63.9347C60.2022 64.4048 60.0733 64.8749 59.9292 65.3374C59.861 65.5421 59.7852 65.7544 59.7093 65.9591L59.6108 66.2094C59.5426 66.3913 59.7018 66.0122 59.6108 66.2094C59.5877 66.277 59.5598 66.3428 59.5274 66.4065C59.3446 66.8024 59.1344 67.185 58.8981 67.5514C58.7768 67.7485 58.6403 67.9457 58.5038 68.1352L58.3901 68.2869C58.2612 68.4613 58.5114 68.1276 58.3901 68.2869L58.1399 68.5977C57.3411 69.5898 56.45 70.5037 55.4785 71.3273C55.6226 71.206 55.524 71.2894 55.4785 71.3273L55.3041 71.4562L54.9478 71.6988C54.6824 71.8732 54.417 72.0324 54.1365 72.1841L53.3783 72.5556L52.9688 72.7376C53.166 72.6466 52.9688 72.7376 52.9082 72.7376L52.6276 72.8437C51.505 73.2674 50.3484 73.5946 49.1702 73.8218C47.8206 74.0796 46.4482 74.2464 45.091 74.436L40.5417 75.0881L38.2671 75.4141C38.0371 75.4779 37.8418 75.6301 37.7238 75.8376C37.6059 76.0451 37.5749 76.2908 37.6377 76.5211C37.7082 76.7487 37.8625 76.9411 38.0694 77.0593C38.2763 77.1776 38.5204 77.2128 38.7523 77.158L48.086 75.8159C50.5907 75.5292 53.0189 74.7729 55.2435 73.5868C56.3717 72.9152 57.3939 72.0796 58.2763 71.1074C59.0932 70.274 59.8294 69.3651 60.4751 68.393C61.5071 66.5071 62.1976 64.4536 62.5147 62.3273C63.0911 59.607 63.3934 56.8358 63.417 54.0552C63.4202 51.332 63.1253 48.6165 62.5375 45.9575C61.9195 43.1987 61.0541 40.5012 59.952 37.8977C59.4424 36.5588 58.821 35.2653 58.0944 34.0308C57.3779 32.9054 56.5359 31.8651 55.5847 30.9297C54.6847 30.0317 53.6387 29.2933 52.4912 28.746C51.1913 28.1374 49.8174 27.7015 48.4044 27.4495C46.97 27.1769 45.5027 27.1232 44.0522 27.2902C42.5358 27.4798 41.0194 27.6011 39.503 27.7376C38.7448 27.7982 38.0245 27.8741 37.289 27.9726C37.0509 27.9779 36.8235 28.0727 36.6521 28.238C36.5679 28.3213 36.5011 28.4205 36.4555 28.5299C36.41 28.6392 36.3866 28.7565 36.3867 28.8749C36.3867 29.3147 36.7886 29.8454 37.289 29.7848H37.3041Z" fill="#362D2A"/>
<path d="M27.8736 47.3731C26.8932 47.9392 26.0571 48.7245 25.4309 49.6677C24.8048 50.6109 24.4055 51.6863 24.2645 52.8095C24.1685 53.8819 24.3835 54.9591 24.8837 55.9125C25.3839 56.8658 26.1482 57.6549 27.0851 58.1853C28.0418 58.7341 29.1572 58.9401 30.2468 58.7691C31.3229 58.58 32.302 58.0289 33.0219 57.2072C33.8097 56.3279 34.3051 55.2258 34.4398 54.053C34.566 52.8353 34.3589 51.6062 33.8408 50.497C33.3425 49.317 32.4961 48.3171 31.4145 47.631C30.9124 47.3103 30.3498 47.0961 29.7616 47.0016C29.0486 46.8905 28.3188 46.999 27.6689 47.3125C27.4793 47.4226 27.3367 47.5984 27.2683 47.8067C27.1998 48.015 27.2101 48.2411 27.2974 48.4422C27.383 48.6433 27.5382 48.8068 27.7345 48.9029C27.9308 48.9989 28.1551 49.0211 28.3665 48.9654C29.5265 48.7455 30.6942 48.5408 31.8618 48.374L32.2788 48.3133H32.4457H32.5442L33.4692 48.1996L35.1449 48.0101L36.904 47.8584C37.1565 47.8447 37.4096 47.8447 37.6622 47.8584H37.8972C37.8593 47.8584 37.7228 47.8584 37.8972 47.8584C37.9614 47.8691 38.0247 47.8843 38.0868 47.9039C38.1247 47.9039 38.2763 47.9873 38.3066 47.9721C38.337 47.957 38.1322 47.8887 38.246 47.9721L38.39 48.048C38.4684 48.089 38.5444 48.1346 38.6175 48.1844C38.7464 48.2678 38.572 48.1844 38.5645 48.1465C38.5998 48.1852 38.6407 48.2184 38.6857 48.2451C38.7616 48.3209 38.8374 48.3967 38.9056 48.4802C38.9739 48.5636 38.9587 48.5484 38.9815 48.5635L38.9284 48.4498L38.9891 48.5408C39.0421 48.6166 39.0952 48.6925 39.1407 48.7683C39.2372 48.9321 39.3232 49.1017 39.3985 49.2763C39.4819 49.4582 39.3226 49.0791 39.3985 49.2763V49.39C39.4364 49.481 39.4667 49.572 39.497 49.663C39.5274 49.7539 39.6183 50.08 39.6714 50.2923C39.77 50.6865 39.8458 51.096 39.9065 51.4978L39.952 51.7935V51.9149V51.7935C39.9556 51.8339 39.9556 51.8745 39.952 51.9149C39.952 52.1423 40.005 52.3622 40.0202 52.5897C40.0505 53.0061 40.0505 53.4242 40.0202 53.8407C40.0202 53.8862 40.0202 53.9393 40.0202 53.9848C40.0202 54.0303 40.0202 54.1971 40.0202 54.0454C40.0202 53.8938 40.0202 54.0454 40.0202 54.0985C40.0202 54.1516 40.0202 54.1895 40.0202 54.2426C39.9824 54.4386 39.9291 54.6312 39.861 54.8188V54.8719C39.8231 54.9629 39.861 54.9401 39.861 54.8112C39.8427 54.8426 39.8275 54.8756 39.8155 54.9098C39.7771 54.993 39.7341 55.074 39.6866 55.1524C39.6866 55.1903 39.5274 55.3496 39.5349 55.3875L39.6108 55.2889L39.5349 55.3799L39.4288 55.5012L39.2165 55.6983C39.0724 55.8272 39.353 55.6074 39.2165 55.6983L39.0724 55.7969C38.9739 55.8576 38.8677 55.9031 38.7691 55.9561C38.6706 56.0092 38.7691 55.9561 38.7691 55.9561C38.6854 55.9989 38.5961 56.0295 38.5038 56.0471C38.2793 56.1101 38.0514 56.1607 37.8214 56.1988C37.7759 56.1988 37.647 56.1988 37.8214 56.1988H37.6091H37.2224C34.5838 56.3883 31.9149 56.5172 29.3142 56.6764C29.1957 56.6764 29.0784 56.6998 28.969 56.7451C28.8595 56.7905 28.76 56.8569 28.6762 56.9407C28.5924 57.0245 28.526 57.1239 28.4806 57.2334C28.4353 57.3429 28.412 57.4602 28.412 57.5787C28.412 57.6972 28.4353 57.8145 28.4806 57.924C28.526 58.0335 28.5924 58.1329 28.6762 58.2167C28.76 58.3005 28.8595 58.3669 28.969 58.4123C29.0784 58.4576 29.1957 58.481 29.3142 58.481L36.8964 58.0336C38.0423 58.0618 39.1727 57.7648 40.1567 57.1769C40.9806 56.5676 41.5418 55.6676 41.7262 54.6596C41.8968 53.7232 41.9122 52.7652 41.7717 51.8239C41.6776 50.8986 41.4949 49.9846 41.2258 49.0943C40.95 48.1325 40.3832 47.2796 39.6032 46.6529C38.6327 45.8946 37.4271 45.978 36.2822 46.0766C33.4475 46.3074 30.6277 46.6947 27.8357 47.2367C28.0708 47.7902 28.2982 48.3437 28.5333 48.8896C28.7304 48.7986 28.3437 48.9502 28.5333 48.8896L28.647 48.8517C28.738 48.8517 28.8366 48.8062 28.9351 48.7834C29.0337 48.7607 28.7228 48.7834 28.9351 48.7834H29.0868C29.0868 48.7834 29.4052 48.7834 29.4128 48.7834H29.2915H29.4052H29.5265L29.8222 48.8668L29.9891 48.9275C30.1559 48.9882 29.9891 48.9275 29.9891 48.9275C29.9891 48.9275 30.2393 49.0488 30.3227 49.0943C30.5137 49.1917 30.694 49.3086 30.861 49.4431C30.679 49.2838 30.9292 49.5113 30.9747 49.5492L31.2553 49.8222C31.33 49.8969 31.4008 49.9753 31.4675 50.0572C31.5166 50.1022 31.56 50.1532 31.5965 50.2089C31.4979 50.0345 31.5358 50.1331 31.5965 50.2089C31.7444 50.4162 31.881 50.6314 32.0059 50.8534C32.0665 50.9595 32.1196 51.0657 32.1727 51.1794L32.2637 51.3765C32.2637 51.4144 32.3471 51.5282 32.2637 51.3765C32.3713 51.6206 32.455 51.8745 32.5139 52.1347C32.5139 52.2485 32.5746 52.3698 32.5973 52.4835C32.6342 52.5991 32.6571 52.7188 32.6655 52.8399V52.7413C32.6655 52.7944 32.6655 52.8399 32.6655 52.8854C32.6693 52.9333 32.6693 52.9815 32.6655 53.0294C32.6731 53.1734 32.6731 53.3176 32.6655 53.4616C32.6655 53.5829 32.6655 53.6966 32.6655 53.818C32.6771 53.8882 32.6771 53.96 32.6655 54.0303C32.6655 54.0303 32.6655 53.8331 32.6655 54.0303C32.6226 54.2713 32.5644 54.5094 32.4912 54.743C32.4718 54.8442 32.4359 54.9415 32.385 55.0311C32.4987 54.8946 32.385 54.9401 32.385 55.0311C32.368 55.0804 32.3477 55.1286 32.3243 55.1752C32.2173 55.3792 32.0984 55.5767 31.968 55.7666L31.877 55.8879C31.8012 55.994 32.0211 55.7211 31.877 55.8879L31.6723 56.1153C31.5964 56.1912 31.5282 56.267 31.4524 56.3352L31.3083 56.4566C31.2553 56.502 31.1643 56.6385 31.3083 56.4566C31.1572 56.5969 30.9827 56.7098 30.7928 56.7902C30.7064 56.8491 30.6119 56.8951 30.5122 56.9266C30.6487 56.9266 30.6411 56.8736 30.5122 56.9266L30.3151 57.0025L30.0118 57.0783H29.8601C29.6782 57.0783 29.8602 57.0783 29.8981 57.0783C29.936 57.0783 29.3066 57.0783 29.2384 57.0783H29.1247C28.9124 57.0783 29.337 57.0783 29.1247 57.0783L28.8366 57.0176L28.556 56.9342L28.412 56.8887C28.3361 56.8887 28.1921 56.7447 28.412 56.8887C28.2452 56.7826 28.048 56.7144 27.8812 56.6082L27.631 56.4414C27.631 56.4414 27.54 56.3959 27.5324 56.3732C27.5248 56.3504 27.6462 56.4641 27.5704 56.3732L27.4794 56.2897C27.3255 56.1586 27.1787 56.0194 27.0396 55.8727L26.8425 55.6377C26.7363 55.5088 26.8425 55.6377 26.8425 55.6377C26.8425 55.6377 26.7287 55.486 26.6984 55.4405C26.5855 55.2706 26.4842 55.0933 26.3951 54.9098C26.3744 54.876 26.3567 54.8405 26.3421 54.8036C26.3421 54.7278 26.289 54.5838 26.3421 54.8036C26.3421 54.6899 26.251 54.5686 26.2207 54.4549C26.1904 54.3411 26.0312 53.909 26.0842 53.8635C26.1373 53.818 26.0842 54.1061 26.0842 53.9165V53.727C26.0842 53.5981 26.0842 53.4692 26.0842 53.3403C26.0842 53.2114 26.0842 53.1052 26.0842 52.9915C26.0805 52.9385 26.0805 52.8853 26.0842 52.8323C26.0842 52.6276 26.0842 53.0067 26.0842 52.8323C26.1265 52.5762 26.1847 52.3229 26.2586 52.0741C26.2965 51.9528 26.3421 51.8314 26.3875 51.7101C26.433 51.5888 26.4634 51.4978 26.3875 51.6343C26.3117 51.7708 26.433 51.5358 26.4482 51.513C26.5549 51.2868 26.6739 51.0666 26.8046 50.8534L27.0168 50.5349L27.1154 50.3984C27.2367 50.2392 27.0168 50.5197 27.1154 50.3984C27.214 50.2771 27.4566 50.0042 27.6386 49.8222L27.9267 49.5568L28.0253 49.4734L28.1314 49.39C28.1314 49.39 28.2148 49.3218 28.2376 49.3142C28.3052 49.2594 28.3761 49.2087 28.4499 49.1625L28.7835 48.9578C28.9906 48.8362 29.1409 48.6372 29.2014 48.4047C29.2618 48.1722 29.2274 47.9253 29.1057 47.7181C29.0455 47.6156 28.9656 47.5259 28.8707 47.4542C28.7758 47.3825 28.6677 47.3302 28.5526 47.3003C28.3201 47.2398 28.0731 47.2742 27.866 47.3959L27.8736 47.3731Z" fill="#362D2A"/>
<path d="M61.1642 42.5303L65.7968 41.8782L68.2231 41.5446C68.2762 41.5446 68.5719 41.4991 68.3672 41.5446L68.6704 41.5067L69.2922 41.4233L70.5205 41.264C73.6974 40.8546 76.8819 40.4679 80.074 40.2253C80.2787 40.2253 80.4834 40.2253 80.6882 40.2253H80.9535C80.9535 40.2253 81.1431 40.2253 81.0218 40.2253C80.9005 40.2253 81.0976 40.2253 81.1203 40.2253C81.2208 40.2395 81.3181 40.2702 81.4085 40.3163C81.4085 40.3163 81.2416 40.2253 81.3629 40.3163L81.4615 40.3694C81.4615 40.3694 81.6586 40.5134 81.5525 40.4224C81.4463 40.3314 81.5525 40.4224 81.5525 40.4224L81.6511 40.5134C81.6913 40.5731 81.7398 40.6267 81.7951 40.6726C81.7951 40.6726 81.6662 40.4983 81.742 40.6196L81.8027 40.7106C81.84 40.7634 81.873 40.8192 81.9013 40.8774L81.9468 40.9759C82.0226 41.1048 81.9468 40.9759 81.9468 40.9304C81.964 41.0038 81.9895 41.075 82.0226 41.1427L82.0908 41.3626C82.1363 41.5143 82.1667 41.6659 82.197 41.8175C82.2273 41.9692 82.197 41.9768 82.197 42.0526C82.197 42.1284 82.197 42.0526 82.197 41.9919C82.1928 42.0297 82.1928 42.0679 82.197 42.1057C82.197 42.2649 82.197 42.4165 82.197 42.5758C82.197 42.9776 82.2349 43.3795 82.2501 43.7813C82.2501 44.676 82.3411 45.5783 82.3486 46.4806C82.3486 46.5715 82.3486 46.6701 82.3486 46.7611C82.3486 46.8521 82.3486 46.7611 82.3486 46.7611C82.354 46.8039 82.354 46.8472 82.3486 46.89C82.3486 46.9355 82.288 47.0568 82.3486 46.89C82.3486 46.89 82.2956 47.0189 82.3486 46.89C82.4017 46.7611 82.3486 46.89 82.3107 46.89C82.2728 46.89 82.3107 46.89 82.3107 46.89C82.3107 46.89 81.8482 47.1326 81.8406 47.1402C81.833 47.1478 82.0681 47.0492 81.8406 47.1402L81.7269 47.1857L81.3933 47.3222C80.5896 47.6406 79.7707 47.9212 78.9518 48.1714C77.2763 48.6406 75.5751 49.0128 73.8566 49.286C70.6115 49.8622 67.3891 50.5825 64.1212 51.0526L63.507 51.1436C63.507 51.1436 63.325 51.1436 63.507 51.1436H63.3857L63.0293 51.1891C62.7918 51.1948 62.5657 51.2918 62.3977 51.4597C62.2298 51.6277 62.1328 51.8538 62.1271 52.0913C62.1271 52.5311 62.5289 53.0618 63.0293 52.9936C66.4792 52.5614 69.8533 51.8411 73.2804 51.2042C75.0774 50.8706 76.8819 50.6052 78.6486 50.1276C79.5053 49.8925 80.3469 49.6196 81.181 49.3087C81.6056 49.1571 82.0302 48.9903 82.4472 48.8159C82.8894 48.6559 83.2888 48.3964 83.6149 48.0576C84.3124 47.2539 84.1304 46.1394 84.0925 45.1537C84.0546 44.168 84.0394 43.3719 83.9788 42.4772C83.8802 41.0593 83.5239 39.3458 82.0984 38.6861C81.2273 38.3598 80.2839 38.2759 79.3689 38.4435L76.9577 38.6634C75.2745 38.8378 73.5989 39.0349 71.9232 39.2396C68.5188 39.6642 65.0993 40.1419 61.7328 40.6196L60.5803 40.7864C60.4658 40.8172 60.3584 40.8702 60.2644 40.9425C60.1703 41.0148 60.0914 41.105 60.0323 41.2078C59.9731 41.3106 59.9349 41.4241 59.9196 41.5417C59.9044 41.6594 59.9124 41.7789 59.9434 41.8934C60.0139 42.121 60.1682 42.3134 60.3751 42.4316C60.582 42.5499 60.8261 42.5851 61.058 42.5303H61.1642Z" fill="#362D2A"/>
<path d="M70.0742 39.1785C70.0287 38.9358 69.9831 38.6932 69.9452 38.4202V38.261C69.9452 37.9956 69.9452 38.3748 69.9452 38.2155L69.8997 37.7682C69.8543 37.2829 69.8239 36.7977 69.8239 36.3124C69.8239 35.8271 69.8239 35.2964 69.8694 34.796C69.8694 34.5533 69.9074 34.3183 69.9301 34.0757C69.9301 33.9695 69.9301 33.8634 69.9301 33.7572C69.9301 33.6511 69.9301 33.4994 69.9301 33.6359C69.9301 33.7724 69.9301 33.507 69.9301 33.4767C70.218 31.5297 70.7268 29.6219 71.4465 27.7901C71.4596 27.7405 71.4774 27.6923 71.4996 27.646C71.4996 27.646 71.4162 27.8356 71.4996 27.6839C71.583 27.5323 71.5754 27.5095 71.6209 27.4261C71.6664 27.3427 71.8029 27.047 71.8939 26.8651C72.0986 26.486 72.3109 26.1069 72.5384 25.7581C72.7658 25.4093 73.016 24.9999 73.2966 24.6587C73.4255 24.4843 73.5468 24.3099 73.6757 24.1431L73.7667 24.0294C73.9031 23.8398 73.6833 24.1279 73.7667 24.0294L74.0093 23.7261C74.4993 23.0969 75.0312 22.5016 75.6015 21.9443C75.7228 21.823 75.8441 21.7092 75.973 21.6031L76.1778 21.4287L76.2688 21.3529C76.4204 21.2315 76.1247 21.459 76.2688 21.3529C76.569 21.1325 76.8803 20.9275 77.2013 20.7387C77.5046 20.5643 77.8155 20.4127 78.134 20.2686C78.316 20.1852 77.9823 20.3293 78.134 20.2686L78.2705 20.2155L78.4903 20.1321L79.0438 19.9426C79.3926 19.8364 79.7414 19.753 80.0977 19.6772L80.5982 19.5938H80.7422C80.8711 19.5938 80.5072 19.5938 80.7422 19.5938L81.0379 19.5559C81.7745 19.4915 82.5153 19.4915 83.2519 19.5559C83.4339 19.5559 83.6158 19.5559 83.7902 19.609C83.8433 19.609 83.9646 19.609 83.7296 19.609H83.8509L84.1845 19.662C84.5485 19.7227 84.9427 19.8061 85.2763 19.8971C85.61 19.9881 86.0345 20.1018 86.353 20.2231L86.861 20.4203C86.9216 20.4203 87.1795 20.5719 86.952 20.4582L87.2325 20.5795C87.9077 20.8892 88.5546 21.2571 89.166 21.6789L89.6437 22.0277L89.7801 22.1338L90.0607 22.3689C90.364 22.6267 90.6596 22.892 90.9478 23.1726C91.2359 23.4531 91.5316 23.7716 91.8121 24.09C91.941 24.2416 92.0699 24.3933 92.1912 24.5525L92.358 24.7572C92.4642 24.8861 92.358 24.7572 92.358 24.7572L92.4794 24.9089C92.978 25.5796 93.4338 26.2811 93.8441 27.0091C94.0489 27.3731 94.2384 27.7674 94.4204 28.1086C94.5114 28.2905 94.5948 28.4725 94.6782 28.662L94.7919 28.9047L94.8602 29.0563C94.8602 29.0563 94.9587 29.2914 94.9057 29.17C94.8526 29.0487 94.9057 29.2383 94.9057 29.2459L94.9512 29.3748L95.0573 29.625C95.1407 29.8373 95.2165 30.0496 95.2924 30.2619C95.4364 30.6486 95.5729 31.0201 95.6942 31.4523C95.9444 32.2484 96.1567 33.0597 96.3311 33.871C96.4221 34.2804 96.5055 34.6974 96.5737 35.1068C96.6192 35.3343 96.6495 35.5618 96.6875 35.7892C96.6875 35.903 96.6875 36.0167 96.7405 36.1304V36.32C96.7405 36.5171 96.7405 36.1608 96.7405 36.3806C96.8543 37.3208 96.9453 38.261 96.9908 39.2088C97.0831 41.0982 97.0273 42.9919 96.8239 44.8726C96.8239 45.1001 96.7709 45.3276 96.7405 45.5626C96.7405 45.6081 96.7405 45.6612 96.7405 45.7143C96.7405 45.5247 96.7405 45.6612 96.7405 45.7143C96.7405 45.7673 96.7026 45.9948 96.6799 46.1313C96.604 46.6014 96.5282 47.0639 96.4372 47.5264C96.2628 48.459 96.0506 49.384 95.8004 50.2939C95.5501 51.2037 95.262 52.106 94.936 52.9931C94.7768 53.4405 94.61 53.8802 94.428 54.32C94.3825 54.4261 94.337 54.5323 94.2991 54.6384C94.3673 54.4716 94.2991 54.6005 94.2991 54.6384C94.2706 54.6977 94.2453 54.7584 94.2233 54.8204L93.9275 55.48C93.5695 56.2579 93.1722 57.0171 92.7371 57.7547C92.5173 58.1262 92.2898 58.5129 92.0396 58.8465C91.9334 59.0057 91.8197 59.165 91.6984 59.3166C91.5771 59.4683 91.5771 59.491 91.6984 59.3166L91.615 59.4228C91.5468 59.5138 91.471 59.5972 91.3951 59.6881C91.109 60.0034 90.8053 60.3021 90.4853 60.5828L90.0379 60.9847L89.8332 61.1515C89.7043 61.2576 89.8332 61.1515 89.8332 61.1515L89.674 61.2728C89.3264 61.521 88.9615 61.744 88.5821 61.94L88.3471 62.0614C88.3016 62.0614 87.9832 62.2433 88.203 62.122C88.0172 62.2108 87.8245 62.2844 87.6268 62.3419C87.2499 62.463 86.8647 62.5567 86.4743 62.6224C86.393 62.6461 86.3088 62.6588 86.2241 62.6603C86.4364 62.6603 86.3151 62.6603 86.2241 62.6603H86.0649C85.8602 62.6603 85.663 62.6603 85.4583 62.6983C85.0586 62.7123 84.6584 62.6996 84.2603 62.6603H83.9722C83.8281 62.6603 84.1997 62.6603 83.9722 62.6603H83.8433C83.6386 62.6603 83.4415 62.5921 83.2367 62.5466C82.8391 62.4636 82.4467 62.3573 82.0615 62.2282C81.872 62.1599 81.6824 62.0993 81.5005 62.0234L81.3715 61.9779H81.2957C81.417 62.0234 81.2957 61.9779 81.2578 61.9779L81.0759 61.8946C80.3181 61.5506 79.5967 61.1314 78.9225 60.6435L78.7102 60.4843L78.5737 60.3857L78.0885 59.9687C77.7549 59.673 77.4288 59.3621 77.118 59.0437C76.8071 58.7252 76.5493 58.4371 76.2763 58.1186L75.8821 57.641L75.7987 57.5272C75.6622 57.3528 75.8821 57.6334 75.7987 57.5272L75.5712 57.2315C74.5743 55.8483 73.7207 54.3672 73.0236 52.8111C72.9402 52.614 72.8492 52.4245 72.7658 52.2273C72.7259 52.1433 72.6904 52.0573 72.6597 51.9695C72.7355 52.1591 72.6597 52.0075 72.6597 51.9695L72.5914 51.8027C72.4322 51.4085 72.273 51.0445 72.1214 50.6123C72.057 50.3811 71.9034 50.1848 71.6944 50.0668C71.4854 49.9488 71.238 49.9186 71.0068 49.983C70.7755 50.0473 70.5793 50.2009 70.4613 50.41C70.3433 50.619 70.3131 50.8663 70.3774 51.0976C71.5643 54.5654 73.4625 57.7471 75.9503 60.4388C77.1917 61.7294 78.6657 62.7738 80.2949 63.5171C81.9139 64.2672 83.6819 64.6405 85.4659 64.6089C87.2674 64.5632 89.0157 63.9884 90.4929 62.956C91.9583 61.8624 93.1861 60.4823 94.102 58.8996C95.0694 57.2455 95.8792 55.504 96.5207 53.6983C97.1955 51.8614 97.7179 49.9722 98.0826 48.0496C98.8421 44.0904 98.9523 40.034 98.4086 36.0395C97.9814 32.4939 96.8662 29.0659 95.1255 25.9476C93.4823 22.9209 90.9202 20.4942 87.8088 19.0176C84.8301 17.6596 81.46 17.4279 78.3235 18.3655C76.7881 18.8512 75.3864 19.687 74.2292 20.8069C72.955 22.089 71.8331 23.5138 70.8855 25.0529C69.9207 26.6928 69.2028 28.4658 68.7549 30.3149C68.1827 32.3631 67.9019 34.4816 67.9208 36.6081C67.9461 37.6676 68.0629 38.7229 68.2696 39.7623C68.3351 39.9928 68.4889 40.1882 68.6975 40.3061C68.9062 40.4239 69.1529 40.4546 69.3842 40.3916C69.6125 40.3228 69.8055 40.1684 69.9227 39.9607C70.04 39.753 70.0725 39.5081 70.0135 39.277L70.0742 39.1785Z" fill="#362D2A"/>
<path d="M82.3874 19.5044C84.9274 19.3527 87.4522 18.9964 89.9695 18.9812C90.614 18.9812 91.2661 18.9812 91.9105 19.0494L92.7597 19.1328H92.8204L93.0554 19.1708L93.5862 19.2617C94.2168 19.3831 94.8376 19.5503 95.4438 19.7622L95.876 19.9214L96.0959 20.0124C95.9139 19.9365 96.0959 20.0124 96.1414 20.0124C96.3613 20.1109 96.5811 20.2247 96.7934 20.346C97.2421 20.6059 97.675 20.892 98.09 21.2028L98.2492 21.3241C98.0672 21.1724 98.2492 21.3241 98.2492 21.3241L98.5601 21.5743C98.78 21.7563 98.9998 21.9458 99.2121 22.1429C99.9588 22.7986 100.651 23.5136 101.282 24.2811C101.328 24.3342 101.54 24.6223 101.358 24.3645L101.517 24.5844C101.616 24.7209 101.714 24.8649 101.798 25.009C102.169 25.6231 102.51 26.2601 102.836 26.897C103.162 27.5339 103.443 28.1177 103.716 28.747L103.807 28.9593C103.724 28.7773 103.807 29.0124 103.807 29.0351L103.959 29.3991C104.08 29.7175 104.201 30.0284 104.315 30.3468C104.739 31.5292 105.089 32.7372 105.361 33.9635C105.498 34.5701 105.611 35.1842 105.71 35.7984C105.761 36.0916 105.806 36.3873 105.847 36.6855C105.847 36.7234 105.892 36.9736 105.847 36.7462C105.847 36.822 105.847 36.8978 105.847 36.9736L105.915 37.5044C106.06 38.7479 106.141 39.9981 106.157 41.2499C106.155 42.5777 106.076 43.9042 105.922 45.223C105.922 45.3822 105.922 45.5414 105.862 45.7007C105.801 45.8599 105.862 45.8599 105.862 45.9433C105.862 46.2087 105.862 45.7537 105.862 46.0267C105.862 46.2996 105.763 46.7242 105.702 47.073C105.604 47.7099 105.483 48.3468 105.354 48.9761C105.096 50.2651 104.785 51.5313 104.421 52.7672C104.345 53.0478 104.269 53.3207 104.178 53.5937L104.042 53.9804L103.966 54.1699C103.966 54.2154 103.837 54.4959 103.966 54.2685C103.754 54.7934 103.501 55.3005 103.208 55.7849C102.912 56.2719 102.591 56.7426 102.245 57.1952C102.381 57.0208 102.245 57.1952 102.245 57.2407L102.109 57.4075L101.828 57.7411C101.623 57.9761 101.411 58.2112 101.199 58.4311C100.779 58.8689 100.336 59.2839 99.8718 59.6745L99.5382 59.9551L99.3638 60.0916C99.1742 60.2432 99.5154 59.9778 99.3183 60.1295C99.1212 60.2811 98.8179 60.501 98.5601 60.6754C98.0707 61.0094 97.5646 61.3182 97.0437 61.6004L96.2854 61.9795L95.9063 62.1539C95.9063 62.1539 95.694 62.2449 95.8229 62.1539L95.6788 62.2146C95.0713 62.4591 94.445 62.6544 93.8061 62.7984C93.4876 62.8742 93.1692 62.9349 92.8431 62.9879H92.6005H92.5171L91.9408 63.0486C90.5603 63.1509 89.174 63.1509 87.7934 63.0486L85.8069 62.8894C85.5676 62.8894 85.3381 62.9844 85.1689 63.1536C84.9997 63.3228 84.9046 63.5523 84.9046 63.7916C84.9086 64.0297 85.0049 64.257 85.1732 64.4253C85.3416 64.5937 85.5688 64.69 85.8069 64.6939C88.6426 64.9441 91.5314 65.1716 94.3292 64.5195C96.8305 63.8807 99.1453 62.6596 101.085 60.9559C103.018 59.3839 104.558 57.3821 105.581 55.1101C106.061 53.9118 106.443 52.677 106.726 51.4176C107.052 50.0983 107.333 48.7563 107.545 47.4142C108.022 44.7202 108.182 41.9795 108.023 39.2482C107.861 36.6397 107.426 34.0553 106.726 31.5372C105.956 28.8742 104.836 26.3247 103.397 23.9551C102.902 23.1874 102.322 22.4778 101.669 21.8397C100.856 20.9991 99.9789 20.2234 99.0453 19.5195C98.1401 18.8387 97.1384 18.2969 96.0731 17.9121C94.7766 17.4691 93.4286 17.1939 92.0622 17.0933C89.4448 16.9731 86.8219 17.0771 84.2222 17.4041L82.3874 17.5406C82.2614 17.5291 82.1344 17.5439 82.0146 17.5842C81.8947 17.6245 81.7845 17.6894 81.6911 17.7746C81.5977 17.8599 81.523 17.9637 81.472 18.0794C81.4209 18.1951 81.3945 18.3202 81.3945 18.4467C81.3945 18.5731 81.4209 18.6982 81.472 18.8139C81.523 18.9297 81.5977 19.0335 81.6911 19.1187C81.7845 19.204 81.8947 19.2688 82.0146 19.3091C82.1344 19.3494 82.2614 19.3643 82.3874 19.3527V19.5044Z" fill="#362D2A"/>
</svg>
